<?xml version="1.0" encoding="utf-8"?>
<!-- Generator: Adobe Illustrator 27.3.1, SVG Export Plug-In . SVG Version: 6.00 Build 0)  -->
<!DOCTYPE svg PUBLIC "-//W3C//DTD SVG 1.1//EN" "http://www.w3.org/Graphics/SVG/1.1/DTD/svg11.dtd" [
	<!ENTITY ns_extend "http://ns.adobe.com/Extensibility/1.0/">
	<!ENTITY ns_ai "http://ns.adobe.com/AdobeIllustrator/10.0/">
	<!ENTITY ns_graphs "http://ns.adobe.com/Graphs/1.0/">
	<!ENTITY ns_vars "http://ns.adobe.com/Variables/1.0/">
	<!ENTITY ns_imrep "http://ns.adobe.com/ImageReplacement/1.0/">
	<!ENTITY ns_sfw "http://ns.adobe.com/SaveForWeb/1.0/">
	<!ENTITY ns_custom "http://ns.adobe.com/GenericCustomNamespace/1.0/">
	<!ENTITY ns_adobe_xpath "http://ns.adobe.com/XPath/1.0/">
]>
<svg version="1.1" id="Layer_1" xmlns:x="&ns_extend;" xmlns:i="&ns_ai;" xmlns:graph="&ns_graphs;"
	 xmlns="http://www.w3.org/2000/svg" xmlns:xlink="http://www.w3.org/1999/xlink" x="0px" y="0px" width="520px" height="200px"
	 viewBox="0 0 520 200" style="enable-background:new 0 0 520 200;" xml:space="preserve">
<style type="text/css">
	.st0{fill:#D6B8C2;}
	.st1{fill:#D6E2E0;}
	.st2{fill:#DFE5E5;}
	.st3{fill:#D6D1D4;}
	.st4{fill:#D6E4E3;stroke:#135F5F;stroke-miterlimit:10;}
	.st5{opacity:0.1;fill:#2E8B8D;}
	.st6{fill:#2E8B8D;stroke:#135F5F;stroke-miterlimit:10;}
	.st7{opacity:0.1;fill:#FFFFFF;}
	.st8{fill:#DFE7E7;stroke:#0D3A4C;stroke-miterlimit:10;}
	.st9{opacity:0.1;fill:#176884;}
	.st10{fill:#176884;stroke:#0D3A4C;stroke-miterlimit:10;}
	.st11{fill:#D6B8C2;stroke:#690C3F;stroke-miterlimit:10;}
	.st12{opacity:0.1;fill:#A52668;}
	.st13{fill:#A52668;stroke:#690C3F;stroke-miterlimit:10;}
	.st14{fill:#D6D1D6;stroke:#261841;stroke-miterlimit:10;}
	.st15{opacity:0.1;fill:#564A6F;}
	.st16{fill:#564A6F;stroke:#261841;stroke-miterlimit:10;}
</style>
<metadata>
	<sfw  xmlns="&ns_sfw;">
		<slices></slices>
		<sliceSourceBounds  bottomLeftOrigin="true" height="200" width="520" x="0" y="-200"></sliceSourceBounds>
	</sfw>
</metadata>
<circle class="st0" cx="20" cy="20" r="20"/>
<circle class="st1" cx="20" cy="60" r="20"/>
<circle class="st2" cx="20" cy="100" r="20"/>
<circle class="st3" cx="20" cy="140" r="20"/>
<circle class="st0" cx="20" cy="180" r="20"/>
<circle class="st0" cx="60" cy="20" r="20"/>
<circle class="st1" cx="60" cy="60" r="20"/>
<circle class="st2" cx="60" cy="100" r="20"/>
<circle class="st3" cx="60" cy="140" r="20"/>
<circle class="st0" cx="60" cy="180" r="20"/>
<circle class="st0" cx="100" cy="20" r="20"/>
<circle class="st1" cx="100" cy="60" r="20"/>
<circle class="st2" cx="100" cy="100" r="20"/>
<circle class="st3" cx="100" cy="140" r="20"/>
<circle class="st0" cx="100" cy="180" r="20"/>
<circle class="st0" cx="140" cy="20" r="20"/>
<circle class="st1" cx="140" cy="60" r="20"/>
<circle class="st2" cx="140" cy="100" r="20"/>
<circle class="st3" cx="140" cy="140" r="20"/>
<circle class="st0" cx="140" cy="180" r="20"/>
<circle class="st0" cx="180" cy="20" r="20"/>
<circle class="st1" cx="180" cy="60" r="20"/>
<circle class="st2" cx="180" cy="100" r="20"/>
<circle class="st3" cx="180" cy="140" r="20"/>
<circle class="st0" cx="180" cy="180" r="20"/>
<circle class="st1" cx="220" cy="60" r="20"/>
<circle class="st2" cx="220" cy="100" r="20"/>
<circle class="st3" cx="220" cy="140" r="20"/>
<circle class="st0" cx="220" cy="180" r="20"/>
<circle class="st1" cx="260" cy="60" r="20"/>
<circle class="st2" cx="260" cy="100" r="20"/>
<circle class="st3" cx="260" cy="140" r="20"/>
<circle class="st0" cx="260" cy="180" r="20"/>
<circle class="st2" cx="300" cy="100" r="20"/>
<circle class="st3" cx="300" cy="140" r="20"/>
<circle class="st0" cx="300" cy="180" r="20"/>
<circle class="st2" cx="340" cy="100" r="20"/>
<circle class="st3" cx="340" cy="140" r="20"/>
<circle class="st0" cx="340" cy="180" r="20"/>
<circle class="st3" cx="380" cy="140" r="20"/>
<circle class="st0" cx="380" cy="180" r="20"/>
<circle class="st3" cx="420" cy="140" r="20"/>
<circle class="st0" cx="420" cy="180" r="20"/>
<circle class="st0" cx="460" cy="180" r="20"/>
<circle class="st0" cx="500" cy="180" r="20"/>
<path class="st4" d="M29,44.4L20,60h18C38,53.3,34.4,47.5,29,44.4z"/>
<path class="st5" d="M28.9,46.3L22.2,58h13.5C35.7,53,33,48.7,28.9,46.3z"/>
<path class="st4" d="M29,44.4c-2.6-1.5-5.7-2.4-9-2.4s-6.3,0.9-9,2.4L20,60L29,44.4z"/>
<path class="st5" d="M26.7,46.1c-2-1.1-4.3-1.8-6.7-1.8s-4.8,0.7-6.7,1.8L20,57.8L26.7,46.1z"/>
<path class="st4" d="M29,75.6c5.4-3.1,9-8.9,9-15.6H20L29,75.6z"/>
<path class="st5" d="M28.9,73.7c4-2.3,6.8-6.7,6.8-11.7H22.2L28.9,73.7z"/>
<path class="st4" d="M11,44.4C5.6,47.5,2,53.3,2,60h18L11,44.4z"/>
<path class="st5" d="M11.1,46.3C7,48.7,4.3,53,4.3,58h13.5L11.1,46.3z"/>
<path class="st4" d="M11,75.6c2.6,1.5,5.7,2.4,9,2.4s6.3-0.9,9-2.4L20,60L11,75.6z"/>
<path class="st5" d="M13.3,73.9c2,1.1,4.3,1.8,6.7,1.8s4.8-0.7,6.7-1.8L20,62.2L13.3,73.9z"/>
<path class="st4" d="M2,60c0,6.7,3.6,12.5,9,15.6L20,60H2z"/>
<path class="st5" d="M4.3,62c0,5,2.7,9.3,6.8,11.7L17.8,62H4.3z"/>
<path class="st4" d="M69,44.4L60,60h18C78,53.3,74.4,47.5,69,44.4z"/>
<path class="st5" d="M68.9,46.3L62.2,58h13.5C75.7,53,73,48.7,68.9,46.3z"/>
<path class="st6" d="M69,44.4c-2.6-1.5-5.7-2.4-9-2.4s-6.3,0.9-9,2.4L60,60L69,44.4z"/>
<path class="st7" d="M66.7,46.1c-2-1.1-4.3-1.8-6.7-1.8s-4.8,0.7-6.7,1.8L60,57.8L66.7,46.1z"/>
<path class="st4" d="M69,75.6c5.4-3.1,9-8.9,9-15.6H60L69,75.6z"/>
<path class="st5" d="M68.9,73.7c4-2.3,6.8-6.7,6.8-11.7H62.2L68.9,73.7z"/>
<path class="st4" d="M51,44.4c-5.4,3.1-9,8.9-9,15.6h18L51,44.4z"/>
<path class="st5" d="M51.1,46.3c-4,2.3-6.8,6.7-6.8,11.7h13.5L51.1,46.3z"/>
<path class="st4" d="M51,75.6c2.6,1.5,5.7,2.4,9,2.4s6.3-0.9,9-2.4L60,60L51,75.6z"/>
<path class="st5" d="M53.3,73.9c2,1.1,4.3,1.8,6.7,1.8s4.8-0.7,6.7-1.8L60,62.2L53.3,73.9z"/>
<path class="st4" d="M42,60c0,6.7,3.6,12.5,9,15.6L60,60H42z"/>
<path class="st5" d="M44.3,62c0,5,2.7,9.3,6.8,11.7L57.8,62H44.3z"/>
<path class="st6" d="M109,44.4L100,60h18C118,53.3,114.4,47.5,109,44.4z"/>
<path class="st7" d="M108.9,46.3L102.2,58h13.5C115.7,53,113,48.7,108.9,46.3z"/>
<path class="st6" d="M109,44.4c-2.6-1.5-5.7-2.4-9-2.4s-6.3,0.9-9,2.4l9,15.6L109,44.4z"/>
<path class="st7" d="M106.7,46.1c-2-1.1-4.3-1.8-6.7-1.8s-4.8,0.7-6.7,1.8l6.7,11.7L106.7,46.1z"/>
<path class="st4" d="M109,75.6c5.4-3.1,9-8.9,9-15.6h-18L109,75.6z"/>
<path class="st5" d="M108.9,73.7c4-2.3,6.8-6.7,6.8-11.7h-13.5L108.9,73.7z"/>
<path class="st4" d="M91,44.4c-5.4,3.1-9,8.9-9,15.6h18L91,44.4z"/>
<path class="st5" d="M91.1,46.3c-4,2.3-6.8,6.7-6.8,11.7h13.5L91.1,46.3z"/>
<path class="st4" d="M91,75.6c2.6,1.5,5.7,2.4,9,2.4s6.3-0.9,9-2.4L100,60L91,75.6z"/>
<path class="st5" d="M93.3,73.9c2,1.1,4.3,1.8,6.7,1.8s4.8-0.7,6.7-1.8L100,62.2L93.3,73.9z"/>
<path class="st4" d="M82,60c0,6.7,3.6,12.5,9,15.6l9-15.6H82z"/>
<path class="st5" d="M84.3,62c0,5,2.7,9.3,6.8,11.7L97.8,62H84.3z"/>
<path class="st6" d="M149,44.4L140,60h18C158,53.3,154.4,47.5,149,44.4z"/>
<path class="st7" d="M148.9,46.3L142.2,58h13.5C155.7,53,153,48.7,148.9,46.3z"/>
<path class="st6" d="M149,44.4c-2.6-1.5-5.7-2.4-9-2.4s-6.3,0.9-9,2.4l9,15.6L149,44.4z"/>
<path class="st7" d="M146.7,46.1c-2-1.1-4.3-1.8-6.7-1.8s-4.8,0.7-6.7,1.8l6.7,11.7L146.7,46.1z"/>
<path class="st6" d="M149,75.6c5.4-3.1,9-8.9,9-15.6h-18L149,75.6z"/>
<path class="st7" d="M148.9,73.7c4-2.3,6.8-6.7,6.8-11.7h-13.5L148.9,73.7z"/>
<path class="st4" d="M131,44.4c-5.4,3.1-9,8.9-9,15.6h18L131,44.4z"/>
<path class="st5" d="M131.1,46.3c-4,2.3-6.8,6.7-6.8,11.7h13.5L131.1,46.3z"/>
<path class="st4" d="M131,75.6c2.6,1.5,5.7,2.4,9,2.4s6.3-0.9,9-2.4L140,60L131,75.6z"/>
<path class="st5" d="M133.3,73.9c2,1.1,4.3,1.8,6.7,1.8s4.8-0.7,6.7-1.8L140,62.2L133.3,73.9z"/>
<path class="st4" d="M122,60c0,6.7,3.6,12.5,9,15.6l9-15.6H122z"/>
<path class="st5" d="M124.3,62c0,5,2.7,9.3,6.8,11.7l6.7-11.7H124.3z"/>
<path class="st6" d="M189,44.4L180,60h18C198,53.3,194.4,47.5,189,44.4z"/>
<path class="st7" d="M188.9,46.3L182.2,58h13.5C195.7,53,193,48.7,188.9,46.3z"/>
<path class="st6" d="M189,44.4c-2.6-1.5-5.7-2.4-9-2.4s-6.3,0.9-9,2.4l9,15.6L189,44.4z"/>
<path class="st7" d="M186.7,46.1c-2-1.1-4.3-1.8-6.7-1.8s-4.8,0.7-6.7,1.8l6.7,11.7L186.7,46.1z"/>
<path class="st6" d="M189,75.6c5.4-3.1,9-8.9,9-15.6h-18L189,75.6z"/>
<path class="st7" d="M188.9,73.7c4-2.3,6.8-6.7,6.8-11.7h-13.5L188.9,73.7z"/>
<path class="st4" d="M171,44.4c-5.4,3.1-9,8.9-9,15.6h18L171,44.4z"/>
<path class="st5" d="M171.1,46.3c-4,2.3-6.8,6.7-6.8,11.7h13.5L171.1,46.3z"/>
<path class="st6" d="M171,75.6c2.6,1.5,5.7,2.4,9,2.4s6.3-0.9,9-2.4L180,60L171,75.6z"/>
<path class="st7" d="M173.3,73.9c2,1.1,4.3,1.8,6.7,1.8s4.8-0.7,6.7-1.8L180,62.2L173.3,73.9z"/>
<path class="st4" d="M162,60c0,6.7,3.6,12.5,9,15.6l9-15.6H162z"/>
<path class="st5" d="M164.3,62c0,5,2.7,9.3,6.8,11.7l6.7-11.7H164.3z"/>
<path class="st6" d="M229,44.4L220,60h18C238,53.3,234.4,47.5,229,44.4z"/>
<path class="st7" d="M228.9,46.3L222.2,58h13.5C235.7,53,233,48.7,228.9,46.3z"/>
<path class="st6" d="M229,44.4c-2.6-1.5-5.7-2.4-9-2.4s-6.3,0.9-9,2.4l9,15.6L229,44.4z"/>
<path class="st7" d="M226.7,46.1c-2-1.1-4.3-1.8-6.7-1.8s-4.8,0.7-6.7,1.8l6.7,11.7L226.7,46.1z"/>
<path class="st6" d="M229,75.6c5.4-3.1,9-8.9,9-15.6h-18L229,75.6z"/>
<path class="st7" d="M228.9,73.7c4-2.3,6.8-6.7,6.8-11.7h-13.5L228.9,73.7z"/>
<path class="st4" d="M211,44.4c-5.4,3.1-9,8.9-9,15.6h18L211,44.4z"/>
<path class="st5" d="M211.1,46.3c-4,2.3-6.8,6.7-6.8,11.7h13.5L211.1,46.3z"/>
<path class="st6" d="M211,75.6c2.6,1.5,5.7,2.4,9,2.4s6.3-0.9,9-2.4L220,60L211,75.6z"/>
<path class="st7" d="M213.3,73.9c2,1.1,4.3,1.8,6.7,1.8s4.8-0.7,6.7-1.8L220,62.2L213.3,73.9z"/>
<path class="st6" d="M202,60c0,6.7,3.6,12.5,9,15.6l9-15.6H202z"/>
<path class="st7" d="M204.3,62c0,5,2.7,9.3,6.8,11.7l6.7-11.7H204.3z"/>
<path class="st6" d="M269,44.4L260,60h18C278,53.3,274.4,47.5,269,44.4z"/>
<path class="st7" d="M268.9,46.3L262.2,58h13.5C275.7,53,273,48.7,268.9,46.3z"/>
<path class="st6" d="M269,44.4c-2.6-1.5-5.7-2.4-9-2.4s-6.3,0.9-9,2.4l9,15.6L269,44.4z"/>
<path class="st7" d="M266.7,46.1c-2-1.1-4.3-1.8-6.7-1.8s-4.8,0.7-6.7,1.8l6.7,11.7L266.7,46.1z"/>
<path class="st6" d="M269,75.6c5.4-3.1,9-8.9,9-15.6h-18L269,75.6z"/>
<path class="st7" d="M268.9,73.7c4-2.3,6.8-6.7,6.8-11.7h-13.5L268.9,73.7z"/>
<path class="st6" d="M251,44.4c-5.4,3.1-9,8.9-9,15.6h18L251,44.4z"/>
<path class="st7" d="M251.1,46.3c-4,2.3-6.8,6.7-6.8,11.7h13.5L251.1,46.3z"/>
<path class="st6" d="M251,75.6c2.6,1.5,5.7,2.4,9,2.4s6.3-0.9,9-2.4L260,60L251,75.6z"/>
<path class="st7" d="M253.3,73.9c2,1.1,4.3,1.8,6.7,1.8s4.8-0.7,6.7-1.8L260,62.2L253.3,73.9z"/>
<path class="st6" d="M242,60c0,6.7,3.6,12.5,9,15.6l9-15.6H242z"/>
<path class="st7" d="M244.3,62c0,5,2.7,9.3,6.8,11.7l6.7-11.7H244.3z"/>
<path class="st8" d="M3.4,93.1c-1.8,4.3-1.9,9.2,0,13.8L20,100L3.4,93.1z"/>
<path class="st9" d="M5.4,94.8c-1.3,3.2-1.4,6.9,0,10.3l12.5-5.2L5.4,94.8z"/>
<path class="st8" d="M3.4,106.9c1.9,4.6,5.5,8,9.7,9.7L20,100L3.4,106.9z"/>
<path class="st9" d="M5.5,107.2c1.4,3.4,4.1,6,7.3,7.3L18,102L5.5,107.2z"/>
<path class="st8" d="M13.1,116.6c4.3,1.8,9.2,1.9,13.8,0L20,100L13.1,116.6z"/>
<path class="st9" d="M14.8,114.6c3.2,1.3,6.9,1.4,10.3,0L20,102.1L14.8,114.6z"/>
<path class="st8" d="M26.9,116.6c4.6-1.9,8-5.5,9.7-9.7L20,100L26.9,116.6z"/>
<path class="st9" d="M27.2,114.5c3.4-1.4,6-4.1,7.3-7.3L22,102L27.2,114.5z"/>
<path class="st8" d="M3.4,93.1L20,100l-6.9-16.6C8.5,85.3,5.1,88.9,3.4,93.1z"/>
<path class="st9" d="M5.5,92.8L18,98l-5.2-12.5C9.3,86.9,6.8,89.6,5.5,92.8z"/>
<path class="st8" d="M26.9,83.4c-4.3-1.8-9.2-1.9-13.8,0L20,100L26.9,83.4z"/>
<path class="st9" d="M25.2,85.4c-3.2-1.3-6.9-1.4-10.3,0L20,97.9L25.2,85.4z"/>
<path class="st8" d="M36.6,93.1c-1.9-4.6-5.5-8-9.7-9.7L20,100L36.6,93.1z"/>
<path class="st9" d="M34.5,92.8c-1.4-3.4-4.1-6-7.3-7.3L22,98L34.5,92.8z"/>
<path class="st8" d="M36.6,106.9c1.8-4.3,1.9-9.2,0-13.8L20,100L36.6,106.9z"/>
<path class="st9" d="M34.6,105.2c1.3-3.2,1.4-6.9,0-10.3L22.1,100L34.6,105.2z"/>
<path class="st8" d="M43.4,93.1c-1.8,4.3-1.9,9.2,0,13.8L60,100L43.4,93.1z"/>
<path class="st9" d="M45.4,94.8c-1.3,3.2-1.4,6.9,0,10.3l12.5-5.2L45.4,94.8z"/>
<path class="st8" d="M43.4,106.9c1.9,4.6,5.5,8,9.7,9.7L60,100L43.4,106.9z"/>
<path class="st9" d="M45.5,107.2c1.4,3.4,4.1,6,7.3,7.3L58,102L45.5,107.2z"/>
<path class="st8" d="M53.1,116.6c4.3,1.8,9.2,1.9,13.8,0L60,100L53.1,116.6z"/>
<path class="st9" d="M54.8,114.6c3.2,1.3,6.9,1.4,10.3,0L60,102.1L54.8,114.6z"/>
<path class="st8" d="M66.9,116.6c4.6-1.9,8-5.5,9.7-9.7L60,100L66.9,116.6z"/>
<path class="st9" d="M67.2,114.5c3.4-1.4,6-4.1,7.3-7.3L62,102L67.2,114.5z"/>
<path class="st8" d="M43.4,93.1L60,100l-6.9-16.6C48.5,85.3,45.1,88.9,43.4,93.1z"/>
<path class="st9" d="M45.5,92.8L58,98l-5.2-12.5C49.3,86.9,46.8,89.6,45.5,92.8z"/>
<path class="st10" d="M66.9,83.4c-4.3-1.8-9.2-1.9-13.8,0L60,100L66.9,83.4z"/>
<path class="st7" d="M65.2,85.4c-3.2-1.3-6.9-1.4-10.3,0L60,97.9L65.2,85.4z"/>
<path class="st8" d="M76.6,93.1c-1.9-4.6-5.5-8-9.7-9.7L60,100L76.6,93.1z"/>
<path class="st9" d="M74.5,92.8c-1.4-3.4-4.1-6-7.3-7.3L62,98L74.5,92.8z"/>
<path class="st8" d="M76.6,106.9c1.8-4.3,1.9-9.2,0-13.8L60,100L76.6,106.9z"/>
<path class="st9" d="M74.6,105.2c1.3-3.2,1.4-6.9,0-10.3L62.1,100L74.6,105.2z"/>
<path class="st8" d="M83.4,93.1c-1.8,4.3-1.9,9.2,0,13.8L100,100L83.4,93.1z"/>
<path class="st9" d="M85.4,94.8c-1.3,3.2-1.4,6.9,0,10.3l12.5-5.2L85.4,94.8z"/>
<path class="st8" d="M83.4,106.9c1.9,4.6,5.5,8,9.7,9.7L100,100L83.4,106.9z"/>
<path class="st9" d="M85.5,107.2c1.4,3.4,4.1,6,7.3,7.3L98,102L85.5,107.2z"/>
<path class="st8" d="M93.1,116.6c4.3,1.8,9.2,1.9,13.8,0L100,100L93.1,116.6z"/>
<path class="st9" d="M94.8,114.6c3.2,1.3,6.9,1.4,10.3,0l-5.2-12.5L94.8,114.6z"/>
<path class="st8" d="M106.9,116.6c4.6-1.9,8-5.5,9.7-9.7L100,100L106.9,116.6z"/>
<path class="st9" d="M107.2,114.5c3.4-1.4,6-4.1,7.3-7.3L102,102L107.2,114.5z"/>
<path class="st8" d="M83.4,93.1L100,100l-6.9-16.6C88.5,85.3,85.1,88.9,83.4,93.1z"/>
<path class="st9" d="M85.5,92.8L98,98l-5.2-12.5C89.3,86.9,86.8,89.6,85.5,92.8z"/>
<path class="st10" d="M106.9,83.4c-4.3-1.8-9.2-1.9-13.8,0L100,100L106.9,83.4z"/>
<path class="st7" d="M105.2,85.4c-3.2-1.3-6.9-1.4-10.3,0l5.2,12.5L105.2,85.4z"/>
<path class="st10" d="M116.6,93.1c-1.9-4.6-5.5-8-9.7-9.7L100,100L116.6,93.1z"/>
<path class="st7" d="M114.5,92.8c-1.4-3.4-4.1-6-7.3-7.3L102,98L114.5,92.8z"/>
<path class="st8" d="M116.6,106.9c1.8-4.3,1.9-9.2,0-13.8L100,100L116.6,106.9z"/>
<path class="st9" d="M114.6,105.2c1.3-3.2,1.4-6.9,0-10.3l-12.5,5.2L114.6,105.2z"/>
<path class="st8" d="M123.4,93.1c-1.8,4.3-1.9,9.2,0,13.8L140,100L123.4,93.1z"/>
<path class="st9" d="M125.4,94.8c-1.3,3.2-1.4,6.9,0,10.3l12.5-5.2L125.4,94.8z"/>
<path class="st8" d="M123.4,106.9c1.9,4.6,5.5,8,9.7,9.7L140,100L123.4,106.9z"/>
<path class="st9" d="M125.5,107.2c1.4,3.4,4.1,6,7.3,7.3L138,102L125.5,107.2z"/>
<path class="st8" d="M133.1,116.6c4.3,1.8,9.2,1.9,13.8,0L140,100L133.1,116.6z"/>
<path class="st9" d="M134.8,114.6c3.2,1.3,6.9,1.4,10.3,0l-5.2-12.5L134.8,114.6z"/>
<path class="st8" d="M146.9,116.6c4.6-1.9,8-5.5,9.7-9.7L140,100L146.9,116.6z"/>
<path class="st9" d="M147.2,114.5c3.4-1.4,6-4.1,7.3-7.3L142,102L147.2,114.5z"/>
<path class="st8" d="M123.4,93.1L140,100l-6.9-16.6C128.5,85.3,125.1,88.9,123.4,93.1z"/>
<path class="st9" d="M125.5,92.8L138,98l-5.2-12.5C129.3,86.9,126.8,89.6,125.5,92.8z"/>
<path class="st10" d="M146.9,83.4c-4.3-1.8-9.2-1.9-13.8,0L140,100L146.9,83.4z"/>
<path class="st7" d="M145.2,85.4c-3.2-1.3-6.9-1.4-10.3,0l5.2,12.5L145.2,85.4z"/>
<path class="st10" d="M156.6,93.1c-1.9-4.6-5.5-8-9.7-9.7L140,100L156.6,93.1z"/>
<path class="st7" d="M154.5,92.8c-1.4-3.4-4.1-6-7.3-7.3L142,98L154.5,92.8z"/>
<path class="st10" d="M156.6,106.9c1.8-4.3,1.9-9.2,0-13.8L140,100L156.6,106.9z"/>
<path class="st7" d="M154.6,105.2c1.3-3.2,1.4-6.9,0-10.3l-12.5,5.2L154.6,105.2z"/>
<path class="st8" d="M163.4,93.1c-1.8,4.3-1.9,9.2,0,13.8L180,100L163.4,93.1z"/>
<path class="st9" d="M165.4,94.8c-1.3,3.2-1.4,6.9,0,10.3l12.5-5.2L165.4,94.8z"/>
<path class="st8" d="M163.4,106.9c1.9,4.6,5.5,8,9.7,9.7L180,100L163.4,106.9z"/>
<path class="st9" d="M165.5,107.2c1.4,3.4,4.1,6,7.3,7.3L178,102L165.5,107.2z"/>
<path class="st8" d="M173.1,116.6c4.3,1.8,9.2,1.9,13.8,0L180,100L173.1,116.6z"/>
<path class="st9" d="M174.8,114.6c3.2,1.3,6.9,1.4,10.3,0l-5.2-12.5L174.8,114.6z"/>
<path class="st10" d="M186.9,116.6c4.6-1.9,8-5.5,9.7-9.7L180,100L186.9,116.6z"/>
<path class="st7" d="M187.2,114.5c3.4-1.4,6-4.1,7.3-7.3L182,102L187.2,114.5z"/>
<path class="st8" d="M163.4,93.1L180,100l-6.9-16.6C168.5,85.3,165.1,88.9,163.4,93.1z"/>
<path class="st9" d="M165.5,92.8L178,98l-5.2-12.5C169.3,86.9,166.8,89.6,165.5,92.8z"/>
<path class="st10" d="M186.9,83.4c-4.3-1.8-9.2-1.9-13.8,0L180,100L186.9,83.4z"/>
<path class="st7" d="M185.2,85.4c-3.2-1.3-6.9-1.4-10.3,0l5.2,12.5L185.2,85.4z"/>
<path class="st10" d="M196.6,93.1c-1.9-4.6-5.5-8-9.7-9.7L180,100L196.6,93.1z"/>
<path class="st7" d="M194.5,92.8c-1.4-3.4-4.1-6-7.3-7.3L182,98L194.5,92.8z"/>
<path class="st10" d="M196.6,106.9c1.8-4.3,1.9-9.2,0-13.8L180,100L196.6,106.9z"/>
<path class="st7" d="M194.6,105.2c1.3-3.2,1.4-6.9,0-10.3l-12.5,5.2L194.6,105.2z"/>
<path class="st8" d="M203.4,93.1c-1.8,4.3-1.9,9.2,0,13.8L220,100L203.4,93.1z"/>
<path class="st9" d="M205.4,94.8c-1.3,3.2-1.4,6.9,0,10.3l12.5-5.2L205.4,94.8z"/>
<path class="st8" d="M203.4,106.9c1.9,4.6,5.5,8,9.7,9.7L220,100L203.4,106.9z"/>
<path class="st9" d="M205.5,107.2c1.4,3.4,4.1,6,7.3,7.3L218,102L205.5,107.2z"/>
<path class="st10" d="M213.1,116.6c4.3,1.8,9.2,1.9,13.8,0L220,100L213.1,116.6z"/>
<path class="st7" d="M214.8,114.6c3.2,1.3,6.9,1.4,10.3,0l-5.2-12.5L214.8,114.6z"/>
<path class="st10" d="M226.9,116.6c4.6-1.9,8-5.5,9.7-9.7L220,100L226.9,116.6z"/>
<path class="st7" d="M227.2,114.5c3.4-1.4,6-4.1,7.3-7.3L222,102L227.2,114.5z"/>
<path class="st8" d="M203.4,93.1L220,100l-6.9-16.6C208.5,85.3,205.1,88.9,203.4,93.1z"/>
<path class="st9" d="M205.5,92.8L218,98l-5.2-12.5C209.3,86.9,206.8,89.6,205.5,92.8z"/>
<path class="st10" d="M226.9,83.4c-4.3-1.8-9.2-1.9-13.8,0L220,100L226.9,83.4z"/>
<path class="st7" d="M225.2,85.4c-3.2-1.3-6.9-1.4-10.3,0l5.2,12.5L225.2,85.4z"/>
<path class="st10" d="M236.6,93.1c-1.9-4.6-5.5-8-9.7-9.7L220,100L236.6,93.1z"/>
<path class="st7" d="M234.5,92.8c-1.4-3.4-4.1-6-7.3-7.3L222,98L234.5,92.8z"/>
<path class="st10" d="M236.6,106.9c1.8-4.3,1.9-9.2,0-13.8L220,100L236.6,106.9z"/>
<path class="st7" d="M234.6,105.2c1.3-3.2,1.4-6.9,0-10.3l-12.5,5.2L234.6,105.2z"/>
<path class="st8" d="M243.4,93.1c-1.8,4.3-1.9,9.2,0,13.8L260,100L243.4,93.1z"/>
<path class="st9" d="M245.4,94.8c-1.3,3.2-1.4,6.9,0,10.3l12.5-5.2L245.4,94.8z"/>
<path class="st10" d="M243.4,106.9c1.9,4.6,5.5,8,9.7,9.7L260,100L243.4,106.9z"/>
<path class="st7" d="M245.5,107.2c1.4,3.4,4.1,6,7.3,7.3L258,102L245.5,107.2z"/>
<path class="st10" d="M253.1,116.6c4.3,1.8,9.2,1.9,13.8,0L260,100L253.1,116.6z"/>
<path class="st7" d="M254.8,114.6c3.2,1.3,6.9,1.4,10.3,0l-5.2-12.5L254.8,114.6z"/>
<path class="st10" d="M266.9,116.6c4.6-1.9,8-5.5,9.7-9.7L260,100L266.9,116.6z"/>
<path class="st7" d="M267.2,114.5c3.4-1.4,6-4.1,7.3-7.3L262,102L267.2,114.5z"/>
<path class="st8" d="M243.4,93.1L260,100l-6.9-16.6C248.5,85.3,245.1,88.9,243.4,93.1z"/>
<path class="st9" d="M245.5,92.8L258,98l-5.2-12.5C249.3,86.9,246.8,89.6,245.5,92.8z"/>
<path class="st10" d="M266.9,83.4c-4.3-1.8-9.2-1.9-13.8,0L260,100L266.9,83.4z"/>
<path class="st7" d="M265.2,85.4c-3.2-1.3-6.9-1.4-10.3,0l5.2,12.5L265.2,85.4z"/>
<path class="st10" d="M276.6,93.1c-1.9-4.6-5.5-8-9.7-9.7L260,100L276.6,93.1z"/>
<path class="st7" d="M274.5,92.8c-1.4-3.4-4.1-6-7.3-7.3L262,98L274.5,92.8z"/>
<path class="st10" d="M276.6,106.9c1.8-4.3,1.9-9.2,0-13.8L260,100L276.6,106.9z"/>
<path class="st7" d="M274.6,105.2c1.3-3.2,1.4-6.9,0-10.3l-12.5,5.2L274.6,105.2z"/>
<path class="st10" d="M283.4,93.1c-1.8,4.3-1.9,9.2,0,13.8L300,100L283.4,93.1z"/>
<path class="st7" d="M285.4,94.8c-1.3,3.2-1.4,6.9,0,10.3l12.5-5.2L285.4,94.8z"/>
<path class="st10" d="M283.4,106.9c1.9,4.6,5.5,8,9.7,9.7L300,100L283.4,106.9z"/>
<path class="st7" d="M285.5,107.2c1.4,3.4,4.1,6,7.3,7.3L298,102L285.5,107.2z"/>
<path class="st10" d="M293.1,116.6c4.3,1.8,9.2,1.9,13.8,0L300,100L293.1,116.6z"/>
<path class="st7" d="M294.8,114.6c3.2,1.3,6.9,1.4,10.3,0l-5.2-12.5L294.8,114.6z"/>
<path class="st10" d="M306.9,116.6c4.6-1.9,8-5.5,9.7-9.7L300,100L306.9,116.6z"/>
<path class="st7" d="M307.2,114.5c3.4-1.4,6-4.1,7.3-7.3L302,102L307.2,114.5z"/>
<path class="st8" d="M283.4,93.1L300,100l-6.9-16.6C288.5,85.3,285.1,88.9,283.4,93.1z"/>
<path class="st9" d="M285.5,92.8L298,98l-5.2-12.5C289.3,86.9,286.8,89.6,285.5,92.8z"/>
<path class="st10" d="M306.9,83.4c-4.3-1.8-9.2-1.9-13.8,0L300,100L306.9,83.4z"/>
<path class="st7" d="M305.2,85.4c-3.2-1.3-6.9-1.4-10.3,0l5.2,12.5L305.2,85.4z"/>
<path class="st10" d="M316.6,93.1c-1.9-4.6-5.5-8-9.7-9.7L300,100L316.6,93.1z"/>
<path class="st7" d="M314.5,92.8c-1.4-3.4-4.1-6-7.3-7.3L302,98L314.5,92.8z"/>
<path class="st10" d="M316.6,106.9c1.8-4.3,1.9-9.2,0-13.8L300,100L316.6,106.9z"/>
<path class="st7" d="M314.6,105.2c1.3-3.2,1.4-6.9,0-10.3l-12.5,5.2L314.6,105.2z"/>
<path class="st10" d="M323.4,93.1c-1.8,4.3-1.9,9.2,0,13.8L340,100L323.4,93.1z"/>
<path class="st7" d="M325.4,94.8c-1.3,3.2-1.4,6.9,0,10.3l12.5-5.2L325.4,94.8z"/>
<path class="st10" d="M323.4,106.9c1.9,4.6,5.5,8,9.7,9.7L340,100L323.4,106.9z"/>
<path class="st7" d="M325.5,107.2c1.4,3.4,4.1,6,7.3,7.3L338,102L325.5,107.2z"/>
<path class="st10" d="M333.1,116.6c4.3,1.8,9.2,1.9,13.8,0L340,100L333.1,116.6z"/>
<path class="st7" d="M334.8,114.6c3.2,1.3,6.9,1.4,10.3,0l-5.2-12.5L334.8,114.6z"/>
<path class="st10" d="M346.9,116.6c4.6-1.9,8-5.5,9.7-9.7L340,100L346.9,116.6z"/>
<path class="st7" d="M347.2,114.5c3.4-1.4,6-4.1,7.3-7.3L342,102L347.2,114.5z"/>
<path class="st10" d="M323.4,93.1L340,100l-6.9-16.6C328.5,85.3,325.1,88.9,323.4,93.1z"/>
<path class="st7" d="M325.5,92.8L338,98l-5.2-12.5C329.3,86.9,326.8,89.6,325.5,92.8z"/>
<path class="st10" d="M346.9,83.4c-4.3-1.8-9.2-1.9-13.8,0L340,100L346.9,83.4z"/>
<path class="st7" d="M345.2,85.4c-3.2-1.3-6.9-1.4-10.3,0l5.2,12.5L345.2,85.4z"/>
<path class="st10" d="M356.6,93.1c-1.9-4.6-5.5-8-9.7-9.7L340,100L356.6,93.1z"/>
<path class="st7" d="M354.5,92.8c-1.4-3.4-4.1-6-7.3-7.3L342,98L354.5,92.8z"/>
<path class="st10" d="M356.6,106.9c1.8-4.3,1.9-9.2,0-13.8L340,100L356.6,106.9z"/>
<path class="st7" d="M354.6,105.2c1.3-3.2,1.4-6.9,0-10.3l-12.5,5.2L354.6,105.2z"/>
<path class="st11" d="M32.7,32.7c7-7,7-18.4,0-25.5L20,20L32.7,32.7z"/>
<path class="st12" d="M31.8,29.5c5.3-5.3,5.3-13.8,0-19.1L22.2,20L31.8,29.5z"/>
<path class="st11" d="M7.3,7.3L20,20L32.7,7.3C25.7,0.2,14.3,0.2,7.3,7.3z"/>
<path class="st12" d="M10.5,8.2l9.5,9.5l9.5-9.5C24.3,3,15.7,3,10.5,8.2z"/>
<path class="st11" d="M7.3,32.7c7,7,18.4,7,25.5,0L20,20L7.3,32.7z"/>
<path class="st12" d="M10.5,31.8c5.3,5.3,13.8,5.3,19.1,0L20,22.2L10.5,31.8z"/>
<path class="st11" d="M7.3,32.7L20,20L7.3,7.3C0.2,14.3,0.2,25.7,7.3,32.7z"/>
<path class="st12" d="M8.2,29.5l9.5-9.5l-9.5-9.5C3,15.7,3,24.3,8.2,29.5z"/>
<path class="st11" d="M72.7,32.7c7-7,7-18.4,0-25.5L60,20L72.7,32.7z"/>
<path class="st12" d="M71.8,29.5c5.3-5.3,5.3-13.8,0-19.1L62.2,20L71.8,29.5z"/>
<path class="st13" d="M47.3,7.3L60,20L72.7,7.3C65.7,0.2,54.3,0.2,47.3,7.3z"/>
<path class="st7" d="M50.5,8.2l9.5,9.5l9.5-9.5C64.3,3,55.7,3,50.5,8.2z"/>
<path class="st11" d="M47.3,32.7c7,7,18.4,7,25.5,0L60,20L47.3,32.7z"/>
<path class="st12" d="M50.5,31.8c5.3,5.3,13.8,5.3,19.1,0L60,22.2L50.5,31.8z"/>
<path class="st11" d="M47.3,32.7L60,20L47.3,7.3C40.2,14.3,40.2,25.7,47.3,32.7z"/>
<path class="st12" d="M48.2,29.5l9.5-9.5l-9.5-9.5C43,15.7,43,24.3,48.2,29.5z"/>
<path class="st13" d="M112.7,32.7c7-7,7-18.4,0-25.5L100,20L112.7,32.7z"/>
<path class="st7" d="M111.8,29.5c5.3-5.3,5.3-13.8,0-19.1l-9.5,9.5L111.8,29.5z"/>
<path class="st13" d="M87.3,7.3L100,20l12.7-12.7C105.7,0.2,94.3,0.2,87.3,7.3z"/>
<path class="st7" d="M90.5,8.2l9.5,9.5l9.5-9.5C104.3,3,95.7,3,90.5,8.2z"/>
<path class="st11" d="M87.3,32.7c7,7,18.4,7,25.5,0L100,20L87.3,32.7z"/>
<path class="st12" d="M90.5,31.8c5.3,5.3,13.8,5.3,19.1,0l-9.5-9.5L90.5,31.8z"/>
<path class="st11" d="M87.3,32.7L100,20L87.3,7.3C80.2,14.3,80.2,25.7,87.3,32.7z"/>
<path class="st12" d="M88.2,29.5l9.5-9.5l-9.5-9.5C83,15.7,83,24.3,88.2,29.5z"/>
<path class="st13" d="M152.7,32.7c7-7,7-18.4,0-25.5L140,20L152.7,32.7z"/>
<path class="st7" d="M151.8,29.5c5.3-5.3,5.3-13.8,0-19.1l-9.5,9.5L151.8,29.5z"/>
<path class="st13" d="M127.3,7.3L140,20l12.7-12.7C145.7,0.2,134.3,0.2,127.3,7.3z"/>
<path class="st7" d="M130.5,8.2l9.5,9.5l9.5-9.5C144.3,3,135.7,3,130.5,8.2z"/>
<path class="st13" d="M127.3,32.7c7,7,18.4,7,25.5,0L140,20L127.3,32.7z"/>
<path class="st7" d="M130.5,31.8c5.3,5.3,13.8,5.3,19.1,0l-9.5-9.5L130.5,31.8z"/>
<path class="st11" d="M127.3,32.7L140,20L127.3,7.3C120.2,14.3,120.2,25.7,127.3,32.7z"/>
<path class="st12" d="M128.2,29.5l9.5-9.5l-9.5-9.5C123,15.7,123,24.3,128.2,29.5z"/>
<path class="st13" d="M192.7,32.7c7-7,7-18.4,0-25.5L180,20L192.7,32.7z"/>
<path class="st7" d="M191.8,29.5c5.3-5.3,5.3-13.8,0-19.1l-9.5,9.5L191.8,29.5z"/>
<path class="st13" d="M167.3,7.3L180,20l12.7-12.7C185.7,0.2,174.3,0.2,167.3,7.3z"/>
<path class="st7" d="M170.5,8.2l9.5,9.5l9.5-9.5C184.3,3,175.7,3,170.5,8.2z"/>
<path class="st13" d="M167.3,32.7c7,7,18.4,7,25.5,0L180,20L167.3,32.7z"/>
<path class="st7" d="M170.5,31.8c5.3,5.3,13.8,5.3,19.1,0l-9.5-9.5L170.5,31.8z"/>
<path class="st13" d="M167.3,32.7L180,20L167.3,7.3C160.2,14.3,160.2,25.7,167.3,32.7z"/>
<path class="st7" d="M168.2,29.5l9.5-9.5l-9.5-9.5C163,15.7,163,24.3,168.2,29.5z"/>
<path class="st11" d="M2.6,175.3c-0.8,3-0.9,6.1,0,9.3L20,180L2.6,175.3z"/>
<path class="st12" d="M4.9,176.5c-0.6,2.2-0.6,4.6,0,7l13-3.5L4.9,176.5z"/>
<path class="st11" d="M2.6,184.7c0.8,3.2,2.5,5.9,4.7,8.1L20,180L2.6,184.7z"/>
<path class="st12" d="M4.9,185.1c0.6,2.4,1.9,4.4,3.5,6l9.5-9.5L4.9,185.1z"/>
<path class="st11" d="M7.3,192.7c2.2,2.2,5,3.8,8.1,4.7L20,180L7.3,192.7z"/>
<path class="st12" d="M8.9,191.6c1.7,1.7,3.8,2.9,6,3.5l3.5-13L8.9,191.6z"/>
<path class="st11" d="M15.3,197.4c3,0.8,6.1,0.9,9.3,0L20,180L15.3,197.4z"/>
<path class="st12" d="M16.5,195.1c2.2,0.6,4.6,0.6,7,0l-3.5-13L16.5,195.1z"/>
<path class="st11" d="M24.7,197.4c3.2-0.8,5.9-2.5,8.1-4.7L20,180L24.7,197.4z"/>
<path class="st12" d="M25.1,195.1c2.4-0.6,4.4-1.9,6-3.5l-9.5-9.5L25.1,195.1z"/>
<path class="st11" d="M32.7,192.7c2.2-2.2,3.8-5,4.7-8.1L20,180L32.7,192.7z"/>
<path class="st12" d="M31.6,191.1c1.7-1.7,2.9-3.8,3.5-6l-13-3.5L31.6,191.1z"/>
<path class="st11" d="M7.3,167.3c-2.2,2.2-3.8,5-4.7,8.1L20,180L7.3,167.3z"/>
<path class="st12" d="M8.4,168.9c-1.7,1.7-2.9,3.8-3.5,6l13,3.5L8.4,168.9z"/>
<path class="st11" d="M15.3,162.6c-3.2,0.8-5.9,2.5-8.1,4.7L20,180L15.3,162.6z"/>
<path class="st12" d="M14.9,164.9c-2.4,0.6-4.4,1.9-6,3.5l9.5,9.5L14.9,164.9z"/>
<path class="st11" d="M24.7,162.6c-3-0.8-6.1-0.9-9.3,0L20,180L24.7,162.6z"/>
<path class="st12" d="M23.5,164.9c-2.2-0.6-4.6-0.6-7,0l3.5,13L23.5,164.9z"/>
<path class="st11" d="M32.7,167.3c-2.2-2.2-5-3.8-8.1-4.7L20,180L32.7,167.3z"/>
<path class="st12" d="M31.1,168.4c-1.7-1.7-3.8-2.9-6-3.5l-3.5,13L31.1,168.4z"/>
<path class="st11" d="M20,180l17.4-4.7c-0.8-3.2-2.5-5.9-4.7-8.1L20,180z"/>
<path class="st12" d="M22,178.4l13-3.5c-0.6-2.4-1.9-4.4-3.5-6L22,178.4z"/>
<path class="st11" d="M37.4,184.7c0.8-3,0.9-6.1,0-9.3L20,180L37.4,184.7z"/>
<path class="st12" d="M35.1,183.5c0.6-2.2,0.6-4.6,0-7l-13,3.5L35.1,183.5z"/>
<path class="st11" d="M42.6,175.3c-0.8,3-0.9,6.1,0,9.3L60,180L42.6,175.3z"/>
<path class="st12" d="M44.9,176.5c-0.6,2.2-0.6,4.6,0,7l13-3.5L44.9,176.5z"/>
<path class="st11" d="M42.6,184.7c0.8,3.2,2.5,5.9,4.7,8.1L60,180L42.6,184.7z"/>
<path class="st12" d="M44.9,185.1c0.6,2.4,1.9,4.4,3.5,6l9.5-9.5L44.9,185.1z"/>
<path class="st11" d="M47.3,192.7c2.2,2.2,5,3.8,8.1,4.7L60,180L47.3,192.7z"/>
<path class="st12" d="M48.9,191.6c1.7,1.7,3.8,2.9,6,3.5l3.5-13L48.9,191.6z"/>
<path class="st11" d="M55.3,197.4c3,0.8,6.1,0.9,9.3,0L60,180L55.3,197.4z"/>
<path class="st12" d="M56.5,195.1c2.2,0.6,4.6,0.6,7,0l-3.5-13L56.5,195.1z"/>
<path class="st11" d="M64.7,197.4c3.2-0.8,5.9-2.5,8.1-4.7L60,180L64.7,197.4z"/>
<path class="st12" d="M65.1,195.1c2.4-0.6,4.4-1.9,6-3.5l-9.5-9.5L65.1,195.1z"/>
<path class="st11" d="M72.7,192.7c2.2-2.2,3.8-5,4.7-8.1L60,180L72.7,192.7z"/>
<path class="st12" d="M71.6,191.1c1.7-1.7,2.9-3.8,3.5-6l-13-3.5L71.6,191.1z"/>
<path class="st11" d="M47.3,167.3c-2.2,2.2-3.8,5-4.7,8.1L60,180L47.3,167.3z"/>
<path class="st12" d="M48.4,168.9c-1.7,1.7-2.9,3.8-3.5,6l13,3.5L48.4,168.9z"/>
<path class="st11" d="M55.3,162.6c-3.2,0.8-5.9,2.5-8.1,4.7L60,180L55.3,162.6z"/>
<path class="st12" d="M54.9,164.9c-2.4,0.6-4.4,1.9-6,3.5l9.5,9.5L54.9,164.9z"/>
<path class="st13" d="M64.7,162.6c-3-0.8-6.1-0.9-9.3,0L60,180L64.7,162.6z"/>
<path class="st7" d="M63.5,164.9c-2.2-0.6-4.6-0.6-7,0l3.5,13L63.5,164.9z"/>
<path class="st11" d="M72.7,167.3c-2.2-2.2-5-3.8-8.1-4.7L60,180L72.7,167.3z"/>
<path class="st12" d="M71.1,168.4c-1.7-1.7-3.8-2.9-6-3.5l-3.5,13L71.1,168.4z"/>
<path class="st11" d="M60,180l17.4-4.7c-0.8-3.2-2.5-5.9-4.7-8.1L60,180z"/>
<path class="st12" d="M62,178.4l13-3.5c-0.6-2.4-1.9-4.4-3.5-6L62,178.4z"/>
<path class="st11" d="M77.4,184.7c0.8-3,0.9-6.1,0-9.3L60,180L77.4,184.7z"/>
<path class="st12" d="M75.1,183.5c0.6-2.2,0.6-4.6,0-7l-13,3.5L75.1,183.5z"/>
<path class="st11" d="M82.6,175.3c-0.8,3-0.9,6.1,0,9.3L100,180L82.6,175.3z"/>
<path class="st12" d="M84.9,176.5c-0.6,2.2-0.6,4.6,0,7l13-3.5L84.9,176.5z"/>
<path class="st11" d="M82.6,184.7c0.8,3.2,2.5,5.9,4.7,8.1L100,180L82.6,184.7z"/>
<path class="st12" d="M84.9,185.1c0.6,2.4,1.9,4.4,3.5,6l9.5-9.5L84.9,185.1z"/>
<path class="st11" d="M87.3,192.7c2.2,2.2,5,3.8,8.1,4.7L100,180L87.3,192.7z"/>
<path class="st12" d="M88.9,191.6c1.7,1.7,3.8,2.9,6,3.5l3.5-13L88.9,191.6z"/>
<path class="st11" d="M95.3,197.4c3,0.8,6.1,0.9,9.3,0L100,180L95.3,197.4z"/>
<path class="st12" d="M96.5,195.1c2.2,0.6,4.6,0.6,7,0l-3.5-13L96.5,195.1z"/>
<path class="st11" d="M104.7,197.4c3.2-0.8,5.9-2.5,8.1-4.7L100,180L104.7,197.4z"/>
<path class="st12" d="M105.1,195.1c2.4-0.6,4.4-1.9,6-3.5l-9.5-9.5L105.1,195.1z"/>
<path class="st11" d="M112.7,192.7c2.2-2.2,3.8-5,4.7-8.1L100,180L112.7,192.7z"/>
<path class="st12" d="M111.6,191.1c1.7-1.7,2.9-3.8,3.5-6l-13-3.5L111.6,191.1z"/>
<path class="st11" d="M87.3,167.3c-2.2,2.2-3.8,5-4.7,8.1L100,180L87.3,167.3z"/>
<path class="st12" d="M88.4,168.9c-1.7,1.7-2.9,3.8-3.5,6l13,3.5L88.4,168.9z"/>
<path class="st11" d="M95.3,162.6c-3.2,0.8-5.9,2.5-8.1,4.7L100,180L95.3,162.6z"/>
<path class="st12" d="M94.9,164.9c-2.4,0.6-4.4,1.9-6,3.5l9.5,9.5L94.9,164.9z"/>
<path class="st13" d="M104.7,162.6c-3-0.8-6.1-0.9-9.3,0L100,180L104.7,162.6z"/>
<path class="st7" d="M103.5,164.9c-2.2-0.6-4.6-0.6-7,0l3.5,13L103.5,164.9z"/>
<path class="st13" d="M112.7,167.3c-2.2-2.2-5-3.8-8.1-4.7L100,180L112.7,167.3z"/>
<path class="st7" d="M111.1,168.4c-1.7-1.7-3.8-2.9-6-3.5l-3.5,13L111.1,168.4z"/>
<path class="st11" d="M100,180l17.4-4.7c-0.8-3.2-2.5-5.9-4.7-8.1L100,180z"/>
<path class="st12" d="M102,178.4l13-3.5c-0.6-2.4-1.9-4.4-3.5-6L102,178.4z"/>
<path class="st11" d="M117.4,184.7c0.8-3,0.9-6.1,0-9.3L100,180L117.4,184.7z"/>
<path class="st12" d="M115.1,183.5c0.6-2.2,0.6-4.6,0-7l-13,3.5L115.1,183.5z"/>
<path class="st11" d="M122.6,175.3c-0.8,3-0.9,6.1,0,9.3L140,180L122.6,175.3z"/>
<path class="st12" d="M124.9,176.5c-0.6,2.2-0.6,4.6,0,7l13-3.5L124.9,176.5z"/>
<path class="st11" d="M122.6,184.7c0.8,3.2,2.5,5.9,4.7,8.1L140,180L122.6,184.7z"/>
<path class="st12" d="M124.9,185.1c0.6,2.4,1.9,4.4,3.5,6l9.5-9.5L124.9,185.1z"/>
<path class="st11" d="M127.3,192.7c2.2,2.2,5,3.8,8.1,4.7L140,180L127.3,192.7z"/>
<path class="st12" d="M128.9,191.6c1.7,1.7,3.8,2.9,6,3.5l3.5-13L128.9,191.6z"/>
<path class="st11" d="M135.3,197.4c3,0.8,6.1,0.9,9.3,0L140,180L135.3,197.4z"/>
<path class="st12" d="M136.5,195.1c2.2,0.6,4.6,0.6,7,0l-3.5-13L136.5,195.1z"/>
<path class="st11" d="M144.7,197.4c3.2-0.8,5.9-2.5,8.1-4.7L140,180L144.7,197.4z"/>
<path class="st12" d="M145.1,195.1c2.4-0.6,4.4-1.9,6-3.5l-9.5-9.5L145.1,195.1z"/>
<path class="st11" d="M152.7,192.7c2.2-2.2,3.8-5,4.7-8.1L140,180L152.7,192.7z"/>
<path class="st12" d="M151.6,191.1c1.7-1.7,2.9-3.8,3.5-6l-13-3.5L151.6,191.1z"/>
<path class="st11" d="M127.3,167.3c-2.2,2.2-3.8,5-4.7,8.1L140,180L127.3,167.3z"/>
<path class="st12" d="M128.4,168.9c-1.7,1.7-2.9,3.8-3.5,6l13,3.5L128.4,168.9z"/>
<path class="st11" d="M135.3,162.6c-3.2,0.8-5.9,2.5-8.1,4.7L140,180L135.3,162.6z"/>
<path class="st12" d="M134.9,164.9c-2.4,0.6-4.4,1.9-6,3.5l9.5,9.5L134.9,164.9z"/>
<path class="st13" d="M144.7,162.6c-3-0.8-6.1-0.9-9.3,0L140,180L144.7,162.6z"/>
<path class="st7" d="M143.5,164.9c-2.2-0.6-4.6-0.6-7,0l3.5,13L143.5,164.9z"/>
<path class="st13" d="M152.7,167.3c-2.2-2.2-5-3.8-8.1-4.7L140,180L152.7,167.3z"/>
<path class="st7" d="M151.1,168.4c-1.7-1.7-3.8-2.9-6-3.5l-3.5,13L151.1,168.4z"/>
<path class="st13" d="M140,180l17.4-4.7c-0.8-3.2-2.5-5.9-4.7-8.1L140,180z"/>
<path class="st7" d="M142,178.4l13-3.5c-0.6-2.4-1.9-4.4-3.5-6L142,178.4z"/>
<path class="st11" d="M157.4,184.7c0.8-3,0.9-6.1,0-9.3L140,180L157.4,184.7z"/>
<path class="st12" d="M155.1,183.5c0.6-2.2,0.6-4.6,0-7l-13,3.5L155.1,183.5z"/>
<path class="st11" d="M162.6,175.3c-0.8,3-0.9,6.1,0,9.3L180,180L162.6,175.3z"/>
<path class="st12" d="M164.9,176.5c-0.6,2.2-0.6,4.6,0,7l13-3.5L164.9,176.5z"/>
<path class="st11" d="M162.6,184.7c0.8,3.2,2.5,5.9,4.7,8.1L180,180L162.6,184.7z"/>
<path class="st12" d="M164.9,185.1c0.6,2.4,1.9,4.4,3.5,6l9.5-9.5L164.9,185.1z"/>
<path class="st11" d="M167.3,192.7c2.2,2.2,5,3.8,8.1,4.7L180,180L167.3,192.7z"/>
<path class="st12" d="M168.9,191.6c1.7,1.7,3.8,2.9,6,3.5l3.5-13L168.9,191.6z"/>
<path class="st11" d="M175.3,197.4c3,0.8,6.1,0.9,9.3,0L180,180L175.3,197.4z"/>
<path class="st12" d="M176.5,195.1c2.2,0.6,4.6,0.6,7,0l-3.5-13L176.5,195.1z"/>
<path class="st11" d="M184.7,197.4c3.2-0.8,5.9-2.5,8.1-4.7L180,180L184.7,197.4z"/>
<path class="st12" d="M185.1,195.1c2.4-0.6,4.4-1.9,6-3.5l-9.5-9.5L185.1,195.1z"/>
<path class="st11" d="M192.7,192.7c2.2-2.2,3.8-5,4.7-8.1L180,180L192.7,192.7z"/>
<path class="st12" d="M191.6,191.1c1.7-1.7,2.9-3.8,3.5-6l-13-3.5L191.6,191.1z"/>
<path class="st11" d="M167.3,167.3c-2.2,2.2-3.8,5-4.7,8.1L180,180L167.3,167.3z"/>
<path class="st12" d="M168.4,168.9c-1.7,1.7-2.9,3.8-3.5,6l13,3.5L168.4,168.9z"/>
<path class="st11" d="M175.3,162.6c-3.2,0.8-5.9,2.5-8.1,4.7L180,180L175.3,162.6z"/>
<path class="st12" d="M174.9,164.9c-2.4,0.6-4.4,1.9-6,3.5l9.5,9.5L174.9,164.9z"/>
<path class="st13" d="M184.7,162.6c-3-0.8-6.1-0.9-9.3,0L180,180L184.7,162.6z"/>
<path class="st7" d="M183.5,164.9c-2.2-0.6-4.6-0.6-7,0l3.5,13L183.5,164.9z"/>
<path class="st13" d="M192.7,167.3c-2.2-2.2-5-3.8-8.1-4.7L180,180L192.7,167.3z"/>
<path class="st7" d="M191.1,168.4c-1.7-1.7-3.8-2.9-6-3.5l-3.5,13L191.1,168.4z"/>
<path class="st13" d="M180,180l17.4-4.7c-0.8-3.2-2.5-5.9-4.7-8.1L180,180z"/>
<path class="st7" d="M182,178.4l13-3.5c-0.6-2.4-1.9-4.4-3.5-6L182,178.4z"/>
<path class="st13" d="M197.4,184.7c0.8-3,0.9-6.1,0-9.3L180,180L197.4,184.7z"/>
<path class="st7" d="M195.1,183.5c0.6-2.2,0.6-4.6,0-7l-13,3.5L195.1,183.5z"/>
<path class="st11" d="M202.6,175.3c-0.8,3-0.9,6.1,0,9.3L220,180L202.6,175.3z"/>
<path class="st12" d="M204.9,176.5c-0.6,2.2-0.6,4.6,0,7l13-3.5L204.9,176.5z"/>
<path class="st11" d="M202.6,184.7c0.8,3.2,2.5,5.9,4.7,8.1L220,180L202.6,184.7z"/>
<path class="st12" d="M204.9,185.1c0.6,2.4,1.9,4.4,3.5,6l9.5-9.5L204.9,185.1z"/>
<path class="st11" d="M207.3,192.7c2.2,2.2,5,3.8,8.1,4.7L220,180L207.3,192.7z"/>
<path class="st12" d="M208.9,191.6c1.7,1.7,3.8,2.9,6,3.5l3.5-13L208.9,191.6z"/>
<path class="st11" d="M215.3,197.4c3,0.8,6.1,0.9,9.3,0L220,180L215.3,197.4z"/>
<path class="st12" d="M216.5,195.1c2.2,0.6,4.6,0.6,7,0l-3.5-13L216.5,195.1z"/>
<path class="st11" d="M224.7,197.4c3.2-0.8,5.9-2.5,8.1-4.7L220,180L224.7,197.4z"/>
<path class="st12" d="M225.1,195.1c2.4-0.6,4.4-1.9,6-3.5l-9.5-9.5L225.1,195.1z"/>
<path class="st13" d="M232.7,192.7c2.2-2.2,3.8-5,4.7-8.1L220,180L232.7,192.7z"/>
<path class="st7" d="M231.6,191.1c1.7-1.7,2.9-3.8,3.5-6l-13-3.5L231.6,191.1z"/>
<path class="st11" d="M207.3,167.3c-2.2,2.2-3.8,5-4.7,8.1L220,180L207.3,167.3z"/>
<path class="st12" d="M208.4,168.9c-1.7,1.7-2.9,3.8-3.5,6l13,3.5L208.4,168.9z"/>
<path class="st11" d="M215.3,162.6c-3.2,0.8-5.9,2.5-8.1,4.7L220,180L215.3,162.6z"/>
<path class="st12" d="M214.9,164.9c-2.4,0.6-4.4,1.9-6,3.5l9.5,9.5L214.9,164.9z"/>
<path class="st13" d="M224.7,162.6c-3-0.8-6.1-0.9-9.3,0L220,180L224.7,162.6z"/>
<path class="st7" d="M223.5,164.9c-2.2-0.6-4.6-0.6-7,0l3.5,13L223.5,164.9z"/>
<path class="st13" d="M232.7,167.3c-2.2-2.2-5-3.8-8.1-4.7L220,180L232.7,167.3z"/>
<path class="st7" d="M231.1,168.4c-1.7-1.7-3.8-2.9-6-3.5l-3.5,13L231.1,168.4z"/>
<path class="st13" d="M220,180l17.4-4.7c-0.8-3.2-2.5-5.9-4.7-8.1L220,180z"/>
<path class="st7" d="M222,178.4l13-3.5c-0.6-2.4-1.9-4.4-3.5-6L222,178.4z"/>
<path class="st13" d="M237.4,184.7c0.8-3,0.9-6.1,0-9.3L220,180L237.4,184.7z"/>
<path class="st7" d="M235.1,183.5c0.6-2.2,0.6-4.6,0-7l-13,3.5L235.1,183.5z"/>
<path class="st11" d="M242.6,175.3c-0.8,3-0.9,6.1,0,9.3L260,180L242.6,175.3z"/>
<path class="st12" d="M244.9,176.5c-0.6,2.2-0.6,4.6,0,7l13-3.5L244.9,176.5z"/>
<path class="st11" d="M242.6,184.7c0.8,3.2,2.5,5.9,4.7,8.1L260,180L242.6,184.7z"/>
<path class="st12" d="M244.9,185.1c0.6,2.4,1.9,4.4,3.5,6l9.5-9.5L244.9,185.1z"/>
<path class="st11" d="M247.3,192.7c2.2,2.2,5,3.8,8.1,4.7L260,180L247.3,192.7z"/>
<path class="st12" d="M248.9,191.6c1.7,1.7,3.8,2.9,6,3.5l3.5-13L248.9,191.6z"/>
<path class="st11" d="M255.3,197.4c3,0.8,6.1,0.9,9.3,0L260,180L255.3,197.4z"/>
<path class="st12" d="M256.5,195.1c2.2,0.6,4.6,0.6,7,0l-3.5-13L256.5,195.1z"/>
<path class="st13" d="M264.7,197.4c3.2-0.8,5.9-2.5,8.1-4.7L260,180L264.7,197.4z"/>
<path class="st7" d="M265.1,195.1c2.4-0.6,4.4-1.9,6-3.5l-9.5-9.5L265.1,195.1z"/>
<path class="st13" d="M272.7,192.7c2.2-2.2,3.8-5,4.7-8.1L260,180L272.7,192.7z"/>
<path class="st7" d="M271.6,191.1c1.7-1.7,2.9-3.8,3.5-6l-13-3.5L271.6,191.1z"/>
<path class="st11" d="M247.3,167.3c-2.2,2.2-3.8,5-4.7,8.1L260,180L247.3,167.3z"/>
<path class="st12" d="M248.4,168.9c-1.7,1.7-2.9,3.8-3.5,6l13,3.5L248.4,168.9z"/>
<path class="st11" d="M255.3,162.6c-3.2,0.8-5.9,2.5-8.1,4.7L260,180L255.3,162.6z"/>
<path class="st12" d="M254.9,164.9c-2.4,0.6-4.4,1.9-6,3.5l9.5,9.5L254.9,164.9z"/>
<path class="st13" d="M264.7,162.6c-3-0.8-6.1-0.9-9.3,0L260,180L264.7,162.6z"/>
<path class="st7" d="M263.5,164.9c-2.2-0.6-4.6-0.6-7,0l3.5,13L263.5,164.9z"/>
<path class="st13" d="M272.7,167.3c-2.2-2.2-5-3.8-8.1-4.7L260,180L272.7,167.3z"/>
<path class="st7" d="M271.1,168.4c-1.7-1.7-3.8-2.9-6-3.5l-3.5,13L271.1,168.4z"/>
<path class="st13" d="M260,180l17.4-4.7c-0.8-3.2-2.5-5.9-4.7-8.1L260,180z"/>
<path class="st7" d="M262,178.4l13-3.5c-0.6-2.4-1.9-4.4-3.5-6L262,178.4z"/>
<path class="st13" d="M277.4,184.7c0.8-3,0.9-6.1,0-9.3L260,180L277.4,184.7z"/>
<path class="st7" d="M275.1,183.5c0.6-2.2,0.6-4.6,0-7l-13,3.5L275.1,183.5z"/>
<path class="st11" d="M282.6,175.3c-0.8,3-0.9,6.1,0,9.3L300,180L282.6,175.3z"/>
<path class="st12" d="M284.9,176.5c-0.6,2.2-0.6,4.6,0,7l13-3.5L284.9,176.5z"/>
<path class="st11" d="M282.6,184.7c0.8,3.2,2.5,5.9,4.7,8.1L300,180L282.6,184.7z"/>
<path class="st12" d="M284.9,185.1c0.6,2.4,1.9,4.4,3.5,6l9.5-9.5L284.9,185.1z"/>
<path class="st11" d="M287.3,192.7c2.2,2.2,5,3.8,8.1,4.7L300,180L287.3,192.7z"/>
<path class="st12" d="M288.9,191.6c1.7,1.7,3.8,2.9,6,3.5l3.5-13L288.9,191.6z"/>
<path class="st13" d="M295.3,197.4c3,0.8,6.1,0.9,9.3,0L300,180L295.3,197.4z"/>
<path class="st7" d="M296.5,195.1c2.2,0.6,4.6,0.6,7,0l-3.5-13L296.5,195.1z"/>
<path class="st13" d="M304.7,197.4c3.2-0.8,5.9-2.5,8.1-4.7L300,180L304.7,197.4z"/>
<path class="st7" d="M305.1,195.1c2.4-0.6,4.4-1.9,6-3.5l-9.5-9.5L305.1,195.1z"/>
<path class="st13" d="M312.7,192.7c2.2-2.2,3.8-5,4.7-8.1L300,180L312.7,192.7z"/>
<path class="st7" d="M311.6,191.1c1.7-1.7,2.9-3.8,3.5-6l-13-3.5L311.6,191.1z"/>
<path class="st11" d="M287.3,167.3c-2.2,2.2-3.8,5-4.7,8.1L300,180L287.3,167.3z"/>
<path class="st12" d="M288.4,168.9c-1.7,1.7-2.9,3.8-3.5,6l13,3.5L288.4,168.9z"/>
<path class="st11" d="M295.3,162.6c-3.2,0.8-5.9,2.5-8.1,4.7L300,180L295.3,162.6z"/>
<path class="st12" d="M294.9,164.9c-2.4,0.6-4.4,1.9-6,3.5l9.5,9.5L294.9,164.9z"/>
<path class="st13" d="M304.7,162.6c-3-0.8-6.1-0.9-9.3,0L300,180L304.7,162.6z"/>
<path class="st7" d="M303.5,164.9c-2.2-0.6-4.6-0.6-7,0l3.5,13L303.5,164.9z"/>
<path class="st13" d="M312.7,167.3c-2.2-2.2-5-3.8-8.1-4.7L300,180L312.7,167.3z"/>
<path class="st7" d="M311.1,168.4c-1.7-1.7-3.8-2.9-6-3.5l-3.5,13L311.1,168.4z"/>
<path class="st13" d="M300,180l17.4-4.7c-0.8-3.2-2.5-5.9-4.7-8.1L300,180z"/>
<path class="st7" d="M302,178.4l13-3.5c-0.6-2.4-1.9-4.4-3.5-6L302,178.4z"/>
<path class="st13" d="M317.4,184.7c0.8-3,0.9-6.1,0-9.3L300,180L317.4,184.7z"/>
<path class="st7" d="M315.1,183.5c0.6-2.2,0.6-4.6,0-7l-13,3.5L315.1,183.5z"/>
<path class="st11" d="M322.6,175.3c-0.8,3-0.9,6.1,0,9.3L340,180L322.6,175.3z"/>
<path class="st12" d="M324.9,176.5c-0.6,2.2-0.6,4.6,0,7l13-3.5L324.9,176.5z"/>
<path class="st11" d="M322.6,184.7c0.8,3.2,2.5,5.9,4.7,8.1L340,180L322.6,184.7z"/>
<path class="st12" d="M324.9,185.1c0.6,2.4,1.9,4.4,3.5,6l9.5-9.5L324.9,185.1z"/>
<path class="st13" d="M327.3,192.7c2.2,2.2,5,3.8,8.1,4.7L340,180L327.3,192.7z"/>
<path class="st7" d="M328.9,191.6c1.7,1.7,3.8,2.9,6,3.5l3.5-13L328.9,191.6z"/>
<path class="st13" d="M335.3,197.4c3,0.8,6.1,0.9,9.3,0L340,180L335.3,197.4z"/>
<path class="st7" d="M336.5,195.1c2.2,0.6,4.6,0.6,7,0l-3.5-13L336.5,195.1z"/>
<path class="st13" d="M344.7,197.4c3.2-0.8,5.9-2.5,8.1-4.7L340,180L344.7,197.4z"/>
<path class="st7" d="M345.1,195.1c2.4-0.6,4.4-1.9,6-3.5l-9.5-9.5L345.1,195.1z"/>
<path class="st13" d="M352.7,192.7c2.2-2.2,3.8-5,4.7-8.1L340,180L352.7,192.7z"/>
<path class="st7" d="M351.6,191.1c1.7-1.7,2.9-3.8,3.5-6l-13-3.5L351.6,191.1z"/>
<path class="st11" d="M327.3,167.3c-2.2,2.2-3.8,5-4.7,8.1L340,180L327.3,167.3z"/>
<path class="st12" d="M328.4,168.9c-1.7,1.7-2.9,3.8-3.5,6l13,3.5L328.4,168.9z"/>
<path class="st11" d="M335.3,162.6c-3.2,0.8-5.9,2.5-8.1,4.7L340,180L335.3,162.6z"/>
<path class="st12" d="M334.9,164.9c-2.4,0.6-4.4,1.9-6,3.5l9.5,9.5L334.9,164.9z"/>
<path class="st13" d="M344.7,162.6c-3-0.8-6.1-0.9-9.3,0L340,180L344.7,162.6z"/>
<path class="st7" d="M343.5,164.9c-2.2-0.6-4.6-0.6-7,0l3.5,13L343.5,164.9z"/>
<path class="st13" d="M352.7,167.3c-2.2-2.2-5-3.8-8.1-4.7L340,180L352.7,167.3z"/>
<path class="st7" d="M351.1,168.4c-1.7-1.7-3.8-2.9-6-3.5l-3.5,13L351.1,168.4z"/>
<path class="st13" d="M340,180l17.4-4.7c-0.8-3.2-2.5-5.9-4.7-8.1L340,180z"/>
<path class="st7" d="M342,178.4l13-3.5c-0.6-2.4-1.9-4.4-3.5-6L342,178.4z"/>
<path class="st13" d="M357.4,184.7c0.8-3,0.9-6.1,0-9.3L340,180L357.4,184.7z"/>
<path class="st7" d="M355.1,183.5c0.6-2.2,0.6-4.6,0-7l-13,3.5L355.1,183.5z"/>
<path class="st11" d="M362.6,175.3c-0.8,3-0.9,6.1,0,9.3L380,180L362.6,175.3z"/>
<path class="st12" d="M364.9,176.5c-0.6,2.2-0.6,4.6,0,7l13-3.5L364.9,176.5z"/>
<path class="st13" d="M362.6,184.7c0.8,3.2,2.5,5.9,4.7,8.1L380,180L362.6,184.7z"/>
<path class="st7" d="M364.9,185.1c0.6,2.4,1.9,4.4,3.5,6l9.5-9.5L364.9,185.1z"/>
<path class="st13" d="M367.3,192.7c2.2,2.2,5,3.8,8.1,4.7L380,180L367.3,192.7z"/>
<path class="st7" d="M368.9,191.6c1.7,1.7,3.8,2.9,6,3.5l3.5-13L368.9,191.6z"/>
<path class="st13" d="M375.3,197.4c3,0.8,6.1,0.9,9.3,0L380,180L375.3,197.4z"/>
<path class="st7" d="M376.5,195.1c2.2,0.6,4.6,0.6,7,0l-3.5-13L376.5,195.1z"/>
<path class="st13" d="M384.7,197.4c3.2-0.8,5.9-2.5,8.1-4.7L380,180L384.7,197.4z"/>
<path class="st7" d="M385.1,195.1c2.4-0.6,4.4-1.9,6-3.5l-9.5-9.5L385.1,195.1z"/>
<path class="st13" d="M392.7,192.7c2.2-2.2,3.8-5,4.7-8.1L380,180L392.7,192.7z"/>
<path class="st7" d="M391.6,191.1c1.7-1.7,2.9-3.8,3.5-6l-13-3.5L391.6,191.1z"/>
<path class="st11" d="M367.3,167.3c-2.2,2.2-3.8,5-4.7,8.1L380,180L367.3,167.3z"/>
<path class="st12" d="M368.4,168.9c-1.7,1.7-2.9,3.8-3.5,6l13,3.5L368.4,168.9z"/>
<path class="st11" d="M375.3,162.6c-3.2,0.8-5.9,2.5-8.1,4.7L380,180L375.3,162.6z"/>
<path class="st12" d="M374.9,164.9c-2.4,0.6-4.4,1.9-6,3.5l9.5,9.5L374.9,164.9z"/>
<path class="st13" d="M384.7,162.6c-3-0.8-6.1-0.9-9.3,0L380,180L384.7,162.6z"/>
<path class="st7" d="M383.5,164.9c-2.2-0.6-4.6-0.6-7,0l3.5,13L383.5,164.9z"/>
<path class="st13" d="M392.7,167.3c-2.2-2.2-5-3.8-8.1-4.7L380,180L392.7,167.3z"/>
<path class="st7" d="M391.1,168.4c-1.7-1.7-3.8-2.9-6-3.5l-3.5,13L391.1,168.4z"/>
<path class="st13" d="M380,180l17.4-4.7c-0.8-3.2-2.5-5.9-4.7-8.1L380,180z"/>
<path class="st7" d="M382,178.4l13-3.5c-0.6-2.4-1.9-4.4-3.5-6L382,178.4z"/>
<path class="st13" d="M397.4,184.7c0.8-3,0.9-6.1,0-9.3L380,180L397.4,184.7z"/>
<path class="st7" d="M395.1,183.5c0.6-2.2,0.6-4.6,0-7l-13,3.5L395.1,183.5z"/>
<path class="st13" d="M402.6,175.3c-0.8,3-0.9,6.1,0,9.3L420,180L402.6,175.3z"/>
<path class="st7" d="M404.9,176.5c-0.6,2.2-0.6,4.6,0,7l13-3.5L404.9,176.5z"/>
<path class="st13" d="M402.6,184.7c0.8,3.2,2.5,5.9,4.7,8.1L420,180L402.6,184.7z"/>
<path class="st7" d="M404.9,185.1c0.6,2.4,1.9,4.4,3.5,6l9.5-9.5L404.9,185.1z"/>
<path class="st13" d="M407.3,192.7c2.2,2.2,5,3.8,8.1,4.7L420,180L407.3,192.7z"/>
<path class="st7" d="M408.9,191.6c1.7,1.7,3.8,2.9,6,3.5l3.5-13L408.9,191.6z"/>
<path class="st13" d="M415.3,197.4c3,0.8,6.1,0.9,9.3,0L420,180L415.3,197.4z"/>
<path class="st7" d="M416.5,195.1c2.2,0.6,4.6,0.6,7,0l-3.5-13L416.5,195.1z"/>
<path class="st13" d="M424.7,197.4c3.2-0.8,5.9-2.5,8.1-4.7L420,180L424.7,197.4z"/>
<path class="st7" d="M425.1,195.1c2.4-0.6,4.4-1.9,6-3.5l-9.5-9.5L425.1,195.1z"/>
<path class="st13" d="M432.7,192.7c2.2-2.2,3.8-5,4.7-8.1L420,180L432.7,192.7z"/>
<path class="st7" d="M431.6,191.1c1.7-1.7,2.9-3.8,3.5-6l-13-3.5L431.6,191.1z"/>
<path class="st11" d="M407.3,167.3c-2.2,2.2-3.8,5-4.7,8.1L420,180L407.3,167.3z"/>
<path class="st12" d="M408.4,168.9c-1.7,1.7-2.9,3.8-3.5,6l13,3.5L408.4,168.9z"/>
<path class="st11" d="M415.3,162.6c-3.2,0.8-5.9,2.5-8.1,4.7L420,180L415.3,162.6z"/>
<path class="st12" d="M414.9,164.9c-2.4,0.6-4.4,1.9-6,3.5l9.5,9.5L414.9,164.9z"/>
<path class="st13" d="M424.7,162.6c-3-0.8-6.1-0.9-9.3,0L420,180L424.7,162.6z"/>
<path class="st7" d="M423.5,164.9c-2.2-0.6-4.6-0.6-7,0l3.5,13L423.5,164.9z"/>
<path class="st13" d="M432.7,167.3c-2.2-2.2-5-3.8-8.1-4.7L420,180L432.7,167.3z"/>
<path class="st7" d="M431.1,168.4c-1.7-1.7-3.8-2.9-6-3.5l-3.5,13L431.1,168.4z"/>
<path class="st13" d="M420,180l17.4-4.7c-0.8-3.2-2.5-5.9-4.7-8.1L420,180z"/>
<path class="st7" d="M422,178.4l13-3.5c-0.6-2.4-1.9-4.4-3.5-6L422,178.4z"/>
<path class="st13" d="M437.4,184.7c0.8-3,0.9-6.1,0-9.3L420,180L437.4,184.7z"/>
<path class="st7" d="M435.1,183.5c0.6-2.2,0.6-4.6,0-7l-13,3.5L435.1,183.5z"/>
<path class="st13" d="M442.6,175.3c-0.8,3-0.9,6.1,0,9.3L460,180L442.6,175.3z"/>
<path class="st7" d="M444.9,176.5c-0.6,2.2-0.6,4.6,0,7l13-3.5L444.9,176.5z"/>
<path class="st13" d="M442.6,184.7c0.8,3.2,2.5,5.9,4.7,8.1L460,180L442.6,184.7z"/>
<path class="st7" d="M444.9,185.1c0.6,2.4,1.9,4.4,3.5,6l9.5-9.5L444.9,185.1z"/>
<path class="st13" d="M447.3,192.7c2.2,2.2,5,3.8,8.1,4.7L460,180L447.3,192.7z"/>
<path class="st7" d="M448.9,191.6c1.7,1.7,3.8,2.9,6,3.5l3.5-13L448.9,191.6z"/>
<path class="st13" d="M455.3,197.4c3,0.8,6.1,0.9,9.3,0L460,180L455.3,197.4z"/>
<path class="st7" d="M456.5,195.1c2.2,0.6,4.6,0.6,7,0l-3.5-13L456.5,195.1z"/>
<path class="st13" d="M464.7,197.4c3.2-0.8,5.9-2.5,8.1-4.7L460,180L464.7,197.4z"/>
<path class="st7" d="M465.1,195.1c2.4-0.6,4.4-1.9,6-3.5l-9.5-9.5L465.1,195.1z"/>
<path class="st13" d="M472.7,192.7c2.2-2.2,3.8-5,4.7-8.1L460,180L472.7,192.7z"/>
<path class="st7" d="M471.6,191.1c1.7-1.7,2.9-3.8,3.5-6l-13-3.5L471.6,191.1z"/>
<path class="st13" d="M447.3,167.3c-2.2,2.2-3.8,5-4.7,8.1L460,180L447.3,167.3z"/>
<path class="st7" d="M448.4,168.9c-1.7,1.7-2.9,3.8-3.5,6l13,3.5L448.4,168.9z"/>
<path class="st11" d="M455.3,162.6c-3.2,0.8-5.9,2.5-8.1,4.7L460,180L455.3,162.6z"/>
<path class="st12" d="M454.9,164.9c-2.4,0.6-4.4,1.9-6,3.5l9.5,9.5L454.9,164.9z"/>
<path class="st13" d="M464.7,162.6c-3-0.8-6.1-0.9-9.3,0L460,180L464.7,162.6z"/>
<path class="st7" d="M463.5,164.9c-2.2-0.6-4.6-0.6-7,0l3.5,13L463.5,164.9z"/>
<path class="st13" d="M472.7,167.3c-2.2-2.2-5-3.8-8.1-4.7L460,180L472.7,167.3z"/>
<path class="st7" d="M471.1,168.4c-1.7-1.7-3.8-2.9-6-3.5l-3.5,13L471.1,168.4z"/>
<path class="st13" d="M460,180l17.4-4.7c-0.8-3.2-2.5-5.9-4.7-8.1L460,180z"/>
<path class="st7" d="M462,178.4l13-3.5c-0.6-2.4-1.9-4.4-3.5-6L462,178.4z"/>
<path class="st13" d="M477.4,184.7c0.8-3,0.9-6.1,0-9.3L460,180L477.4,184.7z"/>
<path class="st7" d="M475.1,183.5c0.6-2.2,0.6-4.6,0-7l-13,3.5L475.1,183.5z"/>
<path class="st13" d="M482.6,175.3c-0.8,3-0.9,6.1,0,9.3L500,180L482.6,175.3z"/>
<path class="st7" d="M484.9,176.5c-0.6,2.2-0.6,4.6,0,7l13-3.5L484.9,176.5z"/>
<path class="st13" d="M482.6,184.7c0.8,3.2,2.5,5.9,4.7,8.1L500,180L482.6,184.7z"/>
<path class="st7" d="M484.9,185.1c0.6,2.4,1.9,4.4,3.5,6l9.5-9.5L484.9,185.1z"/>
<path class="st13" d="M487.3,192.7c2.2,2.2,5,3.8,8.1,4.7L500,180L487.3,192.7z"/>
<path class="st7" d="M488.9,191.6c1.7,1.7,3.8,2.9,6,3.5l3.5-13L488.9,191.6z"/>
<path class="st13" d="M495.3,197.4c3,0.8,6.1,0.9,9.3,0L500,180L495.3,197.4z"/>
<path class="st7" d="M496.5,195.1c2.2,0.6,4.6,0.6,7,0l-3.5-13L496.5,195.1z"/>
<path class="st13" d="M504.7,197.4c3.2-0.8,5.9-2.5,8.1-4.7L500,180L504.7,197.4z"/>
<path class="st7" d="M505.1,195.1c2.4-0.6,4.4-1.9,6-3.5l-9.5-9.5L505.1,195.1z"/>
<path class="st13" d="M512.7,192.7c2.2-2.2,3.8-5,4.7-8.1L500,180L512.7,192.7z"/>
<path class="st7" d="M511.6,191.1c1.7-1.7,2.9-3.8,3.5-6l-13-3.5L511.6,191.1z"/>
<path class="st13" d="M487.3,167.3c-2.2,2.2-3.8,5-4.7,8.1L500,180L487.3,167.3z"/>
<path class="st7" d="M488.4,168.9c-1.7,1.7-2.9,3.8-3.5,6l13,3.5L488.4,168.9z"/>
<path class="st13" d="M495.3,162.6c-3.2,0.8-5.9,2.5-8.1,4.7L500,180L495.3,162.6z"/>
<path class="st7" d="M494.9,164.9c-2.4,0.6-4.4,1.9-6,3.5l9.5,9.5L494.9,164.9z"/>
<path class="st13" d="M504.7,162.6c-3-0.8-6.1-0.9-9.3,0L500,180L504.7,162.6z"/>
<path class="st7" d="M503.5,164.9c-2.2-0.6-4.6-0.6-7,0l3.5,13L503.5,164.9z"/>
<path class="st13" d="M512.7,167.3c-2.2-2.2-5-3.8-8.1-4.7L500,180L512.7,167.3z"/>
<path class="st7" d="M511.1,168.4c-1.7-1.7-3.8-2.9-6-3.5l-3.5,13L511.1,168.4z"/>
<path class="st13" d="M500,180l17.4-4.7c-0.8-3.2-2.5-5.9-4.7-8.1L500,180z"/>
<path class="st7" d="M502,178.4l13-3.5c-0.6-2.4-1.9-4.4-3.5-6L502,178.4z"/>
<path class="st13" d="M517.4,184.7c0.8-3,0.9-6.1,0-9.3L500,180L517.4,184.7z"/>
<path class="st7" d="M515.1,183.5c0.6-2.2,0.6-4.6,0-7l-13,3.5L515.1,183.5z"/>
<path class="st14" d="M20,140L20,140L5.5,129.4C3.3,132.4,2,136,2,140H20L20,140z"/>
<path class="st15" d="M17.9,138.7L17.9,138.7L7,130.7c-1.6,2.2-2.6,5-2.6,7.9H17.9L17.9,138.7z"/>
<path class="st14" d="M2,140c0,4,1.3,7.6,3.5,10.6L20,140H2z"/>
<path class="st15" d="M4.4,141.3c0,3,1,5.7,2.6,7.9l10.9-7.9H4.4z"/>
<path class="st14" d="M20,140L5.5,150.6c2.2,3,5.3,5.4,9,6.5L20,140L20,140z"/>
<path class="st15" d="M18.2,142.1L7.3,150c1.7,2.3,4,4,6.7,4.9L18.2,142.1L18.2,142.1z"/>
<path class="st14" d="M14.4,157.1c1.8,0.6,3.6,0.9,5.6,0.9s3.8-0.3,5.6-0.9L20,140L14.4,157.1z"/>
<path class="st15" d="M15.8,154.9c1.3,0.4,2.7,0.7,4.2,0.7s2.9-0.2,4.2-0.7L20,142.1L15.8,154.9z"/>
<path class="st14" d="M20,140l5.6,17.1c3.6-1.2,6.8-3.5,9-6.5L20,140L20,140z"/>
<path class="st15" d="M21.8,142.1l4.2,12.8c2.7-0.9,5.1-2.6,6.7-4.9L21.8,142.1L21.8,142.1z"/>
<path class="st14" d="M14.4,122.9c-3.6,1.2-6.8,3.5-9,6.5L20,140L14.4,122.9z"/>
<path class="st15" d="M14,125.1c-2.7,0.9-5.1,2.6-6.7,4.9l10.9,7.9L14,125.1z"/>
<path class="st14" d="M20,140L20,140l5.6-17.1c-1.8-0.6-3.6-0.9-5.6-0.9s-3.8,0.3-5.6,0.9L20,140L20,140z"/>
<path class="st15" d="M20,137.9L20,137.9l4.2-12.8c-1.3-0.4-2.7-0.7-4.2-0.7s-2.9,0.2-4.2,0.7L20,137.9L20,137.9z"/>
<path class="st14" d="M34.5,129.4c-2.2-3-5.3-5.4-9-6.5L20,140L34.5,129.4z"/>
<path class="st15" d="M32.7,130c-1.7-2.3-4-4-6.7-4.9l-4.2,12.8L32.7,130z"/>
<path class="st14" d="M20,140L20,140L20,140l18,0c0-4-1.3-7.6-3.5-10.6L20,140z"/>
<path class="st15" d="M22.1,138.7L22.1,138.7L22.1,138.7l13.5,0c0-3-1-5.7-2.6-7.9L22.1,138.7z"/>
<path class="st14" d="M34.5,150.6c2.2-3,3.5-6.6,3.5-10.6H20L34.5,150.6z"/>
<path class="st15" d="M33,149.3c1.6-2.2,2.6-5,2.6-7.9H22.1L33,149.3z"/>
<path class="st14" d="M60,140L60,140l-14.5-10.6c-2.2,3-3.5,6.6-3.5,10.6H60L60,140z"/>
<path class="st15" d="M57.9,138.7L57.9,138.7L47,130.7c-1.6,2.2-2.6,5-2.6,7.9H57.9L57.9,138.7z"/>
<path class="st14" d="M42,140c0,4,1.3,7.6,3.5,10.6L60,140H42z"/>
<path class="st15" d="M44.4,141.3c0,3,1,5.7,2.6,7.9l10.9-7.9H44.4z"/>
<path class="st14" d="M60,140l-14.5,10.6c2.2,3,5.3,5.4,9,6.5L60,140L60,140z"/>
<path class="st15" d="M58.2,142.1L47.3,150c1.7,2.3,4,4,6.7,4.9L58.2,142.1L58.2,142.1z"/>
<path class="st14" d="M54.4,157.1c1.8,0.6,3.6,0.9,5.6,0.9s3.8-0.3,5.6-0.9L60,140L54.4,157.1z"/>
<path class="st15" d="M55.8,154.9c1.3,0.4,2.7,0.7,4.2,0.7s2.9-0.2,4.2-0.7L60,142.1L55.8,154.9z"/>
<path class="st14" d="M60,140l5.6,17.1c3.6-1.2,6.8-3.5,9-6.5L60,140L60,140z"/>
<path class="st15" d="M61.8,142.1l4.2,12.8c2.7-0.9,5.1-2.6,6.7-4.9L61.8,142.1L61.8,142.1z"/>
<path class="st14" d="M54.4,122.9c-3.6,1.2-6.8,3.5-9,6.5L60,140L54.4,122.9z"/>
<path class="st15" d="M54,125.1c-2.7,0.9-5.1,2.6-6.7,4.9l10.9,7.9L54,125.1z"/>
<path class="st16" d="M60,140L60,140l5.6-17.1c-1.8-0.6-3.6-0.9-5.6-0.9s-3.8,0.3-5.6,0.9L60,140L60,140z"/>
<path class="st7" d="M60,137.9L60,137.9l4.2-12.8c-1.3-0.4-2.7-0.7-4.2-0.7s-2.9,0.2-4.2,0.7L60,137.9L60,137.9z"/>
<path class="st14" d="M74.5,129.4c-2.2-3-5.3-5.4-9-6.5L60,140L74.5,129.4z"/>
<path class="st15" d="M72.7,130c-1.7-2.3-4-4-6.7-4.9l-4.2,12.8L72.7,130z"/>
<path class="st14" d="M60,140L60,140L60,140l18,0c0-4-1.3-7.6-3.5-10.6L60,140z"/>
<path class="st15" d="M62.1,138.7L62.1,138.7L62.1,138.7l13.5,0c0-3-1-5.7-2.6-7.9L62.1,138.7z"/>
<path class="st14" d="M74.5,150.6c2.2-3,3.5-6.6,3.5-10.6H60L74.5,150.6z"/>
<path class="st15" d="M73,149.3c1.6-2.2,2.6-5,2.6-7.9H62.1L73,149.3z"/>
<path class="st14" d="M100,140L100,140l-14.5-10.6c-2.2,3-3.5,6.6-3.5,10.6H100L100,140z"/>
<path class="st15" d="M97.9,138.7L97.9,138.7L87,130.7c-1.6,2.2-2.6,5-2.6,7.9H97.9L97.9,138.7z"/>
<path class="st14" d="M82,140c0,4,1.3,7.6,3.5,10.6L100,140H82z"/>
<path class="st15" d="M84.4,141.3c0,3,1,5.7,2.6,7.9l10.9-7.9H84.4z"/>
<path class="st14" d="M100,140l-14.5,10.6c2.2,3,5.3,5.4,9,6.5L100,140L100,140z"/>
<path class="st15" d="M98.2,142.1L87.3,150c1.7,2.3,4,4,6.7,4.9L98.2,142.1L98.2,142.1z"/>
<path class="st14" d="M94.4,157.1c1.8,0.6,3.6,0.9,5.6,0.9s3.8-0.3,5.6-0.9L100,140L94.4,157.1z"/>
<path class="st15" d="M95.8,154.9c1.3,0.4,2.7,0.7,4.2,0.7s2.9-0.2,4.2-0.7l-4.2-12.8L95.8,154.9z"/>
<path class="st14" d="M100,140l5.6,17.1c3.6-1.2,6.8-3.5,9-6.5L100,140L100,140z"/>
<path class="st15" d="M101.8,142.1l4.2,12.8c2.7-0.9,5.1-2.6,6.7-4.9L101.8,142.1L101.8,142.1z"/>
<path class="st14" d="M94.4,122.9c-3.6,1.2-6.8,3.5-9,6.5L100,140L94.4,122.9z"/>
<path class="st15" d="M94,125.1c-2.7,0.9-5.1,2.6-6.7,4.9l10.9,7.9L94,125.1z"/>
<path class="st16" d="M100,140L100,140l5.6-17.1c-1.8-0.6-3.6-0.9-5.6-0.9s-3.8,0.3-5.6,0.9L100,140L100,140z"/>
<path class="st7" d="M100,137.9L100,137.9l4.2-12.8c-1.3-0.4-2.7-0.7-4.2-0.7s-2.9,0.2-4.2,0.7L100,137.9L100,137.9z"/>
<path class="st16" d="M114.5,129.4c-2.2-3-5.3-5.4-9-6.5L100,140L114.5,129.4z"/>
<path class="st7" d="M112.7,130c-1.7-2.3-4-4-6.7-4.9l-4.2,12.8L112.7,130z"/>
<path class="st14" d="M100,140L100,140L100,140l18,0c0-4-1.3-7.6-3.5-10.6L100,140z"/>
<path class="st15" d="M102.1,138.7L102.1,138.7L102.1,138.7l13.5,0c0-3-1-5.7-2.6-7.9L102.1,138.7z"/>
<path class="st14" d="M114.5,150.6c2.2-3,3.5-6.6,3.5-10.6h-18L114.5,150.6z"/>
<path class="st15" d="M113,149.3c1.6-2.2,2.6-5,2.6-7.9h-13.5L113,149.3z"/>
<path class="st14" d="M140,140L140,140l-14.5-10.6c-2.2,3-3.5,6.6-3.5,10.6H140L140,140z"/>
<path class="st15" d="M137.9,138.7L137.9,138.7l-10.9-7.9c-1.6,2.2-2.6,5-2.6,7.9H137.9L137.9,138.7z"/>
<path class="st14" d="M122,140c0,4,1.3,7.6,3.5,10.6L140,140H122z"/>
<path class="st15" d="M124.4,141.3c0,3,1,5.7,2.6,7.9l10.9-7.9H124.4z"/>
<path class="st14" d="M140,140l-14.5,10.6c2.2,3,5.3,5.4,9,6.5L140,140L140,140z"/>
<path class="st15" d="M138.2,142.1l-10.9,7.9c1.7,2.3,4,4,6.7,4.9L138.2,142.1L138.2,142.1z"/>
<path class="st14" d="M134.4,157.1c1.8,0.6,3.6,0.9,5.6,0.9s3.8-0.3,5.6-0.9L140,140L134.4,157.1z"/>
<path class="st15" d="M135.8,154.9c1.3,0.4,2.7,0.7,4.2,0.7s2.9-0.2,4.2-0.7l-4.2-12.8L135.8,154.9z"/>
<path class="st14" d="M140,140l5.6,17.1c3.6-1.2,6.8-3.5,9-6.5L140,140L140,140z"/>
<path class="st15" d="M141.8,142.1l4.2,12.8c2.7-0.9,5.1-2.6,6.7-4.9L141.8,142.1L141.8,142.1z"/>
<path class="st14" d="M134.4,122.9c-3.6,1.2-6.8,3.5-9,6.5L140,140L134.4,122.9z"/>
<path class="st15" d="M134,125.1c-2.7,0.9-5.1,2.6-6.7,4.9l10.9,7.9L134,125.1z"/>
<path class="st16" d="M140,140L140,140l5.6-17.1c-1.8-0.6-3.6-0.9-5.6-0.9s-3.8,0.3-5.6,0.9L140,140L140,140z"/>
<path class="st7" d="M140,137.9L140,137.9l4.2-12.8c-1.3-0.4-2.7-0.7-4.2-0.7s-2.9,0.2-4.2,0.7L140,137.9L140,137.9z"/>
<path class="st16" d="M154.5,129.4c-2.2-3-5.3-5.4-9-6.5L140,140L154.5,129.4z"/>
<path class="st7" d="M152.7,130c-1.7-2.3-4-4-6.7-4.9l-4.2,12.8L152.7,130z"/>
<path class="st16" d="M140,140L140,140L140,140l18,0c0-4-1.3-7.6-3.5-10.6L140,140z"/>
<path class="st7" d="M142.1,138.7L142.1,138.7L142.1,138.7l13.5,0c0-3-1-5.7-2.6-7.9L142.1,138.7z"/>
<path class="st14" d="M154.5,150.6c2.2-3,3.5-6.6,3.5-10.6h-18L154.5,150.6z"/>
<path class="st15" d="M153,149.3c1.6-2.2,2.6-5,2.6-7.9h-13.5L153,149.3z"/>
<path class="st14" d="M180,140L180,140l-14.5-10.6c-2.2,3-3.5,6.6-3.5,10.6H180L180,140z"/>
<path class="st15" d="M177.9,138.7L177.9,138.7l-10.9-7.9c-1.6,2.2-2.6,5-2.6,7.9H177.9L177.9,138.7z"/>
<path class="st14" d="M162,140c0,4,1.3,7.6,3.5,10.6L180,140H162z"/>
<path class="st15" d="M164.4,141.3c0,3,1,5.7,2.6,7.9l10.9-7.9H164.4z"/>
<path class="st14" d="M180,140l-14.5,10.6c2.2,3,5.3,5.4,9,6.5L180,140L180,140z"/>
<path class="st15" d="M178.2,142.1l-10.9,7.9c1.7,2.3,4,4,6.7,4.9L178.2,142.1L178.2,142.1z"/>
<path class="st14" d="M174.4,157.1c1.8,0.6,3.6,0.9,5.6,0.9s3.8-0.3,5.6-0.9L180,140L174.4,157.1z"/>
<path class="st15" d="M175.8,154.9c1.3,0.4,2.7,0.7,4.2,0.7s2.9-0.2,4.2-0.7l-4.2-12.8L175.8,154.9z"/>
<path class="st14" d="M180,140l5.6,17.1c3.6-1.2,6.8-3.5,9-6.5L180,140L180,140z"/>
<path class="st15" d="M181.8,142.1l4.2,12.8c2.7-0.9,5.1-2.6,6.7-4.9L181.8,142.1L181.8,142.1z"/>
<path class="st14" d="M174.4,122.9c-3.6,1.2-6.8,3.5-9,6.5L180,140L174.4,122.9z"/>
<path class="st15" d="M174,125.1c-2.7,0.9-5.1,2.6-6.7,4.9l10.9,7.9L174,125.1z"/>
<path class="st16" d="M180,140L180,140l5.6-17.1c-1.8-0.6-3.6-0.9-5.6-0.9s-3.8,0.3-5.6,0.9L180,140L180,140z"/>
<path class="st7" d="M180,137.9L180,137.9l4.2-12.8c-1.3-0.4-2.7-0.7-4.2-0.7s-2.9,0.2-4.2,0.7L180,137.9L180,137.9z"/>
<path class="st16" d="M194.5,129.4c-2.2-3-5.3-5.4-9-6.5L180,140L194.5,129.4z"/>
<path class="st7" d="M192.7,130c-1.7-2.3-4-4-6.7-4.9l-4.2,12.8L192.7,130z"/>
<path class="st16" d="M180,140L180,140L180,140l18,0c0-4-1.3-7.6-3.5-10.6L180,140z"/>
<path class="st7" d="M182.1,138.7L182.1,138.7L182.1,138.7l13.5,0c0-3-1-5.7-2.6-7.9L182.1,138.7z"/>
<path class="st16" d="M194.5,150.6c2.2-3,3.5-6.6,3.5-10.6h-18L194.5,150.6z"/>
<path class="st7" d="M193,149.3c1.6-2.2,2.6-5,2.6-7.9h-13.5L193,149.3z"/>
<path class="st14" d="M220,140L220,140l-14.5-10.6c-2.2,3-3.5,6.6-3.5,10.6H220L220,140z"/>
<path class="st15" d="M217.9,138.7L217.9,138.7l-10.9-7.9c-1.6,2.2-2.6,5-2.6,7.9H217.9L217.9,138.7z"/>
<path class="st14" d="M202,140c0,4,1.3,7.6,3.5,10.6L220,140H202z"/>
<path class="st15" d="M204.4,141.3c0,3,1,5.7,2.6,7.9l10.9-7.9H204.4z"/>
<path class="st14" d="M220,140l-14.5,10.6c2.2,3,5.3,5.4,9,6.5L220,140L220,140z"/>
<path class="st15" d="M218.2,142.1l-10.9,7.9c1.7,2.3,4,4,6.7,4.9L218.2,142.1L218.2,142.1z"/>
<path class="st14" d="M214.4,157.1c1.8,0.6,3.6,0.9,5.6,0.9s3.8-0.3,5.6-0.9L220,140L214.4,157.1z"/>
<path class="st15" d="M215.8,154.9c1.3,0.4,2.7,0.7,4.2,0.7s2.9-0.2,4.2-0.7l-4.2-12.8L215.8,154.9z"/>
<path class="st16" d="M220,140l5.6,17.1c3.6-1.2,6.8-3.5,9-6.5L220,140L220,140z"/>
<path class="st7" d="M221.8,142.1l4.2,12.8c2.7-0.9,5.1-2.6,6.7-4.9L221.8,142.1L221.8,142.1z"/>
<path class="st14" d="M214.4,122.9c-3.6,1.2-6.8,3.5-9,6.5L220,140L214.4,122.9z"/>
<path class="st15" d="M214,125.1c-2.7,0.9-5.1,2.6-6.7,4.9l10.9,7.9L214,125.1z"/>
<path class="st16" d="M220,140L220,140l5.6-17.1c-1.8-0.6-3.6-0.9-5.6-0.9s-3.8,0.3-5.6,0.9L220,140L220,140z"/>
<path class="st7" d="M220,137.9L220,137.9l4.2-12.8c-1.3-0.4-2.7-0.7-4.2-0.7s-2.9,0.2-4.2,0.7L220,137.9L220,137.9z"/>
<path class="st16" d="M234.5,129.4c-2.2-3-5.3-5.4-9-6.5L220,140L234.5,129.4z"/>
<path class="st7" d="M232.7,130c-1.7-2.3-4-4-6.7-4.9l-4.2,12.8L232.7,130z"/>
<path class="st16" d="M220,140L220,140L220,140l18,0c0-4-1.3-7.6-3.5-10.6L220,140z"/>
<path class="st7" d="M222.1,138.7L222.1,138.7L222.1,138.7l13.5,0c0-3-1-5.7-2.6-7.9L222.1,138.7z"/>
<path class="st16" d="M234.5,150.6c2.2-3,3.5-6.6,3.5-10.6h-18L234.5,150.6z"/>
<path class="st7" d="M233,149.3c1.6-2.2,2.6-5,2.6-7.9h-13.5L233,149.3z"/>
<path class="st14" d="M260,140L260,140l-14.5-10.6c-2.2,3-3.5,6.6-3.5,10.6H260L260,140z"/>
<path class="st15" d="M257.9,138.7L257.9,138.7l-10.9-7.9c-1.6,2.2-2.6,5-2.6,7.9H257.9L257.9,138.7z"/>
<path class="st14" d="M242,140c0,4,1.3,7.6,3.5,10.6L260,140H242z"/>
<path class="st15" d="M244.4,141.3c0,3,1,5.7,2.6,7.9l10.9-7.9H244.4z"/>
<path class="st14" d="M260,140l-14.5,10.6c2.2,3,5.3,5.4,9,6.5L260,140L260,140z"/>
<path class="st15" d="M258.2,142.1l-10.9,7.9c1.7,2.3,4,4,6.7,4.9L258.2,142.1L258.2,142.1z"/>
<path class="st16" d="M254.4,157.1c1.8,0.6,3.6,0.9,5.6,0.9s3.8-0.3,5.6-0.9L260,140L254.4,157.1z"/>
<path class="st7" d="M255.8,154.9c1.3,0.4,2.7,0.7,4.2,0.7s2.9-0.2,4.2-0.7l-4.2-12.8L255.8,154.9z"/>
<path class="st16" d="M260,140l5.6,17.1c3.6-1.2,6.8-3.5,9-6.5L260,140L260,140z"/>
<path class="st7" d="M261.8,142.1l4.2,12.8c2.7-0.9,5.1-2.6,6.7-4.9L261.8,142.1L261.8,142.1z"/>
<path class="st14" d="M254.4,122.9c-3.6,1.2-6.8,3.5-9,6.5L260,140L254.4,122.9z"/>
<path class="st15" d="M254,125.1c-2.7,0.9-5.1,2.6-6.7,4.9l10.9,7.9L254,125.1z"/>
<path class="st16" d="M260,140L260,140l5.6-17.1c-1.8-0.6-3.6-0.9-5.6-0.9s-3.8,0.3-5.6,0.9L260,140L260,140z"/>
<path class="st7" d="M260,137.9L260,137.9l4.2-12.8c-1.3-0.4-2.7-0.7-4.2-0.7s-2.9,0.2-4.2,0.7L260,137.9L260,137.9z"/>
<path class="st16" d="M274.5,129.4c-2.2-3-5.3-5.4-9-6.5L260,140L274.5,129.4z"/>
<path class="st7" d="M272.7,130c-1.7-2.3-4-4-6.7-4.9l-4.2,12.8L272.7,130z"/>
<path class="st16" d="M260,140L260,140L260,140l18,0c0-4-1.3-7.6-3.5-10.6L260,140z"/>
<path class="st7" d="M262.1,138.7L262.1,138.7L262.1,138.7l13.5,0c0-3-1-5.7-2.6-7.9L262.1,138.7z"/>
<path class="st16" d="M274.5,150.6c2.2-3,3.5-6.6,3.5-10.6h-18L274.5,150.6z"/>
<path class="st7" d="M273,149.3c1.6-2.2,2.6-5,2.6-7.9h-13.5L273,149.3z"/>
<path class="st14" d="M300,140L300,140l-14.5-10.6c-2.2,3-3.5,6.6-3.5,10.6H300L300,140z"/>
<path class="st15" d="M297.9,138.7L297.9,138.7l-10.9-7.9c-1.6,2.2-2.6,5-2.6,7.9H297.9L297.9,138.7z"/>
<path class="st14" d="M282,140c0,4,1.3,7.6,3.5,10.6L300,140H282z"/>
<path class="st15" d="M284.4,141.3c0,3,1,5.7,2.6,7.9l10.9-7.9H284.4z"/>
<path class="st16" d="M300,140l-14.5,10.6c2.2,3,5.3,5.4,9,6.5L300,140L300,140z"/>
<path class="st7" d="M298.2,142.1l-10.9,7.9c1.7,2.3,4,4,6.7,4.9L298.2,142.1L298.2,142.1z"/>
<path class="st16" d="M294.4,157.1c1.8,0.6,3.6,0.9,5.6,0.9s3.8-0.3,5.6-0.9L300,140L294.4,157.1z"/>
<path class="st7" d="M295.8,154.9c1.3,0.4,2.7,0.7,4.2,0.7s2.9-0.2,4.2-0.7l-4.2-12.8L295.8,154.9z"/>
<path class="st16" d="M300,140l5.6,17.1c3.6-1.2,6.8-3.5,9-6.5L300,140L300,140z"/>
<path class="st7" d="M301.8,142.1l4.2,12.8c2.7-0.9,5.1-2.6,6.7-4.9L301.8,142.1L301.8,142.1z"/>
<path class="st14" d="M294.4,122.9c-3.6,1.2-6.8,3.5-9,6.5L300,140L294.4,122.9z"/>
<path class="st15" d="M294,125.1c-2.7,0.9-5.1,2.6-6.7,4.9l10.9,7.9L294,125.1z"/>
<path class="st16" d="M300,140L300,140l5.6-17.1c-1.8-0.6-3.6-0.9-5.6-0.9s-3.8,0.3-5.6,0.9L300,140L300,140z"/>
<path class="st7" d="M300,137.9L300,137.9l4.2-12.8c-1.3-0.4-2.7-0.7-4.2-0.7s-2.9,0.2-4.2,0.7L300,137.9L300,137.9z"/>
<path class="st16" d="M314.5,129.4c-2.2-3-5.3-5.4-9-6.5L300,140L314.5,129.4z"/>
<path class="st7" d="M312.7,130c-1.7-2.3-4-4-6.7-4.9l-4.2,12.8L312.7,130z"/>
<path class="st16" d="M300,140L300,140L300,140l18,0c0-4-1.3-7.6-3.5-10.6L300,140z"/>
<path class="st7" d="M302.1,138.7L302.1,138.7L302.1,138.7l13.5,0c0-3-1-5.7-2.6-7.9L302.1,138.7z"/>
<path class="st16" d="M314.5,150.6c2.2-3,3.5-6.6,3.5-10.6h-18L314.5,150.6z"/>
<path class="st7" d="M313,149.3c1.6-2.2,2.6-5,2.6-7.9h-13.5L313,149.3z"/>
<path class="st14" d="M340,140L340,140l-14.5-10.6c-2.2,3-3.5,6.6-3.5,10.6H340L340,140z"/>
<path class="st15" d="M337.9,138.7L337.9,138.7l-10.9-7.9c-1.6,2.2-2.6,5-2.6,7.9H337.9L337.9,138.7z"/>
<path class="st16" d="M322,140c0,4,1.3,7.6,3.5,10.6L340,140H322z"/>
<path class="st7" d="M324.4,141.3c0,3,1,5.7,2.6,7.9l10.9-7.9H324.4z"/>
<path class="st16" d="M340,140l-14.5,10.6c2.2,3,5.3,5.4,9,6.5L340,140L340,140z"/>
<path class="st7" d="M338.2,142.1l-10.9,7.9c1.7,2.3,4,4,6.7,4.9L338.2,142.1L338.2,142.1z"/>
<path class="st16" d="M334.4,157.1c1.8,0.6,3.6,0.9,5.6,0.9s3.8-0.3,5.6-0.9L340,140L334.4,157.1z"/>
<path class="st7" d="M335.8,154.9c1.3,0.4,2.7,0.7,4.2,0.7s2.9-0.2,4.2-0.7l-4.2-12.8L335.8,154.9z"/>
<path class="st16" d="M340,140l5.6,17.1c3.6-1.2,6.8-3.5,9-6.5L340,140L340,140z"/>
<path class="st7" d="M341.8,142.1l4.2,12.8c2.7-0.9,5.1-2.6,6.7-4.9L341.8,142.1L341.8,142.1z"/>
<path class="st14" d="M334.4,122.9c-3.6,1.2-6.8,3.5-9,6.5L340,140L334.4,122.9z"/>
<path class="st15" d="M334,125.1c-2.7,0.9-5.1,2.6-6.7,4.9l10.9,7.9L334,125.1z"/>
<path class="st16" d="M340,140L340,140l5.6-17.1c-1.8-0.6-3.6-0.9-5.6-0.9s-3.8,0.3-5.6,0.9L340,140L340,140z"/>
<path class="st7" d="M340,137.9L340,137.9l4.2-12.8c-1.3-0.4-2.7-0.7-4.2-0.7s-2.9,0.2-4.2,0.7L340,137.9L340,137.9z"/>
<path class="st16" d="M354.5,129.4c-2.2-3-5.3-5.4-9-6.5L340,140L354.5,129.4z"/>
<path class="st7" d="M352.7,130c-1.7-2.3-4-4-6.7-4.9l-4.2,12.8L352.7,130z"/>
<path class="st16" d="M340,140L340,140L340,140l18,0c0-4-1.3-7.6-3.5-10.6L340,140z"/>
<path class="st7" d="M342.1,138.7L342.1,138.7L342.1,138.7l13.5,0c0-3-1-5.7-2.6-7.9L342.1,138.7z"/>
<path class="st16" d="M354.5,150.6c2.2-3,3.5-6.6,3.5-10.6h-18L354.5,150.6z"/>
<path class="st7" d="M353,149.3c1.6-2.2,2.6-5,2.6-7.9h-13.5L353,149.3z"/>
<path class="st16" d="M380,140L380,140l-14.5-10.6c-2.2,3-3.5,6.6-3.5,10.6H380L380,140z"/>
<path class="st7" d="M377.9,138.7L377.9,138.7l-10.9-7.9c-1.6,2.2-2.6,5-2.6,7.9H377.9L377.9,138.7z"/>
<path class="st16" d="M362,140c0,4,1.3,7.6,3.5,10.6L380,140H362z"/>
<path class="st7" d="M364.4,141.3c0,3,1,5.7,2.6,7.9l10.9-7.9H364.4z"/>
<path class="st16" d="M380,140l-14.5,10.6c2.2,3,5.3,5.4,9,6.5L380,140L380,140z"/>
<path class="st7" d="M378.2,142.1l-10.9,7.9c1.7,2.3,4,4,6.7,4.9L378.2,142.1L378.2,142.1z"/>
<path class="st16" d="M374.4,157.1c1.8,0.6,3.6,0.9,5.6,0.9s3.8-0.3,5.6-0.9L380,140L374.4,157.1z"/>
<path class="st7" d="M375.8,154.9c1.3,0.4,2.7,0.7,4.2,0.7s2.9-0.2,4.2-0.7l-4.2-12.8L375.8,154.9z"/>
<path class="st16" d="M380,140l5.6,17.1c3.6-1.2,6.8-3.5,9-6.5L380,140L380,140z"/>
<path class="st7" d="M381.8,142.1l4.2,12.8c2.7-0.9,5.1-2.6,6.7-4.9L381.8,142.1L381.8,142.1z"/>
<path class="st14" d="M374.4,122.9c-3.6,1.2-6.8,3.5-9,6.5L380,140L374.4,122.9z"/>
<path class="st15" d="M374,125.1c-2.7,0.9-5.1,2.6-6.7,4.9l10.9,7.9L374,125.1z"/>
<path class="st16" d="M380,140L380,140l5.6-17.1c-1.8-0.6-3.6-0.9-5.6-0.9s-3.8,0.3-5.6,0.9L380,140L380,140z"/>
<path class="st7" d="M380,137.9L380,137.9l4.2-12.8c-1.3-0.4-2.7-0.7-4.2-0.7s-2.9,0.2-4.2,0.7L380,137.9L380,137.9z"/>
<path class="st16" d="M394.5,129.4c-2.2-3-5.3-5.4-9-6.5L380,140L394.5,129.4z"/>
<path class="st7" d="M392.7,130c-1.7-2.3-4-4-6.7-4.9l-4.2,12.8L392.7,130z"/>
<path class="st16" d="M380,140L380,140L380,140l18,0c0-4-1.3-7.6-3.5-10.6L380,140z"/>
<path class="st7" d="M382.1,138.7L382.1,138.7L382.1,138.7l13.5,0c0-3-1-5.7-2.6-7.9L382.1,138.7z"/>
<path class="st16" d="M394.5,150.6c2.2-3,3.5-6.6,3.5-10.6h-18L394.5,150.6z"/>
<path class="st7" d="M393,149.3c1.6-2.2,2.6-5,2.6-7.9h-13.5L393,149.3z"/>
<path class="st16" d="M420,140L420,140l-14.5-10.6c-2.2,3-3.5,6.6-3.5,10.6H420L420,140z"/>
<path class="st7" d="M417.9,138.7L417.9,138.7l-10.9-7.9c-1.6,2.2-2.6,5-2.6,7.9H417.9L417.9,138.7z"/>
<path class="st16" d="M402,140c0,4,1.3,7.6,3.5,10.6L420,140H402z"/>
<path class="st7" d="M404.4,141.3c0,3,1,5.7,2.6,7.9l10.9-7.9H404.4z"/>
<path class="st16" d="M420,140l-14.5,10.6c2.2,3,5.3,5.4,9,6.5L420,140L420,140z"/>
<path class="st7" d="M418.2,142.1l-10.9,7.9c1.7,2.3,4,4,6.7,4.9L418.2,142.1L418.2,142.1z"/>
<path class="st16" d="M414.4,157.1c1.8,0.6,3.6,0.9,5.6,0.9s3.8-0.3,5.6-0.9L420,140L414.4,157.1z"/>
<path class="st7" d="M415.8,154.9c1.3,0.4,2.7,0.7,4.2,0.7s2.9-0.2,4.2-0.7l-4.2-12.8L415.8,154.9z"/>
<path class="st16" d="M420,140l5.6,17.1c3.6-1.2,6.8-3.5,9-6.5L420,140L420,140z"/>
<path class="st7" d="M421.8,142.1l4.2,12.8c2.7-0.9,5.1-2.6,6.7-4.9L421.8,142.1L421.8,142.1z"/>
<path class="st16" d="M414.4,122.9c-3.6,1.2-6.8,3.5-9,6.5L420,140L414.4,122.9z"/>
<path class="st7" d="M414,125.1c-2.7,0.9-5.1,2.6-6.7,4.9l10.9,7.9L414,125.1z"/>
<path class="st16" d="M420,140L420,140l5.6-17.1c-1.8-0.6-3.6-0.9-5.6-0.9s-3.8,0.3-5.6,0.9L420,140L420,140z"/>
<path class="st7" d="M420,137.9L420,137.9l4.2-12.8c-1.3-0.4-2.7-0.7-4.2-0.7s-2.9,0.2-4.2,0.7L420,137.9L420,137.9z"/>
<path class="st16" d="M434.5,129.4c-2.2-3-5.3-5.4-9-6.5L420,140L434.5,129.4z"/>
<path class="st7" d="M432.7,130c-1.7-2.3-4-4-6.7-4.9l-4.2,12.8L432.7,130z"/>
<path class="st16" d="M420,140L420,140L420,140l18,0c0-4-1.3-7.6-3.5-10.6L420,140z"/>
<path class="st7" d="M422.1,138.7L422.1,138.7L422.1,138.7l13.5,0c0-3-1-5.7-2.6-7.9L422.1,138.7z"/>
<path class="st16" d="M434.5,150.6c2.2-3,3.5-6.6,3.5-10.6h-18L434.5,150.6z"/>
<path class="st7" d="M433,149.3c1.6-2.2,2.6-5,2.6-7.9h-13.5L433,149.3z"/>
</svg>
