<?xml version="1.0" encoding="utf-8"?>
<!-- Generator: Adobe Illustrator 27.3.1, SVG Export Plug-In . SVG Version: 6.00 Build 0)  -->
<!DOCTYPE svg PUBLIC "-//W3C//DTD SVG 1.1//EN" "http://www.w3.org/Graphics/SVG/1.1/DTD/svg11.dtd" [
	<!ENTITY ns_extend "http://ns.adobe.com/Extensibility/1.0/">
	<!ENTITY ns_ai "http://ns.adobe.com/AdobeIllustrator/10.0/">
	<!ENTITY ns_graphs "http://ns.adobe.com/Graphs/1.0/">
	<!ENTITY ns_vars "http://ns.adobe.com/Variables/1.0/">
	<!ENTITY ns_imrep "http://ns.adobe.com/ImageReplacement/1.0/">
	<!ENTITY ns_sfw "http://ns.adobe.com/SaveForWeb/1.0/">
	<!ENTITY ns_custom "http://ns.adobe.com/GenericCustomNamespace/1.0/">
	<!ENTITY ns_adobe_xpath "http://ns.adobe.com/XPath/1.0/">
]>
<svg version="1.1" id="Layer_1" xmlns:x="&ns_extend;" xmlns:i="&ns_ai;" xmlns:graph="&ns_graphs;"
	 xmlns="http://www.w3.org/2000/svg" xmlns:xlink="http://www.w3.org/1999/xlink" x="0px" y="0px" width="520px" height="200px"
	 viewBox="0 0 520 200" style="enable-background:new 0 0 520 200;" xml:space="preserve">
<style type="text/css">
	.st0{fill:#D6E4E3;stroke:#135F5F;stroke-miterlimit:10;}
	.st1{fill:#2E8B8D;stroke:#135F5F;stroke-miterlimit:10;}
	.st2{fill:#DFE7E7;stroke:#0D3A4C;stroke-miterlimit:10;}
	.st3{fill:#176884;stroke:#0D3A4C;stroke-miterlimit:10;}
	.st4{fill:#D6B8C2;stroke:#690C3F;stroke-miterlimit:10;}
	.st5{fill:#A52668;stroke:#690C3F;stroke-miterlimit:10;}
	.st6{fill:#D6D1D6;stroke:#261841;stroke-miterlimit:10;}
	.st7{fill:#564A6F;stroke:#261841;stroke-miterlimit:10;}
</style>
<metadata>
	<sfw  xmlns="&ns_sfw;">
		<slices></slices>
		<sliceSourceBounds  bottomLeftOrigin="true" height="197" width="517" x="1.5" y="-198.5"></sliceSourceBounds>
	</sfw>
</metadata>
<path class="st0" d="M29,44.4L20,60h18C38,53.3,34.4,47.5,29,44.4z"/>
<path class="st0" d="M29,44.4c-2.6-1.5-5.7-2.4-9-2.4s-6.3,0.9-9,2.4L20,60L29,44.4z"/>
<path class="st0" d="M29,75.6c5.4-3.1,9-8.9,9-15.6H20L29,75.6z"/>
<path class="st0" d="M11,44.4C5.6,47.5,2,53.3,2,60h18L11,44.4z"/>
<path class="st0" d="M11,75.6c2.6,1.5,5.7,2.4,9,2.4s6.3-0.9,9-2.4L20,60L11,75.6z"/>
<path class="st0" d="M2,60c0,6.7,3.6,12.5,9,15.6L20,60H2z"/>
<path class="st0" d="M69,44.4L60,60h18C78,53.3,74.4,47.5,69,44.4z"/>
<path class="st1" d="M69,44.4c-2.6-1.5-5.7-2.4-9-2.4s-6.3,0.9-9,2.4L60,60L69,44.4z"/>
<path class="st0" d="M69,75.6c5.4-3.1,9-8.9,9-15.6H60L69,75.6z"/>
<path class="st0" d="M51,44.4c-5.4,3.1-9,8.9-9,15.6h18L51,44.4z"/>
<path class="st0" d="M51,75.6c2.6,1.5,5.7,2.4,9,2.4s6.3-0.9,9-2.4L60,60L51,75.6z"/>
<path class="st0" d="M42,60c0,6.7,3.6,12.5,9,15.6L60,60H42z"/>
<path class="st1" d="M109,44.4L100,60h18C118,53.3,114.4,47.5,109,44.4z"/>
<path class="st1" d="M109,44.4c-2.6-1.5-5.7-2.4-9-2.4s-6.3,0.9-9,2.4l9,15.6L109,44.4z"/>
<path class="st0" d="M109,75.6c5.4-3.1,9-8.9,9-15.6h-18L109,75.6z"/>
<path class="st0" d="M91,44.4c-5.4,3.1-9,8.9-9,15.6h18L91,44.4z"/>
<path class="st0" d="M91,75.6c2.6,1.5,5.7,2.4,9,2.4s6.3-0.9,9-2.4L100,60L91,75.6z"/>
<path class="st0" d="M82,60c0,6.7,3.6,12.5,9,15.6l9-15.6H82z"/>
<path class="st1" d="M149,44.4L140,60h18C158,53.3,154.4,47.5,149,44.4z"/>
<path class="st1" d="M149,44.4c-2.6-1.5-5.7-2.4-9-2.4s-6.3,0.9-9,2.4l9,15.6L149,44.4z"/>
<path class="st1" d="M149,75.6c5.4-3.1,9-8.9,9-15.6h-18L149,75.6z"/>
<path class="st0" d="M131,44.4c-5.4,3.1-9,8.9-9,15.6h18L131,44.4z"/>
<path class="st0" d="M131,75.6c2.6,1.5,5.7,2.4,9,2.4s6.3-0.9,9-2.4L140,60L131,75.6z"/>
<path class="st0" d="M122,60c0,6.7,3.6,12.5,9,15.6l9-15.6H122z"/>
<path class="st1" d="M189,44.4L180,60h18C198,53.3,194.4,47.5,189,44.4z"/>
<path class="st1" d="M189,44.4c-2.6-1.5-5.7-2.4-9-2.4s-6.3,0.9-9,2.4l9,15.6L189,44.4z"/>
<path class="st1" d="M189,75.6c5.4-3.1,9-8.9,9-15.6h-18L189,75.6z"/>
<path class="st0" d="M171,44.4c-5.4,3.1-9,8.9-9,15.6h18L171,44.4z"/>
<path class="st1" d="M171,75.6c2.6,1.5,5.7,2.4,9,2.4s6.3-0.9,9-2.4L180,60L171,75.6z"/>
<path class="st0" d="M162,60c0,6.7,3.6,12.5,9,15.6l9-15.6H162z"/>
<path class="st1" d="M229,44.4L220,60h18C238,53.3,234.4,47.5,229,44.4z"/>
<path class="st1" d="M229,44.4c-2.6-1.5-5.7-2.4-9-2.4s-6.3,0.9-9,2.4l9,15.6L229,44.4z"/>
<path class="st1" d="M229,75.6c5.4-3.1,9-8.9,9-15.6h-18L229,75.6z"/>
<path class="st0" d="M211,44.4c-5.4,3.1-9,8.9-9,15.6h18L211,44.4z"/>
<path class="st1" d="M211,75.6c2.6,1.5,5.7,2.4,9,2.4s6.3-0.9,9-2.4L220,60L211,75.6z"/>
<path class="st1" d="M202,60c0,6.7,3.6,12.5,9,15.6l9-15.6H202z"/>
<path class="st1" d="M269,44.4L260,60h18C278,53.3,274.4,47.5,269,44.4z"/>
<path class="st1" d="M269,44.4c-2.6-1.5-5.7-2.4-9-2.4s-6.3,0.9-9,2.4l9,15.6L269,44.4z"/>
<path class="st1" d="M269,75.6c5.4-3.1,9-8.9,9-15.6h-18L269,75.6z"/>
<path class="st1" d="M251,44.4c-5.4,3.1-9,8.9-9,15.6h18L251,44.4z"/>
<path class="st1" d="M251,75.6c2.6,1.5,5.7,2.4,9,2.4s6.3-0.9,9-2.4L260,60L251,75.6z"/>
<path class="st1" d="M242,60c0,6.7,3.6,12.5,9,15.6l9-15.6H242z"/>
<g>
	<path class="st2" d="M3.4,93.1c-1.8,4.3-1.9,9.2,0,13.8L20,100L3.4,93.1z"/>
	<path class="st2" d="M3.4,106.9c1.9,4.6,5.5,8,9.7,9.7L20,100L3.4,106.9z"/>
	<path class="st2" d="M13.1,116.6c4.3,1.8,9.2,1.9,13.8,0L20,100L13.1,116.6z"/>
	<path class="st2" d="M26.9,116.6c4.6-1.9,8-5.5,9.7-9.7L20,100L26.9,116.6z"/>
	<path class="st2" d="M3.4,93.1L20,100l-6.9-16.6C8.5,85.3,5.1,88.9,3.4,93.1z"/>
	<path class="st2" d="M26.9,83.4c-4.3-1.8-9.2-1.9-13.8,0L20,100L26.9,83.4z"/>
	<path class="st2" d="M36.6,93.1c-1.9-4.6-5.5-8-9.7-9.7L20,100L36.6,93.1z"/>
	<path class="st2" d="M36.6,106.9c1.8-4.3,1.9-9.2,0-13.8L20,100L36.6,106.9z"/>
</g>
<path class="st2" d="M43.4,93.1c-1.8,4.3-1.9,9.2,0,13.8L60,100L43.4,93.1z"/>
<path class="st2" d="M43.4,106.9c1.9,4.6,5.5,8,9.7,9.7L60,100L43.4,106.9z"/>
<path class="st2" d="M53.1,116.6c4.3,1.8,9.2,1.9,13.8,0L60,100L53.1,116.6z"/>
<path class="st2" d="M66.9,116.6c4.6-1.9,8-5.5,9.7-9.7L60,100L66.9,116.6z"/>
<path class="st2" d="M43.4,93.1L60,100l-6.9-16.6C48.5,85.3,45.1,88.9,43.4,93.1z"/>
<path class="st3" d="M66.9,83.4c-4.3-1.8-9.2-1.9-13.8,0L60,100L66.9,83.4z"/>
<path class="st2" d="M76.6,93.1c-1.9-4.6-5.5-8-9.7-9.7L60,100L76.6,93.1z"/>
<path class="st2" d="M76.6,106.9c1.8-4.3,1.9-9.2,0-13.8L60,100L76.6,106.9z"/>
<path class="st2" d="M83.4,93.1c-1.8,4.3-1.9,9.2,0,13.8L100,100L83.4,93.1z"/>
<path class="st2" d="M83.4,106.9c1.9,4.6,5.5,8,9.7,9.7L100,100L83.4,106.9z"/>
<path class="st2" d="M93.1,116.6c4.3,1.8,9.2,1.9,13.8,0L100,100L93.1,116.6z"/>
<path class="st2" d="M106.9,116.6c4.6-1.9,8-5.5,9.7-9.7L100,100L106.9,116.6z"/>
<path class="st2" d="M83.4,93.1L100,100l-6.9-16.6C88.5,85.3,85.1,88.9,83.4,93.1z"/>
<path class="st3" d="M106.9,83.4c-4.3-1.8-9.2-1.9-13.8,0L100,100L106.9,83.4z"/>
<path class="st3" d="M116.6,93.1c-1.9-4.6-5.5-8-9.7-9.7L100,100L116.6,93.1z"/>
<path class="st2" d="M116.6,106.9c1.8-4.3,1.9-9.2,0-13.8L100,100L116.6,106.9z"/>
<path class="st2" d="M123.4,93.1c-1.8,4.3-1.9,9.2,0,13.8L140,100L123.4,93.1z"/>
<path class="st2" d="M123.4,106.9c1.9,4.6,5.5,8,9.7,9.7L140,100L123.4,106.9z"/>
<path class="st2" d="M133.1,116.6c4.3,1.8,9.2,1.9,13.8,0L140,100L133.1,116.6z"/>
<path class="st2" d="M146.9,116.6c4.6-1.9,8-5.5,9.7-9.7L140,100L146.9,116.6z"/>
<path class="st2" d="M123.4,93.1L140,100l-6.9-16.6C128.5,85.3,125.1,88.9,123.4,93.1z"/>
<path class="st3" d="M146.9,83.4c-4.3-1.8-9.2-1.9-13.8,0L140,100L146.9,83.4z"/>
<path class="st3" d="M156.6,93.1c-1.9-4.6-5.5-8-9.7-9.7L140,100L156.6,93.1z"/>
<path class="st3" d="M156.6,106.9c1.8-4.3,1.9-9.2,0-13.8L140,100L156.6,106.9z"/>
<path class="st2" d="M163.4,93.1c-1.8,4.3-1.9,9.2,0,13.8L180,100L163.4,93.1z"/>
<path class="st2" d="M163.4,106.9c1.9,4.6,5.5,8,9.7,9.7L180,100L163.4,106.9z"/>
<path class="st2" d="M173.1,116.6c4.3,1.8,9.2,1.9,13.8,0L180,100L173.1,116.6z"/>
<path class="st3" d="M186.9,116.6c4.6-1.9,8-5.5,9.7-9.7L180,100L186.9,116.6z"/>
<path class="st2" d="M163.4,93.1L180,100l-6.9-16.6C168.5,85.3,165.1,88.9,163.4,93.1z"/>
<path class="st3" d="M186.9,83.4c-4.3-1.8-9.2-1.9-13.8,0L180,100L186.9,83.4z"/>
<path class="st3" d="M196.6,93.1c-1.9-4.6-5.5-8-9.7-9.7L180,100L196.6,93.1z"/>
<path class="st3" d="M196.6,106.9c1.8-4.3,1.9-9.2,0-13.8L180,100L196.6,106.9z"/>
<path class="st2" d="M203.4,93.1c-1.8,4.3-1.9,9.2,0,13.8L220,100L203.4,93.1z"/>
<path class="st2" d="M203.4,106.9c1.9,4.6,5.5,8,9.7,9.7L220,100L203.4,106.9z"/>
<path class="st3" d="M213.1,116.6c4.3,1.8,9.2,1.9,13.8,0L220,100L213.1,116.6z"/>
<path class="st3" d="M226.9,116.6c4.6-1.9,8-5.5,9.7-9.7L220,100L226.9,116.6z"/>
<path class="st2" d="M203.4,93.1L220,100l-6.9-16.6C208.5,85.3,205.1,88.9,203.4,93.1z"/>
<path class="st3" d="M226.9,83.4c-4.3-1.8-9.2-1.9-13.8,0L220,100L226.9,83.4z"/>
<path class="st3" d="M236.6,93.1c-1.9-4.6-5.5-8-9.7-9.7L220,100L236.6,93.1z"/>
<path class="st3" d="M236.6,106.9c1.8-4.3,1.9-9.2,0-13.8L220,100L236.6,106.9z"/>
<path class="st2" d="M243.4,93.1c-1.8,4.3-1.9,9.2,0,13.8L260,100L243.4,93.1z"/>
<path class="st3" d="M243.4,106.9c1.9,4.6,5.5,8,9.7,9.7L260,100L243.4,106.9z"/>
<path class="st3" d="M253.1,116.6c4.3,1.8,9.2,1.9,13.8,0L260,100L253.1,116.6z"/>
<path class="st3" d="M266.9,116.6c4.6-1.9,8-5.5,9.7-9.7L260,100L266.9,116.6z"/>
<path class="st2" d="M243.4,93.1L260,100l-6.9-16.6C248.5,85.3,245.1,88.9,243.4,93.1z"/>
<path class="st3" d="M266.9,83.4c-4.3-1.8-9.2-1.9-13.8,0L260,100L266.9,83.4z"/>
<path class="st3" d="M276.6,93.1c-1.9-4.6-5.5-8-9.7-9.7L260,100L276.6,93.1z"/>
<path class="st3" d="M276.6,106.9c1.8-4.3,1.9-9.2,0-13.8L260,100L276.6,106.9z"/>
<path class="st3" d="M283.4,93.1c-1.8,4.3-1.9,9.2,0,13.8L300,100L283.4,93.1z"/>
<path class="st3" d="M283.4,106.9c1.9,4.6,5.5,8,9.7,9.7L300,100L283.4,106.9z"/>
<path class="st3" d="M293.1,116.6c4.3,1.8,9.2,1.9,13.8,0L300,100L293.1,116.6z"/>
<path class="st3" d="M306.9,116.6c4.6-1.9,8-5.5,9.7-9.7L300,100L306.9,116.6z"/>
<path class="st2" d="M283.4,93.1L300,100l-6.9-16.6C288.5,85.3,285.1,88.9,283.4,93.1z"/>
<path class="st3" d="M306.9,83.4c-4.3-1.8-9.2-1.9-13.8,0L300,100L306.9,83.4z"/>
<path class="st3" d="M316.6,93.1c-1.9-4.6-5.5-8-9.7-9.7L300,100L316.6,93.1z"/>
<path class="st3" d="M316.6,106.9c1.8-4.3,1.9-9.2,0-13.8L300,100L316.6,106.9z"/>
<path class="st3" d="M323.4,93.1c-1.8,4.3-1.9,9.2,0,13.8L340,100L323.4,93.1z"/>
<path class="st3" d="M323.4,106.9c1.9,4.6,5.5,8,9.7,9.7L340,100L323.4,106.9z"/>
<path class="st3" d="M333.1,116.6c4.3,1.8,9.2,1.9,13.8,0L340,100L333.1,116.6z"/>
<path class="st3" d="M346.9,116.6c4.6-1.9,8-5.5,9.7-9.7L340,100L346.9,116.6z"/>
<path class="st3" d="M323.4,93.1L340,100l-6.9-16.6C328.5,85.3,325.1,88.9,323.4,93.1z"/>
<path class="st3" d="M346.9,83.4c-4.3-1.8-9.2-1.9-13.8,0L340,100L346.9,83.4z"/>
<path class="st3" d="M356.6,93.1c-1.9-4.6-5.5-8-9.7-9.7L340,100L356.6,93.1z"/>
<path class="st3" d="M356.6,106.9c1.8-4.3,1.9-9.2,0-13.8L340,100L356.6,106.9z"/>
<path class="st4" d="M32.7,32.7c7-7,7-18.4,0-25.5L20,20L32.7,32.7z"/>
<path class="st4" d="M7.3,7.3L20,20L32.7,7.3C25.7,0.2,14.3,0.2,7.3,7.3z"/>
<path class="st4" d="M7.3,32.7c7,7,18.4,7,25.5,0L20,20L7.3,32.7z"/>
<path class="st4" d="M7.3,32.7L20,20L7.3,7.3C0.2,14.3,0.2,25.7,7.3,32.7z"/>
<path class="st4" d="M72.7,32.7c7-7,7-18.4,0-25.5L60,20L72.7,32.7z"/>
<path class="st5" d="M47.3,7.3L60,20L72.7,7.3C65.7,0.2,54.3,0.2,47.3,7.3z"/>
<path class="st4" d="M47.3,32.7c7,7,18.4,7,25.5,0L60,20L47.3,32.7z"/>
<path class="st4" d="M47.3,32.7L60,20L47.3,7.3C40.2,14.3,40.2,25.7,47.3,32.7z"/>
<path class="st5" d="M112.7,32.7c7-7,7-18.4,0-25.5L100,20L112.7,32.7z"/>
<path class="st5" d="M87.3,7.3L100,20l12.7-12.7C105.7,0.2,94.3,0.2,87.3,7.3z"/>
<path class="st4" d="M87.3,32.7c7,7,18.4,7,25.5,0L100,20L87.3,32.7z"/>
<path class="st4" d="M87.3,32.7L100,20L87.3,7.3C80.2,14.3,80.2,25.7,87.3,32.7z"/>
<path class="st5" d="M152.7,32.7c7-7,7-18.4,0-25.5L140,20L152.7,32.7z"/>
<path class="st5" d="M127.3,7.3L140,20l12.7-12.7C145.7,0.2,134.3,0.2,127.3,7.3z"/>
<path class="st5" d="M127.3,32.7c7,7,18.4,7,25.5,0L140,20L127.3,32.7z"/>
<path class="st4" d="M127.3,32.7L140,20L127.3,7.3C120.2,14.3,120.2,25.7,127.3,32.7z"/>
<path class="st5" d="M192.7,32.7c7-7,7-18.4,0-25.5L180,20L192.7,32.7z"/>
<path class="st5" d="M167.3,7.3L180,20l12.7-12.7C185.7,0.2,174.3,0.2,167.3,7.3z"/>
<path class="st5" d="M167.3,32.7c7,7,18.4,7,25.5,0L180,20L167.3,32.7z"/>
<path class="st5" d="M167.3,32.7L180,20L167.3,7.3C160.2,14.3,160.2,25.7,167.3,32.7z"/>
<path class="st4" d="M2.6,175.3c-0.8,3-0.9,6.1,0,9.3L20,180L2.6,175.3z"/>
<path class="st4" d="M2.6,184.7c0.8,3.2,2.5,5.9,4.7,8.1L20,180L2.6,184.7z"/>
<path class="st4" d="M7.3,192.7c2.2,2.2,5,3.8,8.1,4.7L20,180L7.3,192.7z"/>
<path class="st4" d="M15.3,197.4c3,0.8,6.1,0.9,9.3,0L20,180L15.3,197.4z"/>
<path class="st4" d="M24.7,197.4c3.2-0.8,5.9-2.5,8.1-4.7L20,180L24.7,197.4z"/>
<path class="st4" d="M32.7,192.7c2.2-2.2,3.8-5,4.7-8.1L20,180L32.7,192.7z"/>
<path class="st4" d="M7.3,167.3c-2.2,2.2-3.8,5-4.7,8.1L20,180L7.3,167.3z"/>
<path class="st4" d="M15.3,162.6c-3.2,0.8-5.9,2.5-8.1,4.7L20,180L15.3,162.6z"/>
<path class="st4" d="M24.7,162.6c-3-0.8-6.1-0.9-9.3,0L20,180L24.7,162.6z"/>
<path class="st4" d="M32.7,167.3c-2.2-2.2-5-3.8-8.1-4.7L20,180L32.7,167.3z"/>
<path class="st4" d="M20,180l17.4-4.7c-0.8-3.2-2.5-5.9-4.7-8.1L20,180z"/>
<path class="st4" d="M37.4,184.7c0.8-3,0.9-6.1,0-9.3L20,180L37.4,184.7z"/>
<path class="st4" d="M42.6,175.3c-0.8,3-0.9,6.1,0,9.3L60,180L42.6,175.3z"/>
<path class="st4" d="M42.6,184.7c0.8,3.2,2.5,5.9,4.7,8.1L60,180L42.6,184.7z"/>
<path class="st4" d="M47.3,192.7c2.2,2.2,5,3.8,8.1,4.7L60,180L47.3,192.7z"/>
<path class="st4" d="M55.3,197.4c3,0.8,6.1,0.9,9.3,0L60,180L55.3,197.4z"/>
<path class="st4" d="M64.7,197.4c3.2-0.8,5.9-2.5,8.1-4.7L60,180L64.7,197.4z"/>
<path class="st4" d="M72.7,192.7c2.2-2.2,3.8-5,4.7-8.1L60,180L72.7,192.7z"/>
<path class="st4" d="M47.3,167.3c-2.2,2.2-3.8,5-4.7,8.1L60,180L47.3,167.3z"/>
<path class="st4" d="M55.3,162.6c-3.2,0.8-5.9,2.5-8.1,4.7L60,180L55.3,162.6z"/>
<path class="st5" d="M64.7,162.6c-3-0.8-6.1-0.9-9.3,0L60,180L64.7,162.6z"/>
<path class="st4" d="M72.7,167.3c-2.2-2.2-5-3.8-8.1-4.7L60,180L72.7,167.3z"/>
<path class="st4" d="M60,180l17.4-4.7c-0.8-3.2-2.5-5.9-4.7-8.1L60,180z"/>
<path class="st4" d="M77.4,184.7c0.8-3,0.9-6.1,0-9.3L60,180L77.4,184.7z"/>
<path class="st4" d="M82.6,175.3c-0.8,3-0.9,6.1,0,9.3L100,180L82.6,175.3z"/>
<path class="st4" d="M82.6,184.7c0.8,3.2,2.5,5.9,4.7,8.1L100,180L82.6,184.7z"/>
<path class="st4" d="M87.3,192.7c2.2,2.2,5,3.8,8.1,4.7L100,180L87.3,192.7z"/>
<path class="st4" d="M95.3,197.4c3,0.8,6.1,0.9,9.3,0L100,180L95.3,197.4z"/>
<path class="st4" d="M104.7,197.4c3.2-0.8,5.9-2.5,8.1-4.7L100,180L104.7,197.4z"/>
<path class="st4" d="M112.7,192.7c2.2-2.2,3.8-5,4.7-8.1L100,180L112.7,192.7z"/>
<path class="st4" d="M87.3,167.3c-2.2,2.2-3.8,5-4.7,8.1L100,180L87.3,167.3z"/>
<path class="st4" d="M95.3,162.6c-3.2,0.8-5.9,2.5-8.1,4.7L100,180L95.3,162.6z"/>
<path class="st5" d="M104.7,162.6c-3-0.8-6.1-0.9-9.3,0L100,180L104.7,162.6z"/>
<path class="st5" d="M112.7,167.3c-2.2-2.2-5-3.8-8.1-4.7L100,180L112.7,167.3z"/>
<path class="st4" d="M100,180l17.4-4.7c-0.8-3.2-2.5-5.9-4.7-8.1L100,180z"/>
<path class="st4" d="M117.4,184.7c0.8-3,0.9-6.1,0-9.3L100,180L117.4,184.7z"/>
<path class="st4" d="M122.6,175.3c-0.8,3-0.9,6.1,0,9.3L140,180L122.6,175.3z"/>
<path class="st4" d="M122.6,184.7c0.8,3.2,2.5,5.9,4.7,8.1L140,180L122.6,184.7z"/>
<path class="st4" d="M127.3,192.7c2.2,2.2,5,3.8,8.1,4.7L140,180L127.3,192.7z"/>
<path class="st4" d="M135.3,197.4c3,0.8,6.1,0.9,9.3,0L140,180L135.3,197.4z"/>
<path class="st4" d="M144.7,197.4c3.2-0.8,5.9-2.5,8.1-4.7L140,180L144.7,197.4z"/>
<path class="st4" d="M152.7,192.7c2.2-2.2,3.8-5,4.7-8.1L140,180L152.7,192.7z"/>
<path class="st4" d="M127.3,167.3c-2.2,2.2-3.8,5-4.7,8.1L140,180L127.3,167.3z"/>
<path class="st4" d="M135.3,162.6c-3.2,0.8-5.9,2.5-8.1,4.7L140,180L135.3,162.6z"/>
<path class="st5" d="M144.7,162.6c-3-0.8-6.1-0.9-9.3,0L140,180L144.7,162.6z"/>
<path class="st5" d="M152.7,167.3c-2.2-2.2-5-3.8-8.1-4.7L140,180L152.7,167.3z"/>
<path class="st5" d="M140,180l17.4-4.7c-0.8-3.2-2.5-5.9-4.7-8.1L140,180z"/>
<path class="st4" d="M157.4,184.7c0.8-3,0.9-6.1,0-9.3L140,180L157.4,184.7z"/>
<path class="st4" d="M162.6,175.3c-0.8,3-0.9,6.1,0,9.3L180,180L162.6,175.3z"/>
<path class="st4" d="M162.6,184.7c0.8,3.2,2.5,5.9,4.7,8.1L180,180L162.6,184.7z"/>
<path class="st4" d="M167.3,192.7c2.2,2.2,5,3.8,8.1,4.7L180,180L167.3,192.7z"/>
<path class="st4" d="M175.3,197.4c3,0.8,6.1,0.9,9.3,0L180,180L175.3,197.4z"/>
<path class="st4" d="M184.7,197.4c3.2-0.8,5.9-2.5,8.1-4.7L180,180L184.7,197.4z"/>
<path class="st4" d="M192.7,192.7c2.2-2.2,3.8-5,4.7-8.1L180,180L192.7,192.7z"/>
<path class="st4" d="M167.3,167.3c-2.2,2.2-3.8,5-4.7,8.1L180,180L167.3,167.3z"/>
<path class="st4" d="M175.3,162.6c-3.2,0.8-5.9,2.5-8.1,4.7L180,180L175.3,162.6z"/>
<path class="st5" d="M184.7,162.6c-3-0.8-6.1-0.9-9.3,0L180,180L184.7,162.6z"/>
<path class="st5" d="M192.7,167.3c-2.2-2.2-5-3.8-8.1-4.7L180,180L192.7,167.3z"/>
<path class="st5" d="M180,180l17.4-4.7c-0.8-3.2-2.5-5.9-4.7-8.1L180,180z"/>
<path class="st5" d="M197.4,184.7c0.8-3,0.9-6.1,0-9.3L180,180L197.4,184.7z"/>
<path class="st4" d="M202.6,175.3c-0.8,3-0.9,6.1,0,9.3L220,180L202.6,175.3z"/>
<path class="st4" d="M202.6,184.7c0.8,3.2,2.5,5.9,4.7,8.1L220,180L202.6,184.7z"/>
<path class="st4" d="M207.3,192.7c2.2,2.2,5,3.8,8.1,4.7L220,180L207.3,192.7z"/>
<path class="st4" d="M215.3,197.4c3,0.8,6.1,0.9,9.3,0L220,180L215.3,197.4z"/>
<path class="st4" d="M224.7,197.4c3.2-0.8,5.9-2.5,8.1-4.7L220,180L224.7,197.4z"/>
<path class="st5" d="M232.7,192.7c2.2-2.2,3.8-5,4.7-8.1L220,180L232.7,192.7z"/>
<path class="st4" d="M207.3,167.3c-2.2,2.2-3.8,5-4.7,8.1L220,180L207.3,167.3z"/>
<path class="st4" d="M215.3,162.6c-3.2,0.8-5.9,2.5-8.1,4.7L220,180L215.3,162.6z"/>
<path class="st5" d="M224.7,162.6c-3-0.8-6.1-0.9-9.3,0L220,180L224.7,162.6z"/>
<path class="st5" d="M232.7,167.3c-2.2-2.2-5-3.8-8.1-4.7L220,180L232.7,167.3z"/>
<path class="st5" d="M220,180l17.4-4.7c-0.8-3.2-2.5-5.9-4.7-8.1L220,180z"/>
<path class="st5" d="M237.4,184.7c0.8-3,0.9-6.1,0-9.3L220,180L237.4,184.7z"/>
<path class="st4" d="M242.6,175.3c-0.8,3-0.9,6.1,0,9.3L260,180L242.6,175.3z"/>
<path class="st4" d="M242.6,184.7c0.8,3.2,2.5,5.9,4.7,8.1L260,180L242.6,184.7z"/>
<path class="st4" d="M247.3,192.7c2.2,2.2,5,3.8,8.1,4.7L260,180L247.3,192.7z"/>
<path class="st4" d="M255.3,197.4c3,0.8,6.1,0.9,9.3,0L260,180L255.3,197.4z"/>
<path class="st5" d="M264.7,197.4c3.2-0.8,5.9-2.5,8.1-4.7L260,180L264.7,197.4z"/>
<path class="st5" d="M272.7,192.7c2.2-2.2,3.8-5,4.7-8.1L260,180L272.7,192.7z"/>
<path class="st4" d="M247.3,167.3c-2.2,2.2-3.8,5-4.7,8.1L260,180L247.3,167.3z"/>
<path class="st4" d="M255.3,162.6c-3.2,0.8-5.9,2.5-8.1,4.7L260,180L255.3,162.6z"/>
<path class="st5" d="M264.7,162.6c-3-0.8-6.1-0.9-9.3,0L260,180L264.7,162.6z"/>
<path class="st5" d="M272.7,167.3c-2.2-2.2-5-3.8-8.1-4.7L260,180L272.7,167.3z"/>
<path class="st5" d="M260,180l17.4-4.7c-0.8-3.2-2.5-5.9-4.7-8.1L260,180z"/>
<path class="st5" d="M277.4,184.7c0.8-3,0.9-6.1,0-9.3L260,180L277.4,184.7z"/>
<path class="st4" d="M282.6,175.3c-0.8,3-0.9,6.1,0,9.3L300,180L282.6,175.3z"/>
<path class="st4" d="M282.6,184.7c0.8,3.2,2.5,5.9,4.7,8.1L300,180L282.6,184.7z"/>
<path class="st4" d="M287.3,192.7c2.2,2.2,5,3.8,8.1,4.7L300,180L287.3,192.7z"/>
<path class="st5" d="M295.3,197.4c3,0.8,6.1,0.9,9.3,0L300,180L295.3,197.4z"/>
<path class="st5" d="M304.7,197.4c3.2-0.8,5.9-2.5,8.1-4.7L300,180L304.7,197.4z"/>
<path class="st5" d="M312.7,192.7c2.2-2.2,3.8-5,4.7-8.1L300,180L312.7,192.7z"/>
<path class="st4" d="M287.3,167.3c-2.2,2.2-3.8,5-4.7,8.1L300,180L287.3,167.3z"/>
<path class="st4" d="M295.3,162.6c-3.2,0.8-5.9,2.5-8.1,4.7L300,180L295.3,162.6z"/>
<path class="st5" d="M304.7,162.6c-3-0.8-6.1-0.9-9.3,0L300,180L304.7,162.6z"/>
<path class="st5" d="M312.7,167.3c-2.2-2.2-5-3.8-8.1-4.7L300,180L312.7,167.3z"/>
<path class="st5" d="M300,180l17.4-4.7c-0.8-3.2-2.5-5.9-4.7-8.1L300,180z"/>
<path class="st5" d="M317.4,184.7c0.8-3,0.9-6.1,0-9.3L300,180L317.4,184.7z"/>
<path class="st4" d="M322.6,175.3c-0.8,3-0.9,6.1,0,9.3L340,180L322.6,175.3z"/>
<path class="st4" d="M322.6,184.7c0.8,3.2,2.5,5.9,4.7,8.1L340,180L322.6,184.7z"/>
<path class="st5" d="M327.3,192.7c2.2,2.2,5,3.8,8.1,4.7L340,180L327.3,192.7z"/>
<path class="st5" d="M335.3,197.4c3,0.8,6.1,0.9,9.3,0L340,180L335.3,197.4z"/>
<path class="st5" d="M344.7,197.4c3.2-0.8,5.9-2.5,8.1-4.7L340,180L344.7,197.4z"/>
<path class="st5" d="M352.7,192.7c2.2-2.2,3.8-5,4.7-8.1L340,180L352.7,192.7z"/>
<path class="st4" d="M327.3,167.3c-2.2,2.2-3.8,5-4.7,8.1L340,180L327.3,167.3z"/>
<path class="st4" d="M335.3,162.6c-3.2,0.8-5.9,2.5-8.1,4.7L340,180L335.3,162.6z"/>
<path class="st5" d="M344.7,162.6c-3-0.8-6.1-0.9-9.3,0L340,180L344.7,162.6z"/>
<path class="st5" d="M352.7,167.3c-2.2-2.2-5-3.8-8.1-4.7L340,180L352.7,167.3z"/>
<path class="st5" d="M340,180l17.4-4.7c-0.8-3.2-2.5-5.9-4.7-8.1L340,180z"/>
<path class="st5" d="M357.4,184.7c0.8-3,0.9-6.1,0-9.3L340,180L357.4,184.7z"/>
<path class="st4" d="M362.6,175.3c-0.8,3-0.9,6.1,0,9.3L380,180L362.6,175.3z"/>
<path class="st5" d="M362.6,184.7c0.8,3.2,2.5,5.9,4.7,8.1L380,180L362.6,184.7z"/>
<path class="st5" d="M367.3,192.7c2.2,2.2,5,3.8,8.1,4.7L380,180L367.3,192.7z"/>
<path class="st5" d="M375.3,197.4c3,0.8,6.1,0.9,9.3,0L380,180L375.3,197.4z"/>
<path class="st5" d="M384.7,197.4c3.2-0.8,5.9-2.5,8.1-4.7L380,180L384.7,197.4z"/>
<path class="st5" d="M392.7,192.7c2.2-2.2,3.8-5,4.7-8.1L380,180L392.7,192.7z"/>
<path class="st4" d="M367.3,167.3c-2.2,2.2-3.8,5-4.7,8.1L380,180L367.3,167.3z"/>
<path class="st4" d="M375.3,162.6c-3.2,0.8-5.9,2.5-8.1,4.7L380,180L375.3,162.6z"/>
<path class="st5" d="M384.7,162.6c-3-0.8-6.1-0.9-9.3,0L380,180L384.7,162.6z"/>
<path class="st5" d="M392.7,167.3c-2.2-2.2-5-3.8-8.1-4.7L380,180L392.7,167.3z"/>
<path class="st5" d="M380,180l17.4-4.7c-0.8-3.2-2.5-5.9-4.7-8.1L380,180z"/>
<path class="st5" d="M397.4,184.7c0.8-3,0.9-6.1,0-9.3L380,180L397.4,184.7z"/>
<path class="st5" d="M402.6,175.3c-0.8,3-0.9,6.1,0,9.3L420,180L402.6,175.3z"/>
<path class="st5" d="M402.6,184.7c0.8,3.2,2.5,5.9,4.7,8.1L420,180L402.6,184.7z"/>
<path class="st5" d="M407.3,192.7c2.2,2.2,5,3.8,8.1,4.7L420,180L407.3,192.7z"/>
<path class="st5" d="M415.3,197.4c3,0.8,6.1,0.9,9.3,0L420,180L415.3,197.4z"/>
<path class="st5" d="M424.7,197.4c3.2-0.8,5.9-2.5,8.1-4.7L420,180L424.7,197.4z"/>
<path class="st5" d="M432.7,192.7c2.2-2.2,3.8-5,4.7-8.1L420,180L432.7,192.7z"/>
<path class="st4" d="M407.3,167.3c-2.2,2.2-3.8,5-4.7,8.1L420,180L407.3,167.3z"/>
<path class="st4" d="M415.3,162.6c-3.2,0.8-5.9,2.5-8.1,4.7L420,180L415.3,162.6z"/>
<path class="st5" d="M424.7,162.6c-3-0.8-6.1-0.9-9.3,0L420,180L424.7,162.6z"/>
<path class="st5" d="M432.7,167.3c-2.2-2.2-5-3.8-8.1-4.7L420,180L432.7,167.3z"/>
<path class="st5" d="M420,180l17.4-4.7c-0.8-3.2-2.5-5.9-4.7-8.1L420,180z"/>
<path class="st5" d="M437.4,184.7c0.8-3,0.9-6.1,0-9.3L420,180L437.4,184.7z"/>
<path class="st5" d="M442.6,175.3c-0.8,3-0.9,6.1,0,9.3L460,180L442.6,175.3z"/>
<path class="st5" d="M442.6,184.7c0.8,3.2,2.5,5.9,4.7,8.1L460,180L442.6,184.7z"/>
<path class="st5" d="M447.3,192.7c2.2,2.2,5,3.8,8.1,4.7L460,180L447.3,192.7z"/>
<path class="st5" d="M455.3,197.4c3,0.8,6.1,0.9,9.3,0L460,180L455.3,197.4z"/>
<path class="st5" d="M464.7,197.4c3.2-0.8,5.9-2.5,8.1-4.7L460,180L464.7,197.4z"/>
<path class="st5" d="M472.7,192.7c2.2-2.2,3.8-5,4.7-8.1L460,180L472.7,192.7z"/>
<path class="st5" d="M447.3,167.3c-2.2,2.2-3.8,5-4.7,8.1L460,180L447.3,167.3z"/>
<path class="st4" d="M455.3,162.6c-3.2,0.8-5.9,2.5-8.1,4.7L460,180L455.3,162.6z"/>
<path class="st5" d="M464.7,162.6c-3-0.8-6.1-0.9-9.3,0L460,180L464.7,162.6z"/>
<path class="st5" d="M472.7,167.3c-2.2-2.2-5-3.8-8.1-4.7L460,180L472.7,167.3z"/>
<path class="st5" d="M460,180l17.4-4.7c-0.8-3.2-2.5-5.9-4.7-8.1L460,180z"/>
<path class="st5" d="M477.4,184.7c0.8-3,0.9-6.1,0-9.3L460,180L477.4,184.7z"/>
<path class="st5" d="M482.6,175.3c-0.8,3-0.9,6.1,0,9.3L500,180L482.6,175.3z"/>
<path class="st5" d="M482.6,184.7c0.8,3.2,2.5,5.9,4.7,8.1L500,180L482.6,184.7z"/>
<path class="st5" d="M487.3,192.7c2.2,2.2,5,3.8,8.1,4.7L500,180L487.3,192.7z"/>
<path class="st5" d="M495.3,197.4c3,0.8,6.1,0.9,9.3,0L500,180L495.3,197.4z"/>
<path class="st5" d="M504.7,197.4c3.2-0.8,5.9-2.5,8.1-4.7L500,180L504.7,197.4z"/>
<path class="st5" d="M512.7,192.7c2.2-2.2,3.8-5,4.7-8.1L500,180L512.7,192.7z"/>
<path class="st5" d="M487.3,167.3c-2.2,2.2-3.8,5-4.7,8.1L500,180L487.3,167.3z"/>
<path class="st5" d="M495.3,162.6c-3.2,0.8-5.9,2.5-8.1,4.7L500,180L495.3,162.6z"/>
<path class="st5" d="M504.7,162.6c-3-0.8-6.1-0.9-9.3,0L500,180L504.7,162.6z"/>
<path class="st5" d="M512.7,167.3c-2.2-2.2-5-3.8-8.1-4.7L500,180L512.7,167.3z"/>
<path class="st5" d="M500,180l17.4-4.7c-0.8-3.2-2.5-5.9-4.7-8.1L500,180z"/>
<path class="st5" d="M517.4,184.7c0.8-3,0.9-6.1,0-9.3L500,180L517.4,184.7z"/>
<g>
	<path class="st6" d="M20,140L20,140L5.5,129.4C3.3,132.4,2,136,2,140H20L20,140z"/>
	<path class="st6" d="M2,140c0,4,1.3,7.6,3.5,10.6L20,140H2z"/>
	<path class="st6" d="M20,140L5.5,150.6c2.2,3,5.3,5.4,9,6.5L20,140L20,140z"/>
	<path class="st6" d="M14.4,157.1c1.8,0.6,3.6,0.9,5.6,0.9s3.8-0.3,5.6-0.9L20,140L14.4,157.1z"/>
	<path class="st6" d="M20,140l5.6,17.1c3.6-1.2,6.8-3.5,9-6.5L20,140L20,140z"/>
	<path class="st6" d="M14.4,122.9c-3.6,1.2-6.8,3.5-9,6.5L20,140L14.4,122.9z"/>
	<path class="st6" d="M20,140L20,140l5.6-17.1c-1.8-0.6-3.6-0.9-5.6-0.9s-3.8,0.3-5.6,0.9L20,140L20,140z"/>
	<path class="st6" d="M34.5,129.4c-2.2-3-5.3-5.4-9-6.5L20,140L34.5,129.4z"/>
	<path class="st6" d="M20,140L20,140L20,140l18,0c0-4-1.3-7.6-3.5-10.6L20,140z"/>
	<path class="st6" d="M34.5,150.6c2.2-3,3.5-6.6,3.5-10.6H20L34.5,150.6z"/>
</g>
<path class="st6" d="M60,140L60,140l-14.5-10.6c-2.2,3-3.5,6.6-3.5,10.6H60L60,140z"/>
<path class="st6" d="M42,140c0,4,1.3,7.6,3.5,10.6L60,140H42z"/>
<path class="st6" d="M60,140l-14.5,10.6c2.2,3,5.3,5.4,9,6.5L60,140L60,140z"/>
<path class="st6" d="M54.4,157.1c1.8,0.6,3.6,0.9,5.6,0.9s3.8-0.3,5.6-0.9L60,140L54.4,157.1z"/>
<path class="st6" d="M60,140l5.6,17.1c3.6-1.2,6.8-3.5,9-6.5L60,140L60,140z"/>
<path class="st6" d="M54.4,122.9c-3.6,1.2-6.8,3.5-9,6.5L60,140L54.4,122.9z"/>
<path class="st7" d="M60,140L60,140l5.6-17.1c-1.8-0.6-3.6-0.9-5.6-0.9s-3.8,0.3-5.6,0.9L60,140L60,140z"/>
<path class="st6" d="M74.5,129.4c-2.2-3-5.3-5.4-9-6.5L60,140L74.5,129.4z"/>
<path class="st6" d="M60,140L60,140L60,140l18,0c0-4-1.3-7.6-3.5-10.6L60,140z"/>
<path class="st6" d="M74.5,150.6c2.2-3,3.5-6.6,3.5-10.6H60L74.5,150.6z"/>
<path class="st6" d="M100,140L100,140l-14.5-10.6c-2.2,3-3.5,6.6-3.5,10.6H100L100,140z"/>
<path class="st6" d="M82,140c0,4,1.3,7.6,3.5,10.6L100,140H82z"/>
<path class="st6" d="M100,140l-14.5,10.6c2.2,3,5.3,5.4,9,6.5L100,140L100,140z"/>
<path class="st6" d="M94.4,157.1c1.8,0.6,3.6,0.9,5.6,0.9s3.8-0.3,5.6-0.9L100,140L94.4,157.1z"/>
<path class="st6" d="M100,140l5.6,17.1c3.6-1.2,6.8-3.5,9-6.5L100,140L100,140z"/>
<path class="st6" d="M94.4,122.9c-3.6,1.2-6.8,3.5-9,6.5L100,140L94.4,122.9z"/>
<path class="st7" d="M100,140L100,140l5.6-17.1c-1.8-0.6-3.6-0.9-5.6-0.9s-3.8,0.3-5.6,0.9L100,140L100,140z"/>
<path class="st7" d="M114.5,129.4c-2.2-3-5.3-5.4-9-6.5L100,140L114.5,129.4z"/>
<path class="st6" d="M100,140L100,140L100,140l18,0c0-4-1.3-7.6-3.5-10.6L100,140z"/>
<path class="st6" d="M114.5,150.6c2.2-3,3.5-6.6,3.5-10.6h-18L114.5,150.6z"/>
<path class="st6" d="M140,140L140,140l-14.5-10.6c-2.2,3-3.5,6.6-3.5,10.6H140L140,140z"/>
<path class="st6" d="M122,140c0,4,1.3,7.6,3.5,10.6L140,140H122z"/>
<path class="st6" d="M140,140l-14.5,10.6c2.2,3,5.3,5.4,9,6.5L140,140L140,140z"/>
<path class="st6" d="M134.4,157.1c1.8,0.6,3.6,0.9,5.6,0.9s3.8-0.3,5.6-0.9L140,140L134.4,157.1z"/>
<path class="st6" d="M140,140l5.6,17.1c3.6-1.2,6.8-3.5,9-6.5L140,140L140,140z"/>
<path class="st6" d="M134.4,122.9c-3.6,1.2-6.8,3.5-9,6.5L140,140L134.4,122.9z"/>
<path class="st7" d="M140,140L140,140l5.6-17.1c-1.8-0.6-3.6-0.9-5.6-0.9s-3.8,0.3-5.6,0.9L140,140L140,140z"/>
<path class="st7" d="M154.5,129.4c-2.2-3-5.3-5.4-9-6.5L140,140L154.5,129.4z"/>
<path class="st7" d="M140,140L140,140L140,140l18,0c0-4-1.3-7.6-3.5-10.6L140,140z"/>
<path class="st6" d="M154.5,150.6c2.2-3,3.5-6.6,3.5-10.6h-18L154.5,150.6z"/>
<path class="st6" d="M180,140L180,140l-14.5-10.6c-2.2,3-3.5,6.6-3.5,10.6H180L180,140z"/>
<path class="st6" d="M162,140c0,4,1.3,7.6,3.5,10.6L180,140H162z"/>
<path class="st6" d="M180,140l-14.5,10.6c2.2,3,5.3,5.4,9,6.5L180,140L180,140z"/>
<path class="st6" d="M174.4,157.1c1.8,0.6,3.6,0.9,5.6,0.9s3.8-0.3,5.6-0.9L180,140L174.4,157.1z"/>
<path class="st6" d="M180,140l5.6,17.1c3.6-1.2,6.8-3.5,9-6.5L180,140L180,140z"/>
<path class="st6" d="M174.4,122.9c-3.6,1.2-6.8,3.5-9,6.5L180,140L174.4,122.9z"/>
<path class="st7" d="M180,140L180,140l5.6-17.1c-1.8-0.6-3.6-0.9-5.6-0.9s-3.8,0.3-5.6,0.9L180,140L180,140z"/>
<path class="st7" d="M194.5,129.4c-2.2-3-5.3-5.4-9-6.5L180,140L194.5,129.4z"/>
<path class="st7" d="M180,140L180,140L180,140l18,0c0-4-1.3-7.6-3.5-10.6L180,140z"/>
<path class="st7" d="M194.5,150.6c2.2-3,3.5-6.6,3.5-10.6h-18L194.5,150.6z"/>
<path class="st6" d="M220,140L220,140l-14.5-10.6c-2.2,3-3.5,6.6-3.5,10.6H220L220,140z"/>
<path class="st6" d="M202,140c0,4,1.3,7.6,3.5,10.6L220,140H202z"/>
<path class="st6" d="M220,140l-14.5,10.6c2.2,3,5.3,5.4,9,6.5L220,140L220,140z"/>
<path class="st6" d="M214.4,157.1c1.8,0.6,3.6,0.9,5.6,0.9s3.8-0.3,5.6-0.9L220,140L214.4,157.1z"/>
<path class="st7" d="M220,140l5.6,17.1c3.6-1.2,6.8-3.5,9-6.5L220,140L220,140z"/>
<path class="st6" d="M214.4,122.9c-3.6,1.2-6.8,3.5-9,6.5L220,140L214.4,122.9z"/>
<path class="st7" d="M220,140L220,140l5.6-17.1c-1.8-0.6-3.6-0.9-5.6-0.9s-3.8,0.3-5.6,0.9L220,140L220,140z"/>
<path class="st7" d="M234.5,129.4c-2.2-3-5.3-5.4-9-6.5L220,140L234.5,129.4z"/>
<path class="st7" d="M220,140L220,140L220,140l18,0c0-4-1.3-7.6-3.5-10.6L220,140z"/>
<path class="st7" d="M234.5,150.6c2.2-3,3.5-6.6,3.5-10.6h-18L234.5,150.6z"/>
<path class="st6" d="M260,140L260,140l-14.5-10.6c-2.2,3-3.5,6.6-3.5,10.6H260L260,140z"/>
<path class="st6" d="M242,140c0,4,1.3,7.6,3.5,10.6L260,140H242z"/>
<path class="st6" d="M260,140l-14.5,10.6c2.2,3,5.3,5.4,9,6.5L260,140L260,140z"/>
<path class="st7" d="M254.4,157.1c1.8,0.6,3.6,0.9,5.6,0.9s3.8-0.3,5.6-0.9L260,140L254.4,157.1z"/>
<path class="st7" d="M260,140l5.6,17.1c3.6-1.2,6.8-3.5,9-6.5L260,140L260,140z"/>
<path class="st6" d="M254.4,122.9c-3.6,1.2-6.8,3.5-9,6.5L260,140L254.4,122.9z"/>
<path class="st7" d="M260,140L260,140l5.6-17.1c-1.8-0.6-3.6-0.9-5.6-0.9s-3.8,0.3-5.6,0.9L260,140L260,140z"/>
<path class="st7" d="M274.5,129.4c-2.2-3-5.3-5.4-9-6.5L260,140L274.5,129.4z"/>
<path class="st7" d="M260,140L260,140L260,140l18,0c0-4-1.3-7.6-3.5-10.6L260,140z"/>
<path class="st7" d="M274.5,150.6c2.2-3,3.5-6.6,3.5-10.6h-18L274.5,150.6z"/>
<path class="st6" d="M300,140L300,140l-14.5-10.6c-2.2,3-3.5,6.6-3.5,10.6H300L300,140z"/>
<path class="st6" d="M282,140c0,4,1.3,7.6,3.5,10.6L300,140H282z"/>
<path class="st7" d="M300,140l-14.5,10.6c2.2,3,5.3,5.4,9,6.5L300,140L300,140z"/>
<path class="st7" d="M294.4,157.1c1.8,0.6,3.6,0.9,5.6,0.9s3.8-0.3,5.6-0.9L300,140L294.4,157.1z"/>
<path class="st7" d="M300,140l5.6,17.1c3.6-1.2,6.8-3.5,9-6.5L300,140L300,140z"/>
<path class="st6" d="M294.4,122.9c-3.6,1.2-6.8,3.5-9,6.5L300,140L294.4,122.9z"/>
<path class="st7" d="M300,140L300,140l5.6-17.1c-1.8-0.6-3.6-0.9-5.6-0.9s-3.8,0.3-5.6,0.9L300,140L300,140z"/>
<path class="st7" d="M314.5,129.4c-2.2-3-5.3-5.4-9-6.5L300,140L314.5,129.4z"/>
<path class="st7" d="M300,140L300,140L300,140l18,0c0-4-1.3-7.6-3.5-10.6L300,140z"/>
<path class="st7" d="M314.5,150.6c2.2-3,3.5-6.6,3.5-10.6h-18L314.5,150.6z"/>
<path class="st6" d="M340,140L340,140l-14.5-10.6c-2.2,3-3.5,6.6-3.5,10.6H340L340,140z"/>
<path class="st7" d="M322,140c0,4,1.3,7.6,3.5,10.6L340,140H322z"/>
<path class="st7" d="M340,140l-14.5,10.6c2.2,3,5.3,5.4,9,6.5L340,140L340,140z"/>
<path class="st7" d="M334.4,157.1c1.8,0.6,3.6,0.9,5.6,0.9s3.8-0.3,5.6-0.9L340,140L334.4,157.1z"/>
<path class="st7" d="M340,140l5.6,17.1c3.6-1.2,6.8-3.5,9-6.5L340,140L340,140z"/>
<path class="st6" d="M334.4,122.9c-3.6,1.2-6.8,3.5-9,6.5L340,140L334.4,122.9z"/>
<path class="st7" d="M340,140L340,140l5.6-17.1c-1.8-0.6-3.6-0.9-5.6-0.9s-3.8,0.3-5.6,0.9L340,140L340,140z"/>
<path class="st7" d="M354.5,129.4c-2.2-3-5.3-5.4-9-6.5L340,140L354.5,129.4z"/>
<path class="st7" d="M340,140L340,140L340,140l18,0c0-4-1.3-7.6-3.5-10.6L340,140z"/>
<path class="st7" d="M354.5,150.6c2.2-3,3.5-6.6,3.5-10.6h-18L354.5,150.6z"/>
<path class="st7" d="M380,140L380,140l-14.5-10.6c-2.2,3-3.5,6.6-3.5,10.6H380L380,140z"/>
<path class="st7" d="M362,140c0,4,1.3,7.6,3.5,10.6L380,140H362z"/>
<path class="st7" d="M380,140l-14.5,10.6c2.2,3,5.3,5.4,9,6.5L380,140L380,140z"/>
<path class="st7" d="M374.4,157.1c1.8,0.6,3.6,0.9,5.6,0.9s3.8-0.3,5.6-0.9L380,140L374.4,157.1z"/>
<path class="st7" d="M380,140l5.6,17.1c3.6-1.2,6.8-3.5,9-6.5L380,140L380,140z"/>
<path class="st6" d="M374.4,122.9c-3.6,1.2-6.8,3.5-9,6.5L380,140L374.4,122.9z"/>
<path class="st7" d="M380,140L380,140l5.6-17.1c-1.8-0.6-3.6-0.9-5.6-0.9s-3.8,0.3-5.6,0.9L380,140L380,140z"/>
<path class="st7" d="M394.5,129.4c-2.2-3-5.3-5.4-9-6.5L380,140L394.5,129.4z"/>
<path class="st7" d="M380,140L380,140L380,140l18,0c0-4-1.3-7.6-3.5-10.6L380,140z"/>
<path class="st7" d="M394.5,150.6c2.2-3,3.5-6.6,3.5-10.6h-18L394.5,150.6z"/>
<path class="st7" d="M420,140L420,140l-14.5-10.6c-2.2,3-3.5,6.6-3.5,10.6H420L420,140z"/>
<path class="st7" d="M402,140c0,4,1.3,7.6,3.5,10.6L420,140H402z"/>
<path class="st7" d="M420,140l-14.5,10.6c2.2,3,5.3,5.4,9,6.5L420,140L420,140z"/>
<path class="st7" d="M414.4,157.1c1.8,0.6,3.6,0.9,5.6,0.9s3.8-0.3,5.6-0.9L420,140L414.4,157.1z"/>
<path class="st7" d="M420,140l5.6,17.1c3.6-1.2,6.8-3.5,9-6.5L420,140L420,140z"/>
<path class="st7" d="M414.4,122.9c-3.6,1.2-6.8,3.5-9,6.5L420,140L414.4,122.9z"/>
<path class="st7" d="M420,140L420,140l5.6-17.1c-1.8-0.6-3.6-0.9-5.6-0.9s-3.8,0.3-5.6,0.9L420,140L420,140z"/>
<path class="st7" d="M434.5,129.4c-2.2-3-5.3-5.4-9-6.5L420,140L434.5,129.4z"/>
<path class="st7" d="M420,140L420,140L420,140l18,0c0-4-1.3-7.6-3.5-10.6L420,140z"/>
<path class="st7" d="M434.5,150.6c2.2-3,3.5-6.6,3.5-10.6h-18L434.5,150.6z"/>
</svg>
