<?xml version="1.0" encoding="utf-8"?>
<!-- Generator: Adobe Illustrator 27.3.1, SVG Export Plug-In . SVG Version: 6.00 Build 0)  -->
<!DOCTYPE svg PUBLIC "-//W3C//DTD SVG 1.1//EN" "http://www.w3.org/Graphics/SVG/1.1/DTD/svg11.dtd" [
	<!ENTITY ns_extend "http://ns.adobe.com/Extensibility/1.0/">
	<!ENTITY ns_ai "http://ns.adobe.com/AdobeIllustrator/10.0/">
	<!ENTITY ns_graphs "http://ns.adobe.com/Graphs/1.0/">
	<!ENTITY ns_vars "http://ns.adobe.com/Variables/1.0/">
	<!ENTITY ns_imrep "http://ns.adobe.com/ImageReplacement/1.0/">
	<!ENTITY ns_sfw "http://ns.adobe.com/SaveForWeb/1.0/">
	<!ENTITY ns_custom "http://ns.adobe.com/GenericCustomNamespace/1.0/">
	<!ENTITY ns_adobe_xpath "http://ns.adobe.com/XPath/1.0/">
]>
<svg version="1.1" id="Layer_1" xmlns:x="&ns_extend;" xmlns:i="&ns_ai;" xmlns:graph="&ns_graphs;"
	 xmlns="http://www.w3.org/2000/svg" xmlns:xlink="http://www.w3.org/1999/xlink" x="0px" y="0px" width="60px" height="60px"
	 viewBox="0 0 60 60" style="enable-background:new 0 0 60 60;" xml:space="preserve">
<style type="text/css">
	.st0{clip-path:url(#SVGID_00000075871130022346520030000005797742360605865126_);fill:#FFFFFF;}
	.st1{clip-path:url(#SVGID_00000075871130022346520030000005797742360605865126_);fill:#024342;}
	.st2{clip-path:url(#SVGID_00000075138111645280835770000007694911383972640939_);fill:#7AAA9E;}
	.st3{clip-path:url(#SVGID_00000075138111645280835770000007694911383972640939_);fill:#024342;}
	.st4{clip-path:url(#SVGID_00000075138111645280835770000007694911383972640939_);fill:#ADCABF;}
	.st5{fill:#024342;}
</style>
<metadata>
	<sfw  xmlns="&ns_sfw;">
		<slices></slices>
		<sliceSourceBounds  bottomLeftOrigin="true" height="132.2" width="103.5" x="-21.7" y="-132.2"></sliceSourceBounds>
	</sfw>
</metadata>
<g>
	<defs>
		<rect id="SVGID_1_" width="60" height="60"/>
	</defs>
	<clipPath id="SVGID_00000165199198615662182580000000261262761423003806_">
		<use xlink:href="#SVGID_1_"  style="overflow:visible;"/>
	</clipPath>
	<path style="clip-path:url(#SVGID_00000165199198615662182580000000261262761423003806_);fill:#FFFFFF;" d="M30,60
		c16.6,0,30-13.4,30-30C60,13.4,46.6,0,30,0S0,13.4,0,30C0,46.6,13.4,60,30,60"/>
	<path style="clip-path:url(#SVGID_00000165199198615662182580000000261262761423003806_);fill:#024342;" d="M30,56.4
		c14.6,0,26.4-11.8,26.4-26.4C56.4,15.4,44.6,3.6,30,3.6S3.6,15.4,3.6,30C3.6,44.6,15.4,56.4,30,56.4"/>
</g>
<g>
	<defs>
		<path id="SVGID_00000058550435392202728830000001198728065365202597_" d="M3.6,30c0,14.6,11.8,26.4,26.4,26.4
			c14.6,0,26.4-11.8,26.4-26.4S44.6,3.6,30,3.6C15.4,3.6,3.6,15.4,3.6,30"/>
	</defs>
	<clipPath id="SVGID_00000071535191816181115190000017571690244149571722_">
		<use xlink:href="#SVGID_00000058550435392202728830000001198728065365202597_"  style="overflow:visible;"/>
	</clipPath>
	<path style="clip-path:url(#SVGID_00000071535191816181115190000017571690244149571722_);fill:#7AAA9E;" d="M30,53.2
		c12.8,0,23.2-10.4,23.2-23.2C53.2,17.2,42.8,6.8,30,6.8S6.8,17.2,6.8,30C6.8,42.8,17.2,53.2,30,53.2"/>
	<polygon style="clip-path:url(#SVGID_00000071535191816181115190000017571690244149571722_);fill:#024342;" points="44.2,39.5 
		46.5,35.3 45.5,29.8 47.8,25.8 47.1,23.8 48.8,26 47.3,29.6 48.9,36.3 47.5,40.5 	"/>
	<polygon style="clip-path:url(#SVGID_00000071535191816181115190000017571690244149571722_);fill:#024342;" points="47.3,34.9 
		51.9,30.7 50.2,26.7 50.3,30.2 46.5,32.6 	"/>
	<polygon style="clip-path:url(#SVGID_00000071535191816181115190000017571690244149571722_);fill:#024342;" points="23.1,38.1 
		19.6,32 22.3,22.5 17.1,14.1 14.4,16.3 16.5,15.6 19.1,21.4 15.8,32.7 17.4,39.3 	"/>
	<polygon style="clip-path:url(#SVGID_00000071535191816181115190000017571690244149571722_);fill:#024342;" points="21,21.5 
		23.8,14.9 21.5,10.9 18.5,13.4 21.1,12.3 22.2,14.9 19.3,19.1 	"/>
	<polygon style="clip-path:url(#SVGID_00000071535191816181115190000017571690244149571722_);fill:#024342;" points="20.1,23.9 
		16.4,22.1 16.4,19 14.2,18.4 15.4,19.6 15,23.4 19.3,26.9 	"/>
	<path style="clip-path:url(#SVGID_00000071535191816181115190000017571690244149571722_);fill:#ADCABF;" d="M30,132.2
		c28.6,0,51.7-21.2,51.7-47.3c0-26.1-23.2-47.3-51.7-47.3s-51.7,21.2-51.7,47.3C-21.7,111.1,1.4,132.2,30,132.2"/>
</g>
<polygon class="st5" points="36.9,7.3 37.3,12.6 34.4,19.7 36.2,23.2 36.1,19.8 40.6,12.9 40.8,7.9 "/>
<polygon class="st5" points="37,18.1 39.5,19.4 39.1,22.6 41,18.9 38,16 "/>
<polygon class="st5" points="6.5,19.1 7.1,20 15.6,27.2 14,31.1 14,27.8 5.4,23.5 4.8,23.6 "/>
<polygon class="st5" points="12.2,26.2 11.1,33.4 13,38 9.2,33.9 9.3,24.8 "/>
<polygon class="st5" points="31.7,4 21.2,6 27,15.7 23.2,31.2 30.7,42 28.9,49.8 30.8,52.8 30.4,49.4 33.6,42 28.3,31.2 34.8,13 "/>
<polygon class="st5" points="27.8,34.4 22.8,40.4 23.6,46 26.7,49.1 25.1,45.6 25.2,41.2 29,38.5 "/>
<polygon class="st5" points="31.2,46 34.4,47.7 33.8,51.8 36.4,47.1 32.4,43.4 "/>
<polygon class="st5" points="44.3,17.3 38.1,26.2 33,26.8 31.1,31.5 32.8,34.7 32.5,31.5 33.8,29.1 38.4,29.5 48.2,21.4 49.8,14.7 
	44.6,10.5 "/>
<polygon class="st5" points="38.1,28.5 38.2,34.9 35.6,36.3 39.8,35.7 41.8,26.1 "/>
<polygon class="st5" points="39.9,32.4 42.9,32.4 44.4,36 44.3,31.4 39.6,29.2 "/>
</svg>
