<?xml version="1.0" encoding="utf-8"?>
<!-- Generator: Adobe Illustrator 27.3.1, SVG Export Plug-In . SVG Version: 6.00 Build 0)  -->
<!DOCTYPE svg PUBLIC "-//W3C//DTD SVG 1.1//EN" "http://www.w3.org/Graphics/SVG/1.1/DTD/svg11.dtd" [
	<!ENTITY ns_extend "http://ns.adobe.com/Extensibility/1.0/">
	<!ENTITY ns_ai "http://ns.adobe.com/AdobeIllustrator/10.0/">
	<!ENTITY ns_graphs "http://ns.adobe.com/Graphs/1.0/">
	<!ENTITY ns_vars "http://ns.adobe.com/Variables/1.0/">
	<!ENTITY ns_imrep "http://ns.adobe.com/ImageReplacement/1.0/">
	<!ENTITY ns_sfw "http://ns.adobe.com/SaveForWeb/1.0/">
	<!ENTITY ns_custom "http://ns.adobe.com/GenericCustomNamespace/1.0/">
	<!ENTITY ns_adobe_xpath "http://ns.adobe.com/XPath/1.0/">
]>
<svg version="1.1" id="Layer_1" xmlns:x="&ns_extend;" xmlns:i="&ns_ai;" xmlns:graph="&ns_graphs;"
	 xmlns="http://www.w3.org/2000/svg" xmlns:xlink="http://www.w3.org/1999/xlink" x="0px" y="0px" width="60px" height="60px"
	 viewBox="0 0 60 60" style="enable-background:new 0 0 60 60;" xml:space="preserve">
<style type="text/css">
	.st0{clip-path:url(#SVGID_00000087400918465153854770000016437326443889303727_);fill:#FFFFFF;}
	.st1{clip-path:url(#SVGID_00000087400918465153854770000016437326443889303727_);fill:#081A32;}
	.st2{clip-path:url(#SVGID_00000087400918465153854770000016437326443889303727_);fill:#6E809D;}
	.st3{clip-path:url(#SVGID_00000087400918465153854770000016437326443889303727_);fill:#D6D9E0;}
</style>
<metadata>
	<sfw  xmlns="&ns_sfw;">
		<slices></slices>
		<sliceSourceBounds  bottomLeftOrigin="true" height="60" width="60" x="0" y="-60"></sliceSourceBounds>
	</sfw>
</metadata>
<g>
	<defs>
		<rect id="SVGID_1_" width="60" height="60"/>
	</defs>
	<clipPath id="SVGID_00000134944044187088776880000010909758294343030687_">
		<use xlink:href="#SVGID_1_"  style="overflow:visible;"/>
	</clipPath>
	<path style="clip-path:url(#SVGID_00000134944044187088776880000010909758294343030687_);fill:#FFFFFF;" d="M30,60
		c16.6,0,30-13.4,30-30C60,13.4,46.6,0,30,0S0,13.4,0,30C0,46.6,13.4,60,30,60"/>
	<path style="clip-path:url(#SVGID_00000134944044187088776880000010909758294343030687_);fill:#081A32;" d="M30,56.4
		c14.6,0,26.4-11.8,26.4-26.4C56.4,15.4,44.6,3.6,30,3.6S3.6,15.4,3.6,30C3.6,44.6,15.4,56.4,30,56.4"/>
	<path style="clip-path:url(#SVGID_00000134944044187088776880000010909758294343030687_);fill:#6E809D;" d="M16.7,14
		c-2.7,3.1-4.3,7.1-4.3,11.5c0,9.7,7.9,17.6,17.6,17.6s17.6-7.9,17.6-17.6c0-4.4-1.6-8.4-4.3-11.5c1.5,2.4,2.3,5.2,2.3,8.1
		c0,8.6-7,15.6-15.6,15.6s-15.6-7-15.6-15.6C14.4,19.2,15.2,16.4,16.7,14"/>
	<path style="clip-path:url(#SVGID_00000134944044187088776880000010909758294343030687_);fill:#6E809D;" d="M4.7,37.4
		c3.2,11,13.3,19,25.3,19s22.1-8,25.3-19H4.7z"/>
	<path style="clip-path:url(#SVGID_00000134944044187088776880000010909758294343030687_);fill:#D6D9E0;" d="M17.3,41.7
		c0.8,0.3,1.3,0.9,1.7,1.7c0.3-0.8,0.9-1.4,1.7-1.7c-0.8-0.3-1.3-0.9-1.7-1.7C18.7,40.9,18.1,41.4,17.3,41.7"/>
	<path style="clip-path:url(#SVGID_00000134944044187088776880000010909758294343030687_);fill:#D6D9E0;" d="M19,46.7
		c0.8,0.3,1.3,0.9,1.7,1.7c0.3-0.8,0.9-1.4,1.7-1.7c-0.8-0.3-1.3-0.9-1.7-1.7C20.3,45.8,19.7,46.4,19,46.7"/>
	<path style="clip-path:url(#SVGID_00000134944044187088776880000010909758294343030687_);fill:#D6D9E0;" d="M30.6,42
		c0.8,0.3,1.3,0.9,1.7,1.7c0.3-0.8,0.9-1.4,1.7-1.7c-0.8-0.3-1.3-0.9-1.7-1.7C31.9,41.1,31.3,41.7,30.6,42"/>
	<path style="clip-path:url(#SVGID_00000134944044187088776880000010909758294343030687_);fill:#D6D9E0;" d="M34.3,44.7
		c0.5,0.2,0.8,0.5,1,1c0.2-0.5,0.5-0.8,1-1c-0.5-0.2-0.8-0.5-1-1C35.1,44.2,34.8,44.5,34.3,44.7"/>
	<path style="clip-path:url(#SVGID_00000134944044187088776880000010909758294343030687_);fill:#D6D9E0;" d="M12.9,43.4
		c0.5,0.2,0.8,0.5,1,1c0.2-0.5,0.5-0.8,1-1c-0.5-0.2-0.8-0.5-1-1C13.7,42.9,13.4,43.2,12.9,43.4"/>
	<path style="clip-path:url(#SVGID_00000134944044187088776880000010909758294343030687_);fill:#D6D9E0;" d="M39.6,40.8
		c0.5,0.2,0.8,0.5,1,1c0.2-0.5,0.5-0.8,1-1c-0.5-0.2-0.8-0.5-1-1C40.4,40.3,40.1,40.6,39.6,40.8"/>
	<path style="clip-path:url(#SVGID_00000134944044187088776880000010909758294343030687_);fill:#D6D9E0;" d="M38.9,48.4
		c0.5,0.2,0.8,0.5,1,1c0.2-0.5,0.5-0.8,1-1c-0.5-0.2-0.8-0.5-1-1C39.7,47.9,39.4,48.2,38.9,48.4"/>
	<path style="clip-path:url(#SVGID_00000134944044187088776880000010909758294343030687_);fill:#D6D9E0;" d="M42.7,44.2
		c0.5,0.2,0.8,0.5,1,1c0.2-0.5,0.5-0.8,1-1c-0.5-0.2-0.8-0.5-1-1C43.5,43.7,43.1,44,42.7,44.2"/>
	<path style="clip-path:url(#SVGID_00000134944044187088776880000010909758294343030687_);fill:#D6D9E0;" d="M22.3,43.7
		c1.6,0.7,2.8,1.8,3.4,3.5c0.7-1.6,1.8-2.8,3.4-3.5c-1.6-0.7-2.8-1.8-3.4-3.5C25,41.8,23.9,43,22.3,43.7"/>
	<path style="clip-path:url(#SVGID_00000134944044187088776880000010909758294343030687_);fill:#D6D9E0;" d="M28.6,49.6
		c1.6,0.7,2.8,1.8,3.4,3.5c0.7-1.6,1.8-2.8,3.4-3.5c-1.6-0.7-2.8-1.8-3.4-3.5C31.3,47.8,30.2,49,28.6,49.6"/>
	<path style="clip-path:url(#SVGID_00000134944044187088776880000010909758294343030687_);fill:#081A32;" d="M30,38
		c8.4,0,15.3-6.8,15.3-15.3c0-8.4-6.8-15.3-15.3-15.3s-15.3,6.8-15.3,15.3C14.7,31.2,21.6,38,30,38"/>
	<path style="clip-path:url(#SVGID_00000134944044187088776880000010909758294343030687_);fill:#FFFFFF;" d="M30,13.7
		c4.7,0,8.6,3.8,8.6,8.6c0,4.7-3.8,8.5-8.6,8.5s-8.6-3.8-8.6-8.5C21.4,17.5,25.3,13.7,30,13.7"/>
</g>
</svg>
