<?xml version="1.0" encoding="utf-8"?>
<!-- Generator: Adobe Illustrator 27.3.1, SVG Export Plug-In . SVG Version: 6.00 Build 0)  -->
<!DOCTYPE svg PUBLIC "-//W3C//DTD SVG 1.1//EN" "http://www.w3.org/Graphics/SVG/1.1/DTD/svg11.dtd" [
	<!ENTITY ns_extend "http://ns.adobe.com/Extensibility/1.0/">
	<!ENTITY ns_ai "http://ns.adobe.com/AdobeIllustrator/10.0/">
	<!ENTITY ns_graphs "http://ns.adobe.com/Graphs/1.0/">
	<!ENTITY ns_vars "http://ns.adobe.com/Variables/1.0/">
	<!ENTITY ns_imrep "http://ns.adobe.com/ImageReplacement/1.0/">
	<!ENTITY ns_sfw "http://ns.adobe.com/SaveForWeb/1.0/">
	<!ENTITY ns_custom "http://ns.adobe.com/GenericCustomNamespace/1.0/">
	<!ENTITY ns_adobe_xpath "http://ns.adobe.com/XPath/1.0/">
]>
<svg version="1.1" id="Layer_1" xmlns:x="&ns_extend;" xmlns:i="&ns_ai;" xmlns:graph="&ns_graphs;"
	 xmlns="http://www.w3.org/2000/svg" xmlns:xlink="http://www.w3.org/1999/xlink" x="0px" y="0px" width="36px" height="36px"
	 viewBox="0 0 36 36" style="enable-background:new 0 0 36 36;" xml:space="preserve">
<style type="text/css">
	.st0{fill:#FFFFFF;}
	.st1{fill:#146464;}
</style>
<metadata>
	<sfw  xmlns="&ns_sfw;">
		<slices></slices>
		<sliceSourceBounds  bottomLeftOrigin="true" height="36" width="35.2" x="0.4" y="0"></sliceSourceBounds>
	</sfw>
</metadata>
<g>
	<path class="st0" d="M4.8,18C11,20.6,15.6,25.2,18,31.6c2.4-6.4,7-11,13.2-13.6C25,15.4,20.4,10.8,18,4.4C15.6,10.8,11,15.4,4.8,18
		"/>
</g>
<path class="st1" d="M18,36l-1.6-3.8C14,26.2,10,22,4,19.6L0.4,18L4,16.4C10,14,14,10,16.4,3.8L18,0l1.6,3.8C22,10,26.2,14,32,16.4
	l3.6,1.6L32,19.6c-5.8,2.4-10,6.6-12.4,12.6L18,36z M8.6,18c4,2.2,7.2,5.6,9.4,9.6c2.2-4,5.4-7.4,9.4-9.6c-4-2.2-7.2-5.6-9.4-9.6
	C15.8,12.4,12.6,15.8,8.6,18z"/>
</svg>
