<?xml version="1.0" encoding="utf-8"?>
<!-- Generator: Adobe Illustrator 27.3.1, SVG Export Plug-In . SVG Version: 6.00 Build 0)  -->
<!DOCTYPE svg PUBLIC "-//W3C//DTD SVG 1.1//EN" "http://www.w3.org/Graphics/SVG/1.1/DTD/svg11.dtd" [
	<!ENTITY ns_extend "http://ns.adobe.com/Extensibility/1.0/">
	<!ENTITY ns_ai "http://ns.adobe.com/AdobeIllustrator/10.0/">
	<!ENTITY ns_graphs "http://ns.adobe.com/Graphs/1.0/">
	<!ENTITY ns_vars "http://ns.adobe.com/Variables/1.0/">
	<!ENTITY ns_imrep "http://ns.adobe.com/ImageReplacement/1.0/">
	<!ENTITY ns_sfw "http://ns.adobe.com/SaveForWeb/1.0/">
	<!ENTITY ns_custom "http://ns.adobe.com/GenericCustomNamespace/1.0/">
	<!ENTITY ns_adobe_xpath "http://ns.adobe.com/XPath/1.0/">
]>
<svg version="1.1" id="Layer_1" xmlns:x="&ns_extend;" xmlns:i="&ns_ai;" xmlns:graph="&ns_graphs;"
	 xmlns="http://www.w3.org/2000/svg" xmlns:xlink="http://www.w3.org/1999/xlink" x="0px" y="0px" width="16px" height="16px"
	 viewBox="0 0 16 16" style="enable-background:new 0 0 16 16;" xml:space="preserve">
<style type="text/css">
	.st0{fill:#47857E;}
	.st1{fill:#146464;}
</style>
<metadata>
	<sfw  xmlns="&ns_sfw;">
		<slices></slices>
		<sliceSourceBounds  bottomLeftOrigin="true" height="16" width="15.6" x="0.2" y="-16"></sliceSourceBounds>
	</sfw>
</metadata>
<g>
	<path class="st0" d="M2.1,8c2.8,1.2,4.8,3.2,5.9,6c1.1-2.8,3.1-4.9,5.9-6C11.1,6.8,9.1,4.8,8,2C6.9,4.8,4.9,6.8,2.1,8"/>
</g>
<path class="st1" d="M8,16l-0.7-1.7c-1.1-2.7-2.9-4.5-5.5-5.6L0.2,8l1.6-0.7c2.6-1.1,4.4-2.9,5.5-5.6L8,0l0.7,1.7
	c1.1,2.7,2.9,4.5,5.5,5.6L15.8,8l-1.6,0.7c-2.6,1.1-4.4,2.9-5.5,5.6L8,16z M3.8,8C5.6,9,7,10.5,8,12.3C9,10.5,10.4,9,12.2,8
	C10.4,7,9,5.5,8,3.7C7,5.5,5.6,7,3.8,8z"/>
</svg>
