<?xml version="1.0" encoding="utf-8"?>
<!-- Generator: Adobe Illustrator 27.3.1, SVG Export Plug-In . SVG Version: 6.00 Build 0)  -->
<!DOCTYPE svg PUBLIC "-//W3C//DTD SVG 1.1//EN" "http://www.w3.org/Graphics/SVG/1.1/DTD/svg11.dtd" [
	<!ENTITY ns_extend "http://ns.adobe.com/Extensibility/1.0/">
	<!ENTITY ns_ai "http://ns.adobe.com/AdobeIllustrator/10.0/">
	<!ENTITY ns_graphs "http://ns.adobe.com/Graphs/1.0/">
	<!ENTITY ns_vars "http://ns.adobe.com/Variables/1.0/">
	<!ENTITY ns_imrep "http://ns.adobe.com/ImageReplacement/1.0/">
	<!ENTITY ns_sfw "http://ns.adobe.com/SaveForWeb/1.0/">
	<!ENTITY ns_custom "http://ns.adobe.com/GenericCustomNamespace/1.0/">
	<!ENTITY ns_adobe_xpath "http://ns.adobe.com/XPath/1.0/">
]>
<svg version="1.1" id="Layer_1" xmlns:x="&ns_extend;" xmlns:i="&ns_ai;" xmlns:graph="&ns_graphs;"
	 xmlns="http://www.w3.org/2000/svg" xmlns:xlink="http://www.w3.org/1999/xlink" x="0px" y="0px" width="18px" height="18px"
	 viewBox="0 0 18 18" style="enable-background:new 0 0 18 18;" xml:space="preserve">
<style type="text/css">
	.st0{fill:#FFFFFF;}
	.st1{fill:#D6E7E8;}
	.st2{fill:#358A8D;}
</style>
<metadata>
	<sfw  xmlns="&ns_sfw;">
		<slices></slices>
		<sliceSourceBounds  bottomLeftOrigin="true" height="18" width="17.6" x="0.2" y="0"></sliceSourceBounds>
	</sfw>
</metadata>
<g>
	<path class="st0" d="M2.4,9c3.1,1.3,5.4,3.6,6.6,6.8c1.2-3.2,3.5-5.5,6.6-6.8C12.5,7.7,10.2,5.4,9,2.2C7.8,5.4,5.5,7.7,2.4,9"/>
</g>
<g>
	<path class="st1" d="M8.4,16c-1.2-3.1-3.3-5.2-6.3-6.4L0.8,9l1.3-0.6C5.2,7.2,7.2,5.1,8.4,2L9,0.6L9.6,2c1.2,3.1,3.3,5.2,6.3,6.4
		L17.2,9l-1.3,0.6c-3,1.2-5.1,3.4-6.3,6.4L9,17.4L8.4,16z M8.8,4.1c-1.1,2-2.7,3.7-4.6,4.7L3.8,9l0.4,0.2c1.9,1,3.5,2.7,4.6,4.7
		L9,14.3l0.2-0.4c1.1-2,2.7-3.7,4.6-4.7L14.2,9l-0.4-0.2c-1.9-1-3.5-2.7-4.6-4.7L9,3.7L8.8,4.1z"/>
	<path class="st1" d="M9,1.3l0.3,0.8c1.2,3.1,3.3,5.3,6.5,6.6L16.6,9l-0.8,0.3c-3.1,1.3-5.2,3.5-6.5,6.6L9,16.7l-0.3-0.8
		c-1.3-3.2-3.4-5.3-6.5-6.6L1.4,9l0.8-0.3c3.2-1.3,5.2-3.4,6.5-6.6L9,1.3 M9,14.8L9.4,14c1.1-2,2.7-3.6,4.5-4.6L14.7,9l-0.8-0.4
		C12.1,7.5,10.5,6,9.4,4L9,3.2L8.6,4C7.5,6,5.9,7.5,4.1,8.6L3.3,9l0.8,0.4c1.8,1,3.4,2.6,4.5,4.6L9,14.8 M9,0L8.2,1.9C7,5,5,7,2,8.2
		L0.2,9L2,9.8c3,1.2,5,3.3,6.2,6.3L9,18l0.8-1.9c1.2-3,3.3-5.1,6.2-6.3L17.8,9L16,8.2C13.1,7,11,5,9.8,1.9L9,0L9,0z M9,13.8
		c-1.1-2-2.7-3.7-4.7-4.8c2-1.1,3.6-2.8,4.7-4.8c1.1,2,2.7,3.7,4.7,4.8C11.7,10.1,10.1,11.8,9,13.8L9,13.8z"/>
</g>
<path class="st2" d="M9,5.6C8.2,6.9,7.1,8.2,5.6,9c1.5,0.8,2.6,2.1,3.4,3.5C9.8,11,10.9,9.9,12.4,9C10.9,8.2,9.8,6.9,9,5.6z"/>
</svg>
