<?xml version="1.0" encoding="utf-8"?>
<!-- Generator: Adobe Illustrator 27.3.1, SVG Export Plug-In . SVG Version: 6.00 Build 0)  -->
<!DOCTYPE svg PUBLIC "-//W3C//DTD SVG 1.1//EN" "http://www.w3.org/Graphics/SVG/1.1/DTD/svg11.dtd" [
	<!ENTITY ns_extend "http://ns.adobe.com/Extensibility/1.0/">
	<!ENTITY ns_ai "http://ns.adobe.com/AdobeIllustrator/10.0/">
	<!ENTITY ns_graphs "http://ns.adobe.com/Graphs/1.0/">
	<!ENTITY ns_vars "http://ns.adobe.com/Variables/1.0/">
	<!ENTITY ns_imrep "http://ns.adobe.com/ImageReplacement/1.0/">
	<!ENTITY ns_sfw "http://ns.adobe.com/SaveForWeb/1.0/">
	<!ENTITY ns_custom "http://ns.adobe.com/GenericCustomNamespace/1.0/">
	<!ENTITY ns_adobe_xpath "http://ns.adobe.com/XPath/1.0/">
]>
<svg version="1.1" id="Layer_1" xmlns:x="&ns_extend;" xmlns:i="&ns_ai;" xmlns:graph="&ns_graphs;"
	 xmlns="http://www.w3.org/2000/svg" xmlns:xlink="http://www.w3.org/1999/xlink" x="0px" y="0px" width="18px" height="18px"
	 viewBox="0 0 18 18" style="enable-background:new 0 0 18 18;" xml:space="preserve">
<style type="text/css">
	.st0{fill:#FFFFFF;}
	.st1{fill:#146464;}
</style>
<metadata>
	<sfw  xmlns="&ns_sfw;">
		<slices></slices>
		<sliceSourceBounds  bottomLeftOrigin="true" height="18" width="17.6" x="0.2" y="0"></sliceSourceBounds>
	</sfw>
</metadata>
<g>
	<path class="st0" d="M2.4,9c3.1,1.3,5.4,3.6,6.6,6.8c1.2-3.2,3.5-5.5,6.6-6.8C12.5,7.7,10.2,5.4,9,2.2C7.8,5.4,5.5,7.7,2.4,9"/>
</g>
<path class="st1" d="M9,18l-0.8-1.9C7,13.1,5,11,2,9.8L0.2,9L2,8.2C5,7,7,5,8.2,1.9L9,0l0.8,1.9C11,5,13.1,7,16,8.2L17.8,9L16,9.8
	c-2.9,1.2-5,3.3-6.2,6.3L9,18z M4.3,9c2,1.1,3.6,2.8,4.7,4.8c1.1-2,2.7-3.7,4.7-4.8c-2-1.1-3.6-2.8-4.7-4.8C7.9,6.2,6.3,7.9,4.3,9z"
	/>
<path class="st1" d="M9,5.6C8.2,6.9,7.1,8.2,5.6,9c1.5,0.8,2.6,2.1,3.4,3.5c0.8-1.5,1.9-2.6,3.4-3.5C10.9,8.2,9.8,6.9,9,5.6z"/>
</svg>
