<?xml version="1.0" encoding="utf-8"?>
<!-- Generator: Adobe Illustrator 27.3.1, SVG Export Plug-In . SVG Version: 6.00 Build 0)  -->
<!DOCTYPE svg PUBLIC "-//W3C//DTD SVG 1.1//EN" "http://www.w3.org/Graphics/SVG/1.1/DTD/svg11.dtd" [
	<!ENTITY ns_extend "http://ns.adobe.com/Extensibility/1.0/">
	<!ENTITY ns_ai "http://ns.adobe.com/AdobeIllustrator/10.0/">
	<!ENTITY ns_graphs "http://ns.adobe.com/Graphs/1.0/">
	<!ENTITY ns_vars "http://ns.adobe.com/Variables/1.0/">
	<!ENTITY ns_imrep "http://ns.adobe.com/ImageReplacement/1.0/">
	<!ENTITY ns_sfw "http://ns.adobe.com/SaveForWeb/1.0/">
	<!ENTITY ns_custom "http://ns.adobe.com/GenericCustomNamespace/1.0/">
	<!ENTITY ns_adobe_xpath "http://ns.adobe.com/XPath/1.0/">
]>
<svg version="1.1" id="Layer_1" xmlns:x="&ns_extend;" xmlns:i="&ns_ai;" xmlns:graph="&ns_graphs;"
	 xmlns="http://www.w3.org/2000/svg" xmlns:xlink="http://www.w3.org/1999/xlink" x="0px" y="0px" width="24px" height="24px"
	 viewBox="0 0 24 24" style="enable-background:new 0 0 24 24;" xml:space="preserve">
<style type="text/css">
	.st0{fill:#FFFFFF;}
	.st1{fill:#0D3A4C;}
</style>
<metadata>
	<sfw  xmlns="&ns_sfw;">
		<slices></slices>
		<sliceSourceBounds  bottomLeftOrigin="true" height="20" width="24" x="0" y="-22"></sliceSourceBounds>
	</sfw>
</metadata>
<g>
	<path class="st0" d="M10,21.4c-5.2,0-9.4-4.2-9.4-9.4c0-5.2,4.2-9.4,9.4-9.4h13.4v18.9H10z"/>
	<path class="st1" d="M22.9,3.1v17.8H10c-4.9,0-8.9-4-8.9-8.9s4-8.9,8.9-8.9H22.9 M24,2H10C4.5,2,0,6.5,0,12c0,5.5,4.5,10,10,10h14
		V2L24,2z"/>
</g>
<g>
	<path class="st0" d="M10,20.5c-4.7,0-8.5-3.8-8.5-8.5c0-4.7,3.8-8.5,8.5-8.5h13.5v17H10z"/>
	<path class="st1" d="M23,4v16H10c-4.4,0-8-3.6-8-8s3.6-8,8-8H23 M24,3H10c-5,0-9,4-9,9c0,5,4,9,9,9h14V3L24,3z"/>
</g>
<path class="st0" d="M10,5c-3.9,0-7,3.1-7,7c0,3.9,3.1,7,7,7h12V5H10z"/>
</svg>
